<svg width="80" height="84" viewBox="0 0 80 84" fill="none" xmlns="http://www.w3.org/2000/svg">
<path d="M42.3802 15.0544L37.2655 12.2715C37.6639 12.4881 38.1441 12.7394 38.6985 13.0121L43.8143 15.795C43.2599 15.5223 42.7797 15.271 42.3802 15.0544Z" fill="#3C3C3C"/>
<g filter="url(#filter0_f_1152_66)">
<ellipse cx="39.5" cy="74.5" rx="15" ry="3.5" fill="url(#paint0_linear_1152_66)" fill-opacity="0.5"/>
<path d="M54.34 74.5C54.34 74.6921 54.2573 74.892 54.075 75.0999C53.8917 75.3088 53.6143 75.518 53.2439 75.7223C52.5034 76.1308 51.4212 76.5038 50.0702 76.8191C47.3709 77.4489 43.6336 77.84 39.5 77.84C35.3664 77.84 31.6291 77.4489 28.9298 76.8191C27.5788 76.5038 26.4966 76.1308 25.7561 75.7223C25.3857 75.518 25.1083 75.3088 24.925 75.0999C24.7427 74.892 24.66 74.6921 24.66 74.5C24.66 74.3079 24.7427 74.108 24.925 73.9001C25.1083 73.6912 25.3857 73.482 25.7561 73.2777C26.4966 72.8692 27.5788 72.4962 28.9298 72.1809C31.6291 71.5511 35.3664 71.16 39.5 71.16C43.6336 71.16 47.3709 71.5511 50.0702 72.1809C51.4212 72.4962 52.5034 72.8692 53.2439 73.2777C53.6143 73.482 53.8917 73.6912 54.075 73.9001C54.2573 74.108 54.34 74.3079 54.34 74.5Z" stroke="url(#paint1_linear_1152_66)" stroke-width="0.32"/>
</g>
<path d="M75.5 52V70" stroke="url(#paint2_linear_1152_66)" stroke-width="0.4"/>
<path d="M75.4109 52.8139C76.4663 52.8139 77.3218 51.9601 77.3218 50.9069C77.3218 49.8538 76.4663 49 75.4109 49C74.3555 49 73.5 49.8538 73.5 50.9069C73.5 51.9601 74.3555 52.8139 75.4109 52.8139Z" fill="url(#paint3_radial_1152_66)"/>
<g filter="url(#filter1_b_1152_66)">
<path d="M64.9497 52L59 48.8985L59.0504 20L65 23.1035L64.9497 52Z" fill="url(#paint4_linear_1152_66)"/>
</g>
<g filter="url(#filter2_b_1152_66)">
<path d="M42.267 70L35.9999 66.525L58.5385 49L64.9999 52.3249L42.267 70Z" fill="url(#paint5_linear_1152_66)"/>
</g>
<g filter="url(#filter3_b_1152_66)">
<path d="M18.9497 59L13 55.4537L13.0503 26L19 29.5483L18.9497 59Z" fill="url(#paint6_linear_1152_66)"/>
</g>
<g filter="url(#filter4_b_1152_66)">
<path d="M19.267 30L13 26.525L35.5385 9L42 12.3249L19.267 30Z" fill="url(#paint7_linear_1152_66)"/>
</g>
<g filter="url(#filter5_i_1152_66)">
<path d="M36.0528 9.00002L59.0002 20.2297L58.9465 49.2297L35.9475 67L13.0002 55.7683L13.0538 26.7703L36.0528 9.00002Z" fill="white" fill-opacity="0.01"/>
</g>
<path d="M13.2536 26.8687L36.0767 9.23435L58.7999 20.3544L58.7467 49.1314L35.9237 66.7657L13.2004 55.6436L13.2536 26.8687Z" stroke="url(#paint8_linear_1152_66)" stroke-width="0.4"/>
<g filter="url(#filter6_i_1152_66)">
<path d="M42.5538 12L66 23.2297L65.9452 52.2297L42.4462 70L19 58.7683L19.0548 29.7703L42.5538 12Z" fill="white" fill-opacity="0.01"/>
</g>
<path d="M19.2546 29.8699L42.5773 12.233L65.7998 23.3556L65.7454 52.1301L42.4227 69.767L19.2002 58.6424L19.2546 29.8699Z" stroke="url(#paint9_linear_1152_66)" stroke-width="0.4"/>
<path d="M42.5538 12L66 23.2297L65.9452 52.2297L42.4462 70L19 58.7683L19.0548 29.7703L42.5538 12Z" fill="url(#paint10_radial_1152_66)"/>
<g filter="url(#filter7_d_1152_66)">
<g filter="url(#filter8_f_1152_66)">
<path fill-rule="evenodd" clip-rule="evenodd" d="M35.2761 51.9868C40.9516 53.9544 47.6029 49.6343 50.1326 42.3372C52.6624 35.0402 50.1125 27.5302 44.437 25.5626C38.7615 23.595 32.1102 27.9151 29.5805 35.2121C27.0507 42.5092 29.6006 50.0192 35.2761 51.9868ZM38.3297 43.1787C40.2216 43.8346 42.4386 42.3945 43.2819 39.9622C44.1252 37.5298 43.2752 35.0265 41.3834 34.3706C39.4915 33.7148 37.2744 35.1548 36.4312 37.5872C35.5879 40.0195 36.4379 42.5228 38.3297 43.1787Z" fill="url(#paint11_linear_1152_66)" fill-opacity="0.7"/>
<path d="M49.9815 42.2848C47.4676 49.5359 40.8874 53.7628 35.3285 51.8356C29.7697 49.9084 27.2178 42.5156 29.7316 35.2645C32.2455 28.0134 38.8257 23.7866 44.3846 25.7137C49.9434 27.6409 52.4953 35.0337 49.9815 42.2848ZM38.2773 43.3299C40.2858 44.0262 42.5739 42.4929 43.4331 40.0146C44.2923 37.5363 43.4442 34.9158 41.4358 34.2195C39.4273 33.5232 37.1392 35.0565 36.28 37.5347C35.4208 40.013 36.2688 42.6336 38.2773 43.3299Z" stroke="url(#paint12_linear_1152_66)" stroke-width="0.32"/>
</g>
<g filter="url(#filter9_b_1152_66)">
<path fill-rule="evenodd" clip-rule="evenodd" d="M36.2768 52.9868C41.9523 54.9544 48.6036 50.6343 51.1334 43.3372C53.6631 36.0402 51.1132 28.5302 45.4377 26.5626C39.7622 24.595 33.111 28.9151 30.5812 36.2121C28.0514 43.5092 30.6014 51.0192 36.2768 52.9868ZM39.3305 44.1787C41.2223 44.8346 43.4394 43.3945 44.2826 40.9622C45.1259 38.5298 44.2759 36.0265 42.3841 35.3706C40.4923 34.7148 38.2752 36.1548 37.4319 38.5872C36.5887 41.0195 37.4386 43.5228 39.3305 44.1787Z" fill="url(#paint13_radial_1152_66)"/>
</g>
<path d="M54.6035 44.4485C52.1006 51.668 45.5691 55.8307 40.0905 53.9314C34.6119 52.032 32.0586 44.7198 34.5615 37.5003C37.0644 30.2807 43.5958 26.118 49.0745 28.0174C54.5531 29.9167 57.1064 37.229 54.6035 44.4485ZM42.9672 45.6335C45.0559 46.3576 47.3928 44.7602 48.263 42.2503C49.1331 39.7405 48.2864 37.0393 46.1977 36.3152C44.1091 35.5911 41.7722 37.1886 40.902 39.6984C40.0319 42.2083 40.8786 44.9094 42.9672 45.6335Z" fill="url(#paint14_linear_1152_66)" fill-opacity="0.7" stroke="url(#paint15_linear_1152_66)" stroke-width="0.54"/>
<path fill-rule="evenodd" clip-rule="evenodd" d="M40.0021 54.1865C45.6775 56.1541 52.3288 51.834 54.8586 44.5369C57.3884 37.2399 54.8384 29.7299 49.1629 27.7623C43.4874 25.7947 36.8362 30.1148 34.3064 37.4118C31.7766 44.7089 34.3266 52.2189 40.0021 54.1865ZM43.0557 45.3784C44.9475 46.0343 47.1646 44.5943 48.0079 42.1619C48.8511 39.7295 48.0011 37.2262 46.1093 36.5703C44.2175 35.9145 42.0004 37.3545 41.1571 39.7869C40.3139 42.2192 41.1639 44.7225 43.0557 45.3784Z" fill="url(#paint16_radial_1152_66)"/>
</g>
<path d="M13 27L20 30" stroke="white" stroke-width="0.4"/>
<path d="M62.8012 19.7621C69.8857 19.3474 74.6404 20.9704 76.7478 24.793C81.3938 33.2202 68.6633 49.1467 48.3133 60.3659C27.9633 71.5851 7.70009 73.8484 3.05407 65.4212C0.100234 60.0634 4.17022 51.6743 12.7565 43.3908" stroke="url(#paint17_linear_1152_66)" stroke-width="0.4"/>
<path d="M15.8679 72.4047C16.9233 72.4047 17.7788 71.5509 17.7788 70.4978C17.7788 69.4446 16.9233 68.5908 15.8679 68.5908C14.8126 68.5908 13.957 69.4446 13.957 70.4978C13.957 71.5509 14.8126 72.4047 15.8679 72.4047Z" fill="url(#paint18_radial_1152_66)"/>
<defs>
<filter id="filter0_f_1152_66" x="18.5" y="65" width="42" height="19" filterUnits="userSpaceOnUse" color-interpolation-filters="sRGB">
<feFlood flood-opacity="0" result="BackgroundImageFix"/>
<feBlend mode="normal" in="SourceGraphic" in2="BackgroundImageFix" result="shape"/>
<feGaussianBlur stdDeviation="3" result="effect1_foregroundBlur_1152_66"/>
</filter>
<filter id="filter1_b_1152_66" x="57.4" y="18.4" width="9.2" height="35.2" filterUnits="userSpaceOnUse" color-interpolation-filters="sRGB">
<feFlood flood-opacity="0" result="BackgroundImageFix"/>
<feGaussianBlur in="BackgroundImageFix" stdDeviation="0.8"/>
<feComposite in2="SourceAlpha" operator="in" result="effect1_backgroundBlur_1152_66"/>
<feBlend mode="normal" in="SourceGraphic" in2="effect1_backgroundBlur_1152_66" result="shape"/>
</filter>
<filter id="filter2_b_1152_66" x="34.3999" y="47.4" width="32.2" height="24.2" filterUnits="userSpaceOnUse" color-interpolation-filters="sRGB">
<feFlood flood-opacity="0" result="BackgroundImageFix"/>
<feGaussianBlur in="BackgroundImageFix" stdDeviation="0.8"/>
<feComposite in2="SourceAlpha" operator="in" result="effect1_backgroundBlur_1152_66"/>
<feBlend mode="normal" in="SourceGraphic" in2="effect1_backgroundBlur_1152_66" result="shape"/>
</filter>
<filter id="filter3_b_1152_66" x="11.4" y="24.4" width="9.2" height="36.2" filterUnits="userSpaceOnUse" color-interpolation-filters="sRGB">
<feFlood flood-opacity="0" result="BackgroundImageFix"/>
<feGaussianBlur in="BackgroundImageFix" stdDeviation="0.8"/>
<feComposite in2="SourceAlpha" operator="in" result="effect1_backgroundBlur_1152_66"/>
<feBlend mode="normal" in="SourceGraphic" in2="effect1_backgroundBlur_1152_66" result="shape"/>
</filter>
<filter id="filter4_b_1152_66" x="11.4" y="7.4" width="32.2" height="24.2" filterUnits="userSpaceOnUse" color-interpolation-filters="sRGB">
<feFlood flood-opacity="0" result="BackgroundImageFix"/>
<feGaussianBlur in="BackgroundImageFix" stdDeviation="0.8"/>
<feComposite in2="SourceAlpha" operator="in" result="effect1_backgroundBlur_1152_66"/>
<feBlend mode="normal" in="SourceGraphic" in2="effect1_backgroundBlur_1152_66" result="shape"/>
</filter>
<filter id="filter5_i_1152_66" x="13.0001" y="9" width="46" height="58.8" filterUnits="userSpaceOnUse" color-interpolation-filters="sRGB">
<feFlood flood-opacity="0" result="BackgroundImageFix"/>
<feBlend mode="normal" in="SourceGraphic" in2="BackgroundImageFix" result="shape"/>
<feColorMatrix in="SourceAlpha" type="matrix" values="0 0 0 0 0 0 0 0 0 0 0 0 0 0 0 0 0 0 127 0" result="hardAlpha"/>
<feOffset dy="0.8"/>
<feGaussianBlur stdDeviation="8"/>
<feComposite in2="hardAlpha" operator="arithmetic" k2="-1" k3="1"/>
<feColorMatrix type="matrix" values="0 0 0 0 0 0 0 0 0 0.76 0 0 0 0 1 0 0 0 0.25 0"/>
<feBlend mode="normal" in2="shape" result="effect1_innerShadow_1152_66"/>
</filter>
<filter id="filter6_i_1152_66" x="19" y="12" width="47" height="58.8" filterUnits="userSpaceOnUse" color-interpolation-filters="sRGB">
<feFlood flood-opacity="0" result="BackgroundImageFix"/>
<feBlend mode="normal" in="SourceGraphic" in2="BackgroundImageFix" result="shape"/>
<feColorMatrix in="SourceAlpha" type="matrix" values="0 0 0 0 0 0 0 0 0 0 0 0 0 0 0 0 0 0 127 0" result="hardAlpha"/>
<feOffset dy="0.8"/>
<feGaussianBlur stdDeviation="15"/>
<feComposite in2="hardAlpha" operator="arithmetic" k2="-1" k3="1"/>
<feColorMatrix type="matrix" values="0 0 0 0 0 0 0 0 0 0.76 0 0 0 0 1 0 0 0 0.4 0"/>
<feBlend mode="normal" in2="shape" result="effect1_innerShadow_1152_66"/>
</filter>
<filter id="filter7_d_1152_66" x="21.603" y="24.0872" width="35.233" height="37.5746" filterUnits="userSpaceOnUse" color-interpolation-filters="sRGB">
<feFlood flood-opacity="0" result="BackgroundImageFix"/>
<feColorMatrix in="SourceAlpha" type="matrix" values="0 0 0 0 0 0 0 0 0 0 0 0 0 0 0 0 0 0 127 0" result="hardAlpha"/>
<feOffset dx="-3" dy="3"/>
<feGaussianBlur stdDeviation="2"/>
<feComposite in2="hardAlpha" operator="out"/>
<feColorMatrix type="matrix" values="0 0 0 0 0.0784314 0 0 0 0 0.12549 0 0 0 0 0.337255 0 0 0 0.8 0"/>
<feBlend mode="normal" in2="BackgroundImageFix" result="effect1_dropShadow_1152_66"/>
<feBlend mode="normal" in="SourceGraphic" in2="effect1_dropShadow_1152_66" result="shape"/>
</filter>
<filter id="filter8_f_1152_66" x="22.603" y="19.0872" width="34.5071" height="39.3749" filterUnits="userSpaceOnUse" color-interpolation-filters="sRGB">
<feFlood flood-opacity="0" result="BackgroundImageFix"/>
<feBlend mode="normal" in="SourceGraphic" in2="BackgroundImageFix" result="shape"/>
<feGaussianBlur stdDeviation="3" result="effect1_foregroundBlur_1152_66"/>
</filter>
<filter id="filter9_b_1152_66" x="28.4518" y="24.9352" width="24.8111" height="29.6789" filterUnits="userSpaceOnUse" color-interpolation-filters="sRGB">
<feFlood flood-opacity="0" result="BackgroundImageFix"/>
<feGaussianBlur in="BackgroundImageFix" stdDeviation="0.576"/>
<feComposite in2="SourceAlpha" operator="in" result="effect1_backgroundBlur_1152_66"/>
<feBlend mode="normal" in="SourceGraphic" in2="effect1_backgroundBlur_1152_66" result="shape"/>
</filter>
<linearGradient id="paint0_linear_1152_66" x1="46.8957" y1="77.473" x2="45.8513" y2="69.8638" gradientUnits="userSpaceOnUse">
<stop stop-color="#3CEAF1"/>
<stop offset="1" stop-color="#3CF16F"/>
</linearGradient>
<linearGradient id="paint1_linear_1152_66" x1="35.6743" y1="70.234" x2="36.72" y2="73.2373" gradientUnits="userSpaceOnUse">
<stop stop-color="white"/>
<stop offset="1" stop-color="white" stop-opacity="0"/>
</linearGradient>
<linearGradient id="paint2_linear_1152_66" x1="73.5" y1="53" x2="73.5" y2="69.5" gradientUnits="userSpaceOnUse">
<stop stop-color="white"/>
<stop offset="0.362732" stop-color="#3CEAF1" stop-opacity="0.79"/>
<stop offset="1" stop-color="#3CEAF1" stop-opacity="0"/>
</linearGradient>
<radialGradient id="paint3_radial_1152_66" cx="0" cy="0" r="1" gradientUnits="userSpaceOnUse" gradientTransform="translate(76.325 50.4594) rotate(129.806) scale(3.1241 3.123)">
<stop stop-color="#FFFCB3"/>
<stop offset="1" stop-color="#09AB37"/>
</radialGradient>
<linearGradient id="paint4_linear_1152_66" x1="61.961" y1="21.8898" x2="61.961" y2="50.2361" gradientUnits="userSpaceOnUse">
<stop offset="0.333333" stop-color="#0066FF" stop-opacity="0.1"/>
<stop offset="0.85857" stop-color="#00FFFF" stop-opacity="0.4"/>
<stop offset="1" stop-color="#CEFFE5" stop-opacity="0.6"/>
</linearGradient>
<linearGradient id="paint5_linear_1152_66" x1="50.3117" y1="50.2402" x2="50.3117" y2="68.8425" gradientUnits="userSpaceOnUse">
<stop offset="0.333333" stop-color="#0066FF" stop-opacity="0.1"/>
<stop offset="0.85857" stop-color="#00FFFF" stop-opacity="0.4"/>
<stop offset="1" stop-color="#CEFFE5" stop-opacity="0.6"/>
</linearGradient>
<linearGradient id="paint6_linear_1152_66" x1="15.961" y1="27.9488" x2="15.961" y2="57.181" gradientUnits="userSpaceOnUse">
<stop stop-color="#CEFFE5" stop-opacity="0.6"/>
<stop offset="0.47452" stop-color="#00FFFF" stop-opacity="0.27"/>
<stop offset="0.914376" stop-color="#0066FF" stop-opacity="0.1"/>
</linearGradient>
<linearGradient id="paint7_linear_1152_66" x1="27.3117" y1="10.2402" x2="27.3117" y2="28.8425" gradientUnits="userSpaceOnUse">
<stop offset="0.333333" stop-color="#0066FF" stop-opacity="0.1"/>
<stop offset="0.85857" stop-color="#00FFFF" stop-opacity="0.4"/>
<stop offset="1" stop-color="#CEFFE5" stop-opacity="0.6"/>
</linearGradient>
<linearGradient id="paint8_linear_1152_66" x1="13.142" y1="29.4514" x2="58.4034" y2="57.5478" gradientUnits="userSpaceOnUse">
<stop stop-color="white"/>
<stop offset="0.153274" stop-color="#8AA8F5"/>
<stop offset="0.336377" stop-color="white" stop-opacity="0"/>
<stop offset="0.639716" stop-color="white" stop-opacity="0"/>
<stop offset="0.838542" stop-color="#8AA8F5" stop-opacity="0"/>
<stop offset="1" stop-color="white" stop-opacity="0"/>
</linearGradient>
<linearGradient id="paint9_linear_1152_66" x1="19.7789" y1="29.8965" x2="56.8007" y2="63.8488" gradientUnits="userSpaceOnUse">
<stop stop-color="white"/>
<stop offset="0.153274" stop-color="#8AA8F5"/>
<stop offset="0.336377" stop-color="white" stop-opacity="0"/>
<stop offset="0.639716" stop-color="white" stop-opacity="0"/>
<stop offset="0.838542" stop-color="#8AA8F5"/>
<stop offset="1" stop-color="white"/>
</linearGradient>
<radialGradient id="paint10_radial_1152_66" cx="0" cy="0" r="1" gradientUnits="userSpaceOnUse" gradientTransform="translate(56.6866 61.7566) rotate(-123.724) scale(39.2175 30.2664)">
<stop stop-color="white" stop-opacity="0.89"/>
<stop offset="0.16458" stop-color="#3CEAF1" stop-opacity="0.743523"/>
<stop offset="1" stop-color="#3C7DFA" stop-opacity="0"/>
</radialGradient>
<linearGradient id="paint11_linear_1152_66" x1="41.0324" y1="51.7539" x2="33.4062" y2="28.257" gradientUnits="userSpaceOnUse">
<stop stop-color="#3CEAF1"/>
<stop offset="1" stop-color="#3CF16F"/>
</linearGradient>
<linearGradient id="paint12_linear_1152_66" x1="42.8186" y1="21.7623" x2="47.0871" y2="26.2838" gradientUnits="userSpaceOnUse">
<stop stop-color="white"/>
<stop offset="1" stop-color="white" stop-opacity="0"/>
</linearGradient>
<radialGradient id="paint13_radial_1152_66" cx="0" cy="0" r="1" gradientUnits="userSpaceOnUse" gradientTransform="translate(9.96248 -12.7325) rotate(71.0578) scale(66.5586 41.2135)">
<stop offset="0.333333" stop-color="#FFC700" stop-opacity="0.54"/>
<stop offset="0.802083" stop-color="#3CEAF1" stop-opacity="0.58"/>
<stop offset="0.921875" stop-color="#2363C2"/>
<stop offset="1" stop-color="#18D3C4"/>
</radialGradient>
<linearGradient id="paint14_linear_1152_66" x1="45.7584" y1="53.9536" x2="37.6458" y2="33.5654" gradientUnits="userSpaceOnUse">
<stop stop-color="#0051AF"/>
<stop offset="0.782318" stop-color="#42FF77"/>
<stop offset="1" stop-color="#D9FFE3"/>
</linearGradient>
<linearGradient id="paint15_linear_1152_66" x1="47.5445" y1="23.962" x2="51.8131" y2="28.4835" gradientUnits="userSpaceOnUse">
<stop stop-color="white"/>
<stop offset="1" stop-color="white" stop-opacity="0"/>
</linearGradient>
<radialGradient id="paint16_radial_1152_66" cx="0" cy="0" r="1" gradientUnits="userSpaceOnUse" gradientTransform="translate(46.8176 60.8146) rotate(-93.0767) scale(19.2312 15.3759)">
<stop stop-color="#DCA3FF"/>
<stop offset="1" stop-color="#DCA3FF" stop-opacity="0"/>
</radialGradient>
<linearGradient id="paint17_linear_1152_66" x1="53.4499" y1="59.6508" x2="46.4013" y2="35.1521" gradientUnits="userSpaceOnUse">
<stop stop-color="white"/>
<stop offset="0.617643" stop-color="#3CEAF1" stop-opacity="0.79"/>
<stop offset="1" stop-color="#3CEAF1" stop-opacity="0.44"/>
</linearGradient>
<radialGradient id="paint18_radial_1152_66" cx="0" cy="0" r="1" gradientUnits="userSpaceOnUse" gradientTransform="translate(16.782 70.0502) rotate(129.806) scale(3.1241 3.123)">
<stop stop-color="#FFFCB3"/>
<stop offset="1" stop-color="#09AB37"/>
</radialGradient>
</defs>
</svg>
