<svg width="81" height="84" viewBox="0 0 81 84" fill="none" xmlns="http://www.w3.org/2000/svg">
<g filter="url(#filter0_f_710_1310)">
<ellipse cx="44" cy="74.5" rx="15" ry="3.5" fill="url(#paint0_linear_710_1310)" fill-opacity="0.5"/>
<path d="M58.84 74.5C58.84 74.6921 58.7573 74.892 58.575 75.0999C58.3917 75.3088 58.1143 75.518 57.7439 75.7223C57.0034 76.1308 55.9212 76.5038 54.5702 76.8191C51.8709 77.4489 48.1336 77.84 44 77.84C39.8664 77.84 36.1291 77.4489 33.4298 76.8191C32.0788 76.5038 30.9966 76.1308 30.2561 75.7223C29.8857 75.518 29.6083 75.3088 29.425 75.0999C29.2427 74.892 29.16 74.6921 29.16 74.5C29.16 74.3079 29.2427 74.108 29.425 73.9001C29.6083 73.6912 29.8857 73.482 30.2561 73.2777C30.9966 72.8692 32.0788 72.4962 33.4298 72.1809C36.1291 71.5511 39.8664 71.16 44 71.16C48.1336 71.16 51.8709 71.5511 54.5702 72.1809C55.9212 72.4962 57.0034 72.8692 57.7439 73.2777C58.1143 73.482 58.3917 73.6912 58.575 73.9001C58.7573 74.108 58.84 74.3079 58.84 74.5Z" stroke="url(#paint1_linear_710_1310)" stroke-width="0.32"/>
</g>
<g filter="url(#filter1_b_710_1310)">
<path d="M40.438 8.23376C54.4582 6.27211 65.7919 16.8734 65.7499 31.8988C65.7079 46.9242 54.3322 60.6974 40.312 62.6591C26.2918 64.6207 14.9581 54.0195 15.0001 38.9941C15.0421 23.9687 26.4178 10.1954 40.438 8.23376Z" fill="url(#paint2_linear_710_1310)"/>
</g>
<g filter="url(#filter2_i_710_1310)">
<path d="M40.438 8.23376C54.4582 6.27211 65.7919 16.8734 65.7499 31.8988C65.7079 46.9242 54.3322 60.6974 40.312 62.6591C26.2918 64.6207 14.9581 54.0195 15.0001 38.9941C15.0421 23.9687 26.4178 10.1954 40.438 8.23376Z" fill="white" fill-opacity="0.01"/>
</g>
<path d="M40.4601 8.39221C54.3729 6.44559 65.6316 16.9589 65.5899 31.8983C65.5481 46.8517 54.2239 60.551 40.2899 62.5006C26.3771 64.4473 15.1184 53.934 15.1601 38.9945C15.2019 24.0412 26.5261 10.3418 40.4601 8.39221Z" stroke="url(#paint3_linear_710_1310)" stroke-width="0.32"/>
<g filter="url(#filter3_i_710_1310)">
<path d="M46.688 12.3412C60.7082 10.3795 72.0419 20.9808 71.9999 36.0062C71.9579 51.0316 60.5822 64.8049 46.562 66.7665C32.5418 68.7282 21.2081 58.1269 21.2501 43.1015C21.2921 28.0761 32.6678 14.3028 46.688 12.3412Z" fill="#0047FF" fill-opacity="0.2"/>
</g>
<path d="M46.7101 12.4996C60.6229 10.553 71.8816 21.0663 71.8399 36.0057C71.7981 50.9591 60.4739 64.6585 46.5399 66.6081C32.6271 68.5547 21.3684 58.0414 21.4101 43.102C21.4519 28.1486 32.7761 14.4492 46.7101 12.4996Z" stroke="url(#paint4_linear_710_1310)" stroke-width="0.32"/>
<path d="M46.688 12.3412C60.7082 10.3795 72.0419 20.9808 71.9999 36.0062C71.9579 51.0316 60.5822 64.8049 46.562 66.7665C32.5418 68.7282 21.2081 58.1269 21.2501 43.1015C21.2921 28.0761 32.6678 14.3028 46.688 12.3412Z" fill="url(#paint5_radial_710_1310)"/>
<g filter="url(#filter4_f_710_1310)">
<path d="M40.7608 19C47.2348 25.3984 50.4675 30.5461 50.4603 34.4448C50.4489 40.2884 46.084 45.6415 40.7095 46.3973C35.3364 47.1531 30.9886 43.0249 31 37.1798C31.0072 33.2797 34.2612 27.2193 40.7608 19Z" fill="url(#paint6_linear_710_1310)" fill-opacity="0.7"/>
<path d="M31.16 37.1801L31.16 37.1801C31.1635 35.2695 31.9641 32.8074 33.5867 29.7853C35.189 26.8011 37.5843 23.2862 40.7755 19.2397C43.9439 22.3838 46.319 25.2187 47.9055 27.7449C49.5142 30.3065 50.3038 32.5378 50.3003 34.4445C50.2891 40.2178 45.974 45.4954 40.6872 46.2389L40.7095 46.3973L40.6872 46.2389C35.4241 46.9792 31.1488 42.9421 31.16 37.1801Z" stroke="url(#paint7_linear_710_1310)" stroke-width="0.32"/>
</g>
<g filter="url(#filter5_d_710_1310)">
<path d="M40.3664 43.2331L40.3664 43.2331C40.3699 41.3569 41.1576 38.9194 42.7765 35.9043C44.3572 32.9603 46.7148 29.4935 49.8546 25.5025C52.963 28.5981 55.2931 31.3877 56.8533 33.8721C58.4552 36.4228 59.2302 38.6276 59.2267 40.4969C59.2156 46.2087 54.9442 51.4203 49.7341 52.153L49.7759 52.45L49.7341 52.153C44.5673 52.8797 40.3553 48.9223 40.3664 43.2331ZM49.2859 35.2831C49.9331 35.2831 50.3777 34.6831 50.3777 34.0502C50.3777 33.4173 49.9331 32.8172 49.2859 32.8172C48.6387 32.8172 48.1941 33.4173 48.1941 34.0502C48.1941 34.6831 48.6387 35.2831 49.2859 35.2831ZM53.8587 46.0212C54.4811 46.0212 55.0217 45.6842 55.3965 45.1845C55.7711 44.685 55.994 44.0086 55.994 43.2742C55.994 42.5398 55.7711 41.8634 55.3965 41.3639C55.0217 40.8642 54.4811 40.5271 53.8587 40.5271C53.2363 40.5271 52.6957 40.8642 52.321 41.3639C51.9463 41.8634 51.7234 42.5398 51.7234 43.2742C51.7234 44.0086 51.9463 44.685 52.321 45.1845C52.6957 45.6842 53.2363 46.0212 53.8587 46.0212ZM47.7415 46.7859C48.3639 46.7859 48.9045 46.4488 49.2793 45.9492C49.654 45.4496 49.8768 44.7732 49.8768 44.0388C49.8768 43.3045 49.654 42.6281 49.2793 42.1285C48.9045 41.6289 48.3639 41.2918 47.7415 41.2918C47.1191 41.2918 46.5785 41.6289 46.2038 42.1285C45.8291 42.6281 45.6062 43.3045 45.6062 44.0388C45.6062 44.7732 45.8291 45.4496 46.2038 45.9492C46.5785 46.4488 47.1191 46.7859 47.7415 46.7859ZM52.8196 39.1904C53.603 39.1904 54.1579 38.4603 54.1579 37.6669C54.1579 36.8735 53.603 36.1434 52.8196 36.1434C52.0362 36.1434 51.4812 36.8735 51.4812 37.6669C51.4812 38.4603 52.0362 39.1904 52.8196 39.1904Z" fill="url(#paint8_linear_710_1310)" fill-opacity="0.7" stroke="url(#paint9_linear_710_1310)" stroke-width="0.6"/>
<path fill-rule="evenodd" clip-rule="evenodd" d="M59.5267 40.4975C59.5339 36.5989 56.3012 31.4511 49.8272 25.0527C43.3276 33.2721 40.0736 39.3325 40.0664 43.2325C40.055 49.0776 44.4028 53.2058 49.7759 52.45C55.1504 51.6943 59.5153 46.3412 59.5267 40.4975ZM50.0777 34.0502C50.0777 34.5654 49.7232 34.9831 49.2859 34.9831C48.8486 34.9831 48.4941 34.5654 48.4941 34.0502C48.4941 33.5349 48.8486 33.1172 49.2859 33.1172C49.7232 33.1172 50.0777 33.5349 50.0777 34.0502ZM53.8587 45.7212C54.8723 45.7212 55.694 44.6257 55.694 43.2742C55.694 41.9227 54.8723 40.8271 53.8587 40.8271C52.8451 40.8271 52.0234 41.9227 52.0234 43.2742C52.0234 44.6257 52.8451 45.7212 53.8587 45.7212ZM47.7415 46.4859C48.7551 46.4859 49.5768 45.3903 49.5768 44.0388C49.5768 42.6874 48.7551 41.5918 47.7415 41.5918C46.7279 41.5918 45.9062 42.6874 45.9062 44.0388C45.9062 45.3903 46.7279 46.4859 47.7415 46.4859ZM52.8196 38.8904C53.393 38.8904 53.8579 38.3426 53.8579 37.6669C53.8579 36.9911 53.393 36.4434 52.8196 36.4434C52.2461 36.4434 51.7812 36.9911 51.7812 37.6669C51.7812 38.3426 52.2461 38.8904 52.8196 38.8904Z" fill="url(#paint10_radial_710_1310)"/>
<g filter="url(#filter6_b_710_1310)">
<path d="M46.1752 29.9791C47.2592 28.4334 48.4894 26.7904 49.8646 25.0526L46.6143 23.2842C45.2398 25.0225 44.0108 26.6649 42.9256 28.2107C41.457 30.3054 40.2531 32.2219 39.3177 33.9615C38.9714 34.6033 38.6628 35.2206 38.3899 35.814C38.1189 36.4037 37.8836 36.9696 37.6848 37.5116C37.1333 39.0122 36.8548 40.3302 36.8535 41.4651C36.8466 45.2423 38.6615 48.3025 41.3967 49.7911L44.6463 51.5596C41.9118 50.0722 40.0963 47.0108 40.1032 43.2336C40.105 42.509 40.2186 41.7091 40.4444 40.8346C40.5724 40.3403 40.7355 39.8221 40.9344 39.2795C41.1696 38.6396 41.4544 37.9671 41.7888 37.2613C42.0234 36.7676 42.2825 36.2576 42.5673 35.73C43.1445 34.6585 43.822 33.5205 44.6005 32.3147C45.0867 31.5625 45.6118 30.784 46.1752 29.9791Z" fill="url(#paint11_radial_710_1310)"/>
</g>
</g>
<path d="M14 62V70.5" stroke="url(#paint12_linear_710_1310)" stroke-width="0.4"/>
<path d="M14 62C14.5523 62 15 61.5523 15 61C15 60.4477 14.5523 60 14 60C13.4477 60 13 60.4477 13 61C13 61.5523 13.4477 62 14 62Z" fill="url(#paint13_radial_710_1310)"/>
<path d="M65.8002 19.3618C72.8847 18.947 77.6394 20.57 79.7468 24.3926C84.3928 32.8198 71.6623 48.7463 51.3123 59.9655C30.9624 71.1847 10.6991 73.448 6.05309 65.0208C3.09926 59.663 7.16924 51.2739 15.7556 42.9904" stroke="url(#paint14_linear_710_1310)" stroke-width="0.4"/>
<path d="M18.867 72.0043C19.9223 72.0043 20.7778 71.1505 20.7778 70.0974C20.7778 69.0442 19.9223 68.1904 18.867 68.1904C17.8116 68.1904 16.9561 69.0442 16.9561 70.0974C16.9561 71.1505 17.8116 72.0043 18.867 72.0043Z" fill="url(#paint15_radial_710_1310)"/>
<path d="M77.9004 52V70" stroke="url(#paint16_linear_710_1310)" stroke-width="0.4"/>
<path d="M77.8113 52.8139C78.8666 52.8139 79.7222 51.9601 79.7222 50.9069C79.7222 49.8538 78.8666 49 77.8113 49C76.7559 49 75.9004 49.8538 75.9004 50.9069C75.9004 51.9601 76.7559 52.8139 77.8113 52.8139Z" fill="url(#paint17_radial_710_1310)"/>
<defs>
<filter id="filter0_f_710_1310" x="23" y="65" width="42" height="19" filterUnits="userSpaceOnUse" color-interpolation-filters="sRGB">
<feFlood flood-opacity="0" result="BackgroundImageFix"/>
<feBlend mode="normal" in="SourceGraphic" in2="BackgroundImageFix" result="shape"/>
<feGaussianBlur stdDeviation="3" result="effect1_foregroundBlur_710_1310"/>
</filter>
<filter id="filter1_b_710_1310" x="13.72" y="6.72" width="53.31" height="57.4528" filterUnits="userSpaceOnUse" color-interpolation-filters="sRGB">
<feFlood flood-opacity="0" result="BackgroundImageFix"/>
<feGaussianBlur in="BackgroundImageFix" stdDeviation="0.64"/>
<feComposite in2="SourceAlpha" operator="in" result="effect1_backgroundBlur_710_1310"/>
<feBlend mode="normal" in="SourceGraphic" in2="effect1_backgroundBlur_710_1310" result="shape"/>
</filter>
<filter id="filter2_i_710_1310" x="15" y="8" width="50.75" height="55.5328" filterUnits="userSpaceOnUse" color-interpolation-filters="sRGB">
<feFlood flood-opacity="0" result="BackgroundImageFix"/>
<feBlend mode="normal" in="SourceGraphic" in2="BackgroundImageFix" result="shape"/>
<feColorMatrix in="SourceAlpha" type="matrix" values="0 0 0 0 0 0 0 0 0 0 0 0 0 0 0 0 0 0 127 0" result="hardAlpha"/>
<feOffset dy="0.64"/>
<feGaussianBlur stdDeviation="6.4"/>
<feComposite in2="hardAlpha" operator="arithmetic" k2="-1" k3="1"/>
<feColorMatrix type="matrix" values="0 0 0 0 0 0 0 0 0 0.76 0 0 0 0 1 0 0 0 0.25 0"/>
<feBlend mode="normal" in2="shape" result="effect1_innerShadow_710_1310"/>
</filter>
<filter id="filter3_i_710_1310" x="21.25" y="12.1074" width="50.75" height="55.5328" filterUnits="userSpaceOnUse" color-interpolation-filters="sRGB">
<feFlood flood-opacity="0" result="BackgroundImageFix"/>
<feBlend mode="normal" in="SourceGraphic" in2="BackgroundImageFix" result="shape"/>
<feColorMatrix in="SourceAlpha" type="matrix" values="0 0 0 0 0 0 0 0 0 0 0 0 0 0 0 0 0 0 127 0" result="hardAlpha"/>
<feOffset dy="0.64"/>
<feGaussianBlur stdDeviation="12"/>
<feComposite in2="hardAlpha" operator="arithmetic" k2="-1" k3="1"/>
<feColorMatrix type="matrix" values="0 0 0 0 0 0 0 0 0 0.76 0 0 0 0 1 0 0 0 0.4 0"/>
<feBlend mode="normal" in2="shape" result="effect1_innerShadow_710_1310"/>
</filter>
<filter id="filter4_f_710_1310" x="25" y="13" width="31.4603" height="39.4866" filterUnits="userSpaceOnUse" color-interpolation-filters="sRGB">
<feFlood flood-opacity="0" result="BackgroundImageFix"/>
<feBlend mode="normal" in="SourceGraphic" in2="BackgroundImageFix" result="shape"/>
<feGaussianBlur stdDeviation="3" result="effect1_foregroundBlur_710_1310"/>
</filter>
<filter id="filter5_d_710_1310" x="29.8535" y="22.2842" width="30.6732" height="37.2551" filterUnits="userSpaceOnUse" color-interpolation-filters="sRGB">
<feFlood flood-opacity="0" result="BackgroundImageFix"/>
<feColorMatrix in="SourceAlpha" type="matrix" values="0 0 0 0 0 0 0 0 0 0 0 0 0 0 0 0 0 0 127 0" result="hardAlpha"/>
<feOffset dx="-3" dy="3"/>
<feGaussianBlur stdDeviation="2"/>
<feComposite in2="hardAlpha" operator="out"/>
<feColorMatrix type="matrix" values="0 0 0 0 0.0784314 0 0 0 0 0.12549 0 0 0 0 0.337255 0 0 0 0.8 0"/>
<feBlend mode="normal" in2="BackgroundImageFix" result="effect1_dropShadow_710_1310"/>
<feBlend mode="normal" in="SourceGraphic" in2="effect1_dropShadow_710_1310" result="shape"/>
</filter>
<filter id="filter6_b_710_1310" x="35.5735" y="22.0042" width="15.571" height="30.8355" filterUnits="userSpaceOnUse" color-interpolation-filters="sRGB">
<feFlood flood-opacity="0" result="BackgroundImageFix"/>
<feGaussianBlur in="BackgroundImageFix" stdDeviation="0.64"/>
<feComposite in2="SourceAlpha" operator="in" result="effect1_backgroundBlur_710_1310"/>
<feBlend mode="normal" in="SourceGraphic" in2="effect1_backgroundBlur_710_1310" result="shape"/>
</filter>
<linearGradient id="paint0_linear_710_1310" x1="51.3957" y1="77.473" x2="50.3513" y2="69.8638" gradientUnits="userSpaceOnUse">
<stop stop-color="#3CEAF1"/>
<stop offset="1" stop-color="#3CF16F"/>
</linearGradient>
<linearGradient id="paint1_linear_710_1310" x1="40.1743" y1="70.234" x2="41.22" y2="73.2373" gradientUnits="userSpaceOnUse">
<stop stop-color="white"/>
<stop offset="1" stop-color="white" stop-opacity="0"/>
</linearGradient>
<linearGradient id="paint2_linear_710_1310" x1="24.5" y1="15.5" x2="40.0455" y2="30" gradientUnits="userSpaceOnUse">
<stop stop-color="#CEFFE5" stop-opacity="0.6"/>
<stop offset="0.47452" stop-color="#00FFFF" stop-opacity="0.27"/>
<stop offset="0.914376" stop-color="#0066FF" stop-opacity="0.1"/>
</linearGradient>
<linearGradient id="paint3_linear_710_1310" x1="15.1567" y1="27.3558" x2="60.5594" y2="60.2104" gradientUnits="userSpaceOnUse">
<stop stop-color="white"/>
<stop offset="0.153274" stop-color="#8AA8F5"/>
<stop offset="0.336377" stop-color="white" stop-opacity="0"/>
<stop offset="0.639716" stop-color="white" stop-opacity="0"/>
<stop offset="0.838542" stop-color="#8AA8F5" stop-opacity="0"/>
<stop offset="1" stop-color="white" stop-opacity="0"/>
</linearGradient>
<linearGradient id="paint4_linear_710_1310" x1="22.091" y1="29.0452" x2="57.2248" y2="65.8062" gradientUnits="userSpaceOnUse">
<stop stop-color="white"/>
<stop offset="0.153274" stop-color="#8AA8F5"/>
<stop offset="0.336377" stop-color="white" stop-opacity="0"/>
<stop offset="0.639716" stop-color="white" stop-opacity="0"/>
<stop offset="0.838542" stop-color="#8AA8F5"/>
<stop offset="1" stop-color="white"/>
</linearGradient>
<radialGradient id="paint5_radial_710_1310" cx="0" cy="0" r="1" gradientUnits="userSpaceOnUse" gradientTransform="translate(63.1403 59.9625) rotate(-128.256) scale(48.5867 48.9096)">
<stop stop-color="white" stop-opacity="0.89"/>
<stop offset="0.16458" stop-color="#3CEAF1" stop-opacity="0.743523"/>
<stop offset="1" stop-color="#3C7DFA" stop-opacity="0"/>
</radialGradient>
<linearGradient id="paint6_linear_710_1310" x1="45.5276" y1="44.4172" x2="30.5643" y2="26.4086" gradientUnits="userSpaceOnUse">
<stop stop-color="#3CEAF1"/>
<stop offset="1" stop-color="#3CF16F"/>
</linearGradient>
<linearGradient id="paint7_linear_710_1310" x1="38.2485" y1="15.9921" x2="43.3691" y2="18.4214" gradientUnits="userSpaceOnUse">
<stop stop-color="white"/>
<stop offset="1" stop-color="white" stop-opacity="0"/>
</linearGradient>
<linearGradient id="paint8_linear_710_1310" x1="54.594" y1="50.4699" x2="40.3652" y2="35.4745" gradientUnits="userSpaceOnUse">
<stop stop-color="#0051AF"/>
<stop offset="0.782318" stop-color="#42FF77"/>
<stop offset="1" stop-color="#D9FFE3"/>
</linearGradient>
<linearGradient id="paint9_linear_710_1310" x1="47.3149" y1="22.0448" x2="52.4355" y2="24.4741" gradientUnits="userSpaceOnUse">
<stop stop-color="white"/>
<stop offset="1" stop-color="white" stop-opacity="0"/>
</linearGradient>
<radialGradient id="paint10_radial_710_1310" cx="0" cy="0" r="1" gradientUnits="userSpaceOnUse" gradientTransform="translate(57.5 56.5) rotate(-110.376) scale(18.6682 13.9273)">
<stop stop-color="#DCA3FF"/>
<stop offset="1" stop-color="#DCA3FF" stop-opacity="0"/>
</radialGradient>
<radialGradient id="paint11_radial_710_1310" cx="0" cy="0" r="1" gradientUnits="userSpaceOnUse" gradientTransform="translate(46.9217 -18.7841) rotate(96.6085) scale(71.5786 36.1121)">
<stop offset="0.333333" stop-color="#FFC700" stop-opacity="0.54"/>
<stop offset="0.802083" stop-color="#3CEAF1" stop-opacity="0.58"/>
<stop offset="0.921875" stop-color="#2363C2"/>
<stop offset="1" stop-color="#18D3C4"/>
</radialGradient>
<linearGradient id="paint12_linear_710_1310" x1="12" y1="61" x2="12" y2="70.5" gradientUnits="userSpaceOnUse">
<stop stop-color="white"/>
<stop offset="0.362732" stop-color="#3CEAF1" stop-opacity="0.79"/>
<stop offset="1" stop-color="#3CEAF1" stop-opacity="0"/>
</linearGradient>
<radialGradient id="paint13_radial_710_1310" cx="0" cy="0" r="1" gradientUnits="userSpaceOnUse" gradientTransform="translate(14.4784 60.7653) rotate(129.747) scale(1.63689 1.6357)">
<stop stop-color="#FFFCB3"/>
<stop offset="1" stop-color="#09AB37"/>
</radialGradient>
<linearGradient id="paint14_linear_710_1310" x1="56.4489" y1="59.2505" x2="49.4003" y2="34.7517" gradientUnits="userSpaceOnUse">
<stop stop-color="white"/>
<stop offset="0.617643" stop-color="#3CEAF1" stop-opacity="0.79"/>
<stop offset="1" stop-color="#3CEAF1" stop-opacity="0.44"/>
</linearGradient>
<radialGradient id="paint15_radial_710_1310" cx="0" cy="0" r="1" gradientUnits="userSpaceOnUse" gradientTransform="translate(19.7811 69.6498) rotate(129.806) scale(3.1241 3.123)">
<stop stop-color="#FFFCB3"/>
<stop offset="1" stop-color="#09AB37"/>
</radialGradient>
<linearGradient id="paint16_linear_710_1310" x1="75.9004" y1="53" x2="75.9004" y2="69.5" gradientUnits="userSpaceOnUse">
<stop stop-color="white"/>
<stop offset="0.362732" stop-color="#3CEAF1" stop-opacity="0.79"/>
<stop offset="1" stop-color="#3CEAF1" stop-opacity="0"/>
</linearGradient>
<radialGradient id="paint17_radial_710_1310" cx="0" cy="0" r="1" gradientUnits="userSpaceOnUse" gradientTransform="translate(78.7254 50.4594) rotate(129.806) scale(3.1241 3.123)">
<stop stop-color="#FFFCB3"/>
<stop offset="1" stop-color="#09AB37"/>
</radialGradient>
</defs>
</svg>
