<svg width="80" height="84" viewBox="0 0 80 84" fill="none" xmlns="http://www.w3.org/2000/svg">
<path d="M42.3802 15.0544L37.2655 12.2715C37.6639 12.4881 38.1441 12.7394 38.6985 13.0121L43.8143 15.795C43.2599 15.5223 42.7797 15.271 42.3802 15.0544Z" fill="#3C3C3C"/>
<g filter="url(#filter0_f_710_1559)">
<ellipse cx="39.5" cy="74.5" rx="15" ry="3.5" fill="url(#paint0_linear_710_1559)" fill-opacity="0.5"/>
<path d="M54.34 74.5C54.34 74.6921 54.2573 74.892 54.075 75.0999C53.8917 75.3088 53.6143 75.518 53.2439 75.7223C52.5034 76.1308 51.4212 76.5038 50.0702 76.8191C47.3709 77.4489 43.6336 77.84 39.5 77.84C35.3664 77.84 31.6291 77.4489 28.9298 76.8191C27.5788 76.5038 26.4966 76.1308 25.7561 75.7223C25.3857 75.518 25.1083 75.3088 24.925 75.0999C24.7427 74.892 24.66 74.6921 24.66 74.5C24.66 74.3079 24.7427 74.108 24.925 73.9001C25.1083 73.6912 25.3857 73.482 25.7561 73.2777C26.4966 72.8692 27.5788 72.4962 28.9298 72.1809C31.6291 71.5511 35.3664 71.16 39.5 71.16C43.6336 71.16 47.3709 71.5511 50.0702 72.1809C51.4212 72.4962 52.5034 72.8692 53.2439 73.2777C53.6143 73.482 53.8917 73.6912 54.075 73.9001C54.2573 74.108 54.34 74.3079 54.34 74.5Z" stroke="url(#paint1_linear_710_1559)" stroke-width="0.32"/>
</g>
<path d="M75.5 52V70" stroke="url(#paint2_linear_710_1559)" stroke-width="0.4"/>
<path d="M75.4109 52.8139C76.4663 52.8139 77.3218 51.9601 77.3218 50.9069C77.3218 49.8538 76.4663 49 75.4109 49C74.3555 49 73.5 49.8538 73.5 50.9069C73.5 51.9601 74.3555 52.8139 75.4109 52.8139Z" fill="url(#paint3_radial_710_1559)"/>
<g filter="url(#filter1_b_710_1559)">
<path d="M64.9497 52L59 48.8985L59.0504 20L65 23.1035L64.9497 52Z" fill="url(#paint4_linear_710_1559)"/>
</g>
<g filter="url(#filter2_b_710_1559)">
<path d="M42.267 70L35.9999 66.525L58.5385 49L64.9999 52.3249L42.267 70Z" fill="url(#paint5_linear_710_1559)"/>
</g>
<g filter="url(#filter3_b_710_1559)">
<path d="M18.9497 59L13 55.4537L13.0503 26L19 29.5483L18.9497 59Z" fill="url(#paint6_linear_710_1559)"/>
</g>
<g filter="url(#filter4_b_710_1559)">
<path d="M19.267 30L13 26.525L35.5385 9L42 12.3249L19.267 30Z" fill="url(#paint7_linear_710_1559)"/>
</g>
<g filter="url(#filter5_i_710_1559)">
<path d="M36.0528 9.00002L59.0002 20.2297L58.9465 49.2297L35.9475 67L13.0002 55.7683L13.0538 26.7703L36.0528 9.00002Z" fill="white" fill-opacity="0.01"/>
</g>
<path d="M13.2536 26.8687L36.0767 9.23435L58.7999 20.3544L58.7467 49.1314L35.9237 66.7657L13.2004 55.6436L13.2536 26.8687Z" stroke="url(#paint8_linear_710_1559)" stroke-width="0.4"/>
<g filter="url(#filter6_i_710_1559)">
<path d="M42.5538 12L66 23.2297L65.9452 52.2297L42.4462 70L19 58.7683L19.0548 29.7703L42.5538 12Z" fill="white" fill-opacity="0.01"/>
</g>
<path d="M19.2546 29.8699L42.5773 12.233L65.7998 23.3556L65.7454 52.1301L42.4227 69.767L19.2002 58.6424L19.2546 29.8699Z" stroke="url(#paint9_linear_710_1559)" stroke-width="0.4"/>
<path d="M42.5538 12L66 23.2297L65.9452 52.2297L42.4462 70L19 58.7683L19.0548 29.7703L42.5538 12Z" fill="url(#paint10_radial_710_1559)"/>
<path d="M13 27L20 30" stroke="white" stroke-width="0.4"/>
<g filter="url(#filter7_f_710_1559)">
<path d="M50.4168 33.427C51.1099 33.3281 51.6685 33.8656 51.6667 34.6271L51.6464 46.1094C51.6464 46.6227 51.2667 47.093 50.8002 47.1583L48.9604 47.4196C48.6156 47.4682 48.3336 47.2143 48.3096 46.8392C47.9851 41.8222 44.0971 38.5765 39.3389 39.254C34.5825 39.9315 30.6797 44.284 30.3368 49.3962C30.311 49.7788 30.0271 50.1129 29.6805 50.1614L27.8407 50.4227C27.3761 50.488 26.9982 50.1259 27 49.6127L27.0203 38.1304C27.0203 37.3689 27.5826 36.6727 28.2739 36.5738L30.2668 36.2901L30.2723 33.7014L27.5899 34.0821C27.2821 34.125 27.035 33.888 27.035 33.5539L27.0387 32.0309C27.0387 31.695 27.2894 31.3889 27.5955 31.3459L51.1173 28.005C51.4252 27.9621 51.6722 28.1991 51.6722 28.5332L51.6685 30.0562C51.6685 30.3903 51.4178 30.6983 51.1118 30.7412L48.1013 31.1686L48.0957 33.7574L50.4149 33.427H50.4168ZM44.2354 34.3061L44.2409 31.7174L41.1179 32.1616L41.1124 34.7503L44.2354 34.3061ZM37.2501 35.299L37.2557 32.7103L34.1345 33.1545L34.129 35.7432L37.2501 35.299Z" fill="url(#paint11_linear_710_1559)" fill-opacity="0.7"/>
<path d="M50.4263 33.587L48.1183 33.9158L47.9353 33.9418L47.9357 33.757L47.9413 31.1683L47.9416 31.0297L48.0788 31.0102L51.0893 30.5828L51.0896 30.5828C51.3075 30.5522 51.5085 30.32 51.5085 30.0562V30.0558L51.5122 28.5332C51.5122 28.5331 51.5122 28.533 51.5122 28.5329C51.5121 28.281 51.3366 28.1361 51.1396 28.1635C51.1396 28.1635 51.1395 28.1635 51.1394 28.1635L27.618 31.5043L27.6177 31.5044C27.3995 31.535 27.1987 31.7655 27.1987 32.0309V32.0313L27.195 33.5539C27.195 33.554 27.195 33.554 27.195 33.5541C27.1951 33.806 27.3706 33.951 27.5676 33.9237C27.5677 33.9237 27.5678 33.9237 27.5678 33.9237L30.2498 33.543L30.4327 33.517L30.4323 33.7017L30.4268 36.2904L30.4265 36.429L30.2893 36.4485L28.2966 36.7322L50.4263 33.587ZM50.4263 33.587H50.4281L50.4394 33.5854C51.0203 33.5025 51.5084 33.9462 51.5067 34.6267V34.6268L51.4864 46.1091V46.1094C51.4864 46.5535 51.1553 46.947 50.778 46.9999L50.7777 46.9999L48.9381 47.2612L50.4263 33.587ZM29.6805 50.1614C30.0271 50.1129 30.311 49.7788 30.3368 49.3962C30.6797 44.284 34.5825 39.9315 39.3389 39.254L29.6805 50.1614ZM29.6805 50.1614L27.8407 50.4227L29.6805 50.1614ZM27.16 49.613L27.16 49.6133C27.1585 50.0451 27.4655 50.3138 27.8182 50.2643L27.16 49.613ZM27.16 49.613L27.1803 38.1307V38.1304M27.16 49.613L27.1803 38.1304M27.1803 38.1304C27.1803 37.4382 27.6938 36.8185 28.2964 36.7322L27.1803 38.1304ZM44.2579 34.4645L44.3951 34.445L44.3954 34.3064L44.4009 31.7177L44.4013 31.5329L44.2184 31.5589L41.0954 32.0032L40.9582 32.0227L40.9579 32.1612L40.9524 34.75L40.952 34.9347L41.1349 34.9087L44.2579 34.4645ZM37.2727 35.4574L37.4098 35.4379L37.4101 35.2994L37.4157 32.7106L37.4161 32.5259L37.2331 32.5519L34.112 32.9961L33.9748 33.0156L33.9745 33.1542L33.969 35.7429L33.9686 35.9277L34.1516 35.9016L37.2727 35.4574Z" stroke="url(#paint12_linear_710_1559)" stroke-width="0.32"/>
</g>
<g filter="url(#filter8_d_710_1559)">
<path fill-rule="evenodd" clip-rule="evenodd" d="M59.4445 32.796L59.4445 32.796H59.4434L58.7602 32.8932L59.4445 32.796ZM59.7116 32.8332L59.7029 32.8284C59.7154 32.8338 59.7276 32.8398 59.7395 32.8463L55.538 30.532V30.5338C55.5327 30.5309 55.5273 30.528 55.5219 30.5253L55.5211 30.5248C55.4938 30.5101 55.4648 30.499 55.4339 30.4915L55.4329 30.491C55.3953 30.4815 55.3555 30.4765 55.3139 30.4766C55.2902 30.4765 55.2662 30.4782 55.2417 30.4815L55.2416 30.4814L31.721 33.8278L31.7198 33.8271C31.6627 33.8346 31.6092 33.8514 31.5576 33.8757L31.5595 33.8767C31.528 33.8916 31.4977 33.9092 31.4688 33.9293L31.4677 33.9287C31.4595 33.9349 31.4513 33.9414 31.4432 33.9481C31.4297 33.9584 31.4165 33.9694 31.4038 33.9808L31.4014 33.9828L31.4014 33.9828L31.4015 33.9829C31.356 34.024 31.3155 34.0717 31.2814 34.1242C31.2693 34.1423 31.2576 34.1607 31.248 34.1801L31.2484 34.1803C31.2324 34.2104 31.2184 34.2418 31.2067 34.2741L31.2055 34.2734C31.1778 34.35 31.1631 34.4302 31.1631 34.5123L31.164 34.5128L31.1621 36.0371L31.1621 36.0375L31.1621 36.0376C31.1623 36.252 31.2655 36.4273 31.4202 36.5131L34.3935 38.1509L34.3926 38.7716L32.4025 39.0546L32.3991 39.0527C31.7078 39.1517 31.1455 39.8478 31.1455 40.6093V40.6104L35.347 42.9237L35.347 42.9238L31.1453 40.6104L31.125 52.0923L31.124 52.0918C31.124 52.424 31.2807 52.6928 31.5185 52.8234L35.7183 55.1369C35.4815 55.0059 35.3256 54.7378 35.3255 54.4065L35.3264 54.407L35.3348 50.0496L35.3272 54.4037C35.3253 54.917 35.7032 55.2791 36.1678 55.2137L38.0077 54.9524C38.3543 54.9039 38.6382 54.5698 38.664 54.1872C39.0069 49.075 42.9097 44.7225 47.666 44.045C48.5928 43.9131 49.4866 43.9299 50.3274 44.0797C51.5285 45.404 52.2981 47.204 52.4347 49.3187C52.4513 49.5557 52.5693 49.7424 52.7408 49.8376L56.9333 52.147C56.7649 52.0521 56.6507 51.866 56.6362 51.6331C56.4371 48.5497 54.894 46.1383 52.6302 44.8915L52.4797 44.8086C54.8254 46.0298 56.4331 48.4811 56.6367 51.6302C56.6607 52.0053 56.9428 52.2592 57.2875 52.2106L59.1274 51.9493C59.5938 51.884 59.9736 51.4137 59.9736 50.9004L59.9939 39.4181C59.9951 38.9016 59.7385 38.4881 59.357 38.3064L59.3332 38.2933C59.3464 38.2992 59.3594 38.3054 59.3723 38.312L56.4269 36.6894L56.4284 35.9596L59.4389 35.5322C59.745 35.4893 59.9957 35.1813 59.9957 34.8472L59.9994 33.3242C59.9994 33.0955 59.8835 32.9122 59.7116 32.8332ZM56.4229 38.5464L56.4229 38.5484L56.4258 38.548L56.4229 38.5464ZM35.3474 42.924L35.347 42.9237H35.3474L35.3474 42.924ZM35.3474 42.923L35.3474 42.9214C35.3474 42.8783 35.3492 42.8354 35.3528 42.7928C35.3491 42.8358 35.3471 42.8792 35.347 42.9227L35.3474 42.923ZM38.5994 38.4979L38.5995 38.4924L38.5915 38.4935L38.5994 38.4979ZM59.4445 32.796L59.4447 32.7957L59.4445 32.796ZM59.4447 32.7957C59.5122 32.7868 59.576 32.7906 59.6344 32.8054L59.4447 32.7957ZM59.6344 32.8054L59.6321 32.8041L59.6344 32.8054ZM59.6321 32.8041L59.6342 32.8046L59.6321 32.8041ZM59.6342 32.8046L59.6359 32.8056L59.6342 32.8046ZM59.6359 32.8056H59.6341H59.6359ZM59.6341 32.8056L59.6366 32.8063L59.6341 32.8056ZM52.5663 36.5086L52.568 36.5095L52.568 36.5084L52.5663 36.5086ZM45.5807 37.5016L45.5828 37.5028L45.5828 37.5013L45.5807 37.5016ZM35.3328 35.8173L35.9152 36.138L35.915 36.1381L35.3328 35.8173ZM34.3939 37.8174L32.1955 36.6064L34.3939 37.8164L34.3939 37.8174Z" fill="#DCA3FF"/>
</g>
<mask id="mask0_710_1559" style="mask-type:luminance" maskUnits="userSpaceOnUse" x="54" y="35" width="6" height="4">
<path d="M55.2075 36.0212L59.409 38.3356C59.2154 38.2292 58.9886 38.1844 58.7434 38.2199L54.542 35.9055C54.7872 35.8701 55.0158 35.9148 55.2075 36.0212Z" fill="white"/>
</mask>
<g mask="url(#mask0_710_1559)">
<path d="M58.7434 38.2171L54.542 35.9027C54.6932 35.8803 54.8388 35.8897 54.9734 35.9251L59.1748 38.2395C59.0403 38.204 58.8946 38.1966 58.7434 38.2171Z" fill="#6DBD83"/>
<path d="M59.1741 38.2392L54.9727 35.9248C55.0409 35.9435 55.1072 35.9677 55.1699 35.9976L59.3714 38.312C59.3087 38.2802 59.2423 38.256 59.1741 38.2392Z" fill="#6DBD83"/>
</g>
<g filter="url(#filter9_b_710_1559)">
<path d="M56.425 38.5471L52.2217 36.2327L54.5427 35.9023L58.7442 38.2167L56.425 38.5471Z" fill="url(#paint13_radial_710_1559)"/>
</g>
<mask id="mask1_710_1559" style="mask-type:luminance" maskUnits="userSpaceOnUse" x="55" y="30" width="5" height="3">
<path d="M55.5383 30.532L59.7397 32.8463C59.6549 32.7997 59.5517 32.7792 59.4429 32.7941L55.2415 30.4816C55.3502 30.4666 55.4516 30.4853 55.5383 30.5338V30.532Z" fill="white"/>
</mask>
<g mask="url(#mask1_710_1559)">
<path d="M59.4447 32.796L55.2415 30.4817C55.3097 30.4723 55.3742 30.4761 55.4332 30.491L59.6346 32.8054C59.5756 32.7904 59.5111 32.7867 59.4429 32.796" fill="#6DBD83"/>
<path d="M59.6362 32.8056L55.4329 30.4912C55.4642 30.4987 55.4937 30.5099 55.5214 30.5248L59.7228 32.8392C59.6951 32.8261 59.6656 32.8149 59.6343 32.8056" fill="#6DBD83"/>
</g>
<mask id="mask2_710_1559" style="mask-type:luminance" maskUnits="userSpaceOnUse" x="48" y="42" width="9" height="11">
<path d="M56.9422 52.151L52.7408 49.8366C52.5693 49.7414 52.4513 49.5548 52.4347 49.3177C52.2356 46.2362 50.6926 43.8229 48.4287 42.5762L52.6302 44.8905C54.894 46.1373 56.4371 48.5487 56.6362 51.6321C56.6509 51.8691 56.7689 52.0576 56.9422 52.151Z" fill="white"/>
</mask>
<g mask="url(#mask2_710_1559)">
<path d="M56.9422 52.151L52.7408 49.8366C52.5693 49.7414 52.4513 49.5548 52.4347 49.3177C52.2356 46.2362 50.6926 43.8229 48.4287 42.5762L52.6302 44.8905C54.894 46.1373 56.4371 48.5487 56.6362 51.6321C56.6509 51.8691 56.7689 52.0576 56.9422 52.151Z" fill="#2363C3"/>
</g>
<path d="M52.5628 39.0974L48.3613 36.7831L48.365 34.1943L52.5683 36.5087L52.5628 39.0974Z" fill="#2363C3"/>
<g filter="url(#filter10_b_710_1559)">
<path d="M49.4407 39.5428L45.2393 37.2284L48.3622 36.7842L52.5637 39.0986L49.4407 39.5428Z" fill="url(#paint14_radial_710_1559)"/>
</g>
<path d="M45.5774 40.0916L41.376 37.7772L41.3797 35.1885L45.583 37.5028L45.5774 40.0916Z" fill="#2363C3"/>
<mask id="mask3_710_1559" style="mask-type:luminance" maskUnits="userSpaceOnUse" x="31" y="52" width="5" height="4">
<path d="M35.72 55.1379L31.5185 52.8236C31.2807 52.6929 31.124 52.4241 31.124 52.0919L35.3255 54.4063C35.3255 54.7385 35.4822 55.0073 35.72 55.1379Z" fill="white"/>
</mask>
<g mask="url(#mask3_710_1559)">
<path d="M35.72 55.1379L31.5185 52.8236C31.2807 52.6929 31.124 52.4241 31.124 52.0919L35.3255 54.4063C35.3255 54.7385 35.4822 55.0073 35.72 55.1379Z" fill="#2363C3"/>
</g>
<g filter="url(#filter11_b_710_1559)">
<path d="M42.4562 40.535L38.2529 38.2206L41.3759 37.7764L45.5774 40.0907L42.4562 40.535Z" fill="url(#paint15_radial_710_1559)"/>
</g>
<path d="M38.594 41.0857L34.3926 38.7714L34.3963 36.1826L38.5996 38.497L38.594 41.0857Z" fill="#2363C3"/>
<g filter="url(#filter12_b_710_1559)">
<path d="M36.6017 41.3696L32.3984 39.0552L34.3932 38.7715L38.5946 41.0859L36.6017 41.3696Z" fill="url(#paint16_radial_710_1559)"/>
</g>
<g filter="url(#filter13_b_710_1559)">
<path d="M35.3255 54.407L31.124 52.0926L31.1443 40.6104L35.3476 42.9247L35.3255 54.407Z" fill="url(#paint17_radial_710_1559)"/>
</g>
<mask id="mask4_710_1559" style="mask-type:luminance" maskUnits="userSpaceOnUse" x="31" y="39" width="6" height="4">
<path d="M35.3487 42.9238L31.1454 40.6095C31.1454 39.848 31.7077 39.1518 32.399 39.0529L36.6004 41.3672C35.9091 41.4662 35.3487 42.1623 35.3468 42.9238H35.3487Z" fill="white"/>
</mask>
<g mask="url(#mask4_710_1559)">
<path d="M35.3487 42.9248L31.1454 40.6105C31.1454 40.422 31.1804 40.2353 31.2431 40.0636L35.4445 42.378C35.3819 42.5516 35.3468 42.7363 35.3468 42.9248" fill="#6DBD83"/>
<path d="M35.4464 42.3778L31.245 40.0634C31.2726 39.9887 31.304 39.9178 31.3409 39.8488L35.5423 42.1631C35.5054 42.2322 35.4741 42.3031 35.4464 42.3778Z" fill="#6DBD83"/>
<path d="M35.542 42.1633L31.3387 39.8489C31.3701 39.7911 31.4033 39.7332 31.442 39.681L35.6434 41.9953C35.6066 42.0495 35.5715 42.1055 35.5402 42.1633" fill="#6DBD83"/>
<path d="M35.6437 41.9952L31.4423 39.6809C31.4773 39.6305 31.5142 39.5819 31.5547 39.5353L35.7562 41.8497C35.7156 41.8963 35.6787 41.9448 35.6437 41.9952Z" fill="#6DBD83"/>
<path d="M35.758 41.8496L31.5547 39.5353C31.5952 39.4886 31.6376 39.4457 31.6819 39.4046L35.8833 41.719C35.8391 41.76 35.7967 41.803 35.7561 41.8496" fill="#6DBD83"/>
<path d="M35.8849 41.719L31.6835 39.4046C31.7314 39.3617 31.7812 39.3207 31.8346 39.2833L36.0361 41.5977C35.9826 41.635 35.9329 41.6742 35.8849 41.719Z" fill="#6DBD83"/>
<path d="M36.0364 41.5973L31.835 39.2829C31.8995 39.2381 31.9677 39.1989 32.0378 39.1653L36.2392 41.4797C36.1691 41.5133 36.1009 41.5525 36.0364 41.5973Z" fill="#6DBD83"/>
<path d="M36.2393 41.4803L32.036 39.1659C32.1503 39.1118 32.2738 39.0726 32.3992 39.0558L36.6006 41.3702C36.4734 41.3888 36.3518 41.4262 36.2375 41.4803" fill="#6DBD83"/>
</g>
<path d="M35.6207 38.8274L31.4192 36.513C31.2644 36.4272 31.1611 36.2517 31.1611 36.0371L35.3626 38.3515C35.3626 38.5661 35.4658 38.7416 35.6207 38.8274Z" fill="#3091C4"/>
<path d="M35.6204 38.8275L31.419 36.5131C31.2641 36.4273 31.1609 36.2518 31.1609 36.0372L35.3623 38.3515C35.3623 38.5662 35.4656 38.7416 35.6204 38.8275Z" fill="#3091C4"/>
<g filter="url(#filter14_b_710_1559)">
<path d="M35.923 36.1414L31.7197 33.827L55.2416 30.4805L59.4449 32.7948L35.923 36.1414Z" fill="url(#paint18_radial_710_1559)"/>
</g>
<g filter="url(#filter15_b_710_1559)">
<path d="M35.3626 38.3491L31.1611 36.0366L31.163 34.5117L35.3663 36.8261L35.3626 38.3491Z" fill="url(#paint19_radial_710_1559)"/>
</g>
<path d="M35.3674 36.8275L31.1641 34.5131C31.1641 34.1771 31.4148 33.8711 31.7208 33.8281L35.9223 36.1425C35.6162 36.1854 35.3674 36.4934 35.3655 36.8275H35.3674Z" fill="#6DBD83"/>
<path d="M35.3674 36.8277L31.1641 34.5133C31.1641 34.4312 31.1788 34.3509 31.2065 34.2744L35.4079 36.5888C35.3803 36.6634 35.3655 36.7456 35.3655 36.8277" fill="#6DBD83"/>
<path d="M35.4095 36.5884L31.208 34.2759C31.2191 34.2441 31.2338 34.2124 31.2504 34.1807L35.4519 36.495C35.4353 36.5249 35.4224 36.5566 35.4095 36.5902" fill="#6DBD83"/>
<path d="M35.4523 36.4955L31.249 34.1811C31.2619 34.155 31.2785 34.1307 31.2951 34.1064L35.4966 36.4208C35.48 36.4451 35.4652 36.4693 35.4505 36.4955" fill="#6DBD83"/>
<path d="M35.4964 36.4198L31.2949 34.1055C31.3097 34.0831 31.3281 34.0607 31.3447 34.042L35.5461 36.3564C35.5277 36.3769 35.5111 36.3974 35.4964 36.4198Z" fill="#6DBD83"/>
<path d="M35.5478 36.3575L31.3445 34.0431C31.3629 34.0226 31.3814 34.0039 31.4016 33.9852L35.6031 36.2996C35.5828 36.3183 35.5644 36.3369 35.5459 36.3575" fill="#6DBD83"/>
<path d="M35.6028 36.2972L31.4014 33.9828C31.4235 33.9642 31.4456 33.9455 31.4677 33.9287L35.6692 36.2431C35.6452 36.2599 35.6231 36.2767 35.6028 36.2972Z" fill="#6DBD83"/>
<path d="M35.6719 36.2455L31.4686 33.9312C31.4981 33.9106 31.5276 33.8938 31.559 33.8789L35.7604 36.1933C35.7291 36.2082 35.6996 36.225 35.6701 36.2455" fill="#6DBD83"/>
<path d="M35.7621 36.191L31.5588 33.8767C31.6105 33.8524 31.6639 33.8356 31.7211 33.8281L35.9225 36.1425C35.8654 36.15 35.8119 36.1668 35.7603 36.191" fill="#6DBD83"/>
<path d="M58.7633 38.517L56.4652 38.8444L56.1222 38.8933L56.1229 38.5468L56.1284 35.958L56.129 35.6982L56.3863 35.6616L59.3968 35.2342L59.3973 35.2342C59.5382 35.2144 59.6957 35.0486 59.6957 34.8463V34.8455L59.6994 33.3233C59.6994 33.3231 59.6994 33.3229 59.6994 33.3227C59.6991 33.1429 59.5864 33.0783 59.4862 33.0921C59.4861 33.0922 59.486 33.0922 59.4859 33.0922L35.9648 36.433L35.9643 36.4331C35.8229 36.4529 35.6659 36.6173 35.6659 36.821V36.8217L35.6622 38.344C35.6622 38.3441 35.6622 38.3442 35.6622 38.3443C35.6623 38.5243 35.7752 38.5889 35.8754 38.5751C35.8755 38.5751 35.8756 38.575 35.8757 38.575L38.5573 38.1944L38.9002 38.1457L38.8995 38.492L38.8939 41.0808L38.8934 41.3405L38.6362 41.3771L36.6435 41.6608L58.7633 38.517ZM58.7633 38.517H58.7652L58.7863 38.514C59.2691 38.4451 59.6953 38.8068 59.6939 39.4164V39.4166L59.6736 50.8989V50.8994C59.6736 51.283 59.3851 51.6093 59.0858 51.6513L59.0852 51.6513L57.2457 51.9126L58.7633 38.517ZM56.6367 51.6292C56.6607 52.0044 56.9428 52.2582 57.2875 52.2097L56.6367 51.6292ZM56.6367 51.6292C56.3123 46.6122 52.4242 43.3665 47.666 44.044L56.6367 51.6292ZM35.6272 54.4033L35.6272 54.4038C35.6259 54.7645 35.8709 54.9513 36.1256 54.9157L35.6272 54.4033ZM35.6272 54.4033L35.6474 42.921V42.9204M35.6272 54.4033L35.6474 42.9204M35.6474 42.9204C35.6474 42.2889 36.1183 41.7361 36.6433 41.6608L35.6474 42.9204ZM52.6047 39.3931L52.8619 39.3566L52.8625 39.0968L52.868 36.508L52.8688 36.1616L52.5258 36.2104L49.4028 36.6546L49.1456 36.6912L49.1451 36.951L49.1395 39.5397L49.1388 39.8861L49.4818 39.8373L52.6047 39.3931ZM45.6196 40.3861L45.8767 40.3495L45.8773 40.0897L45.8828 37.501L45.8836 37.1545L45.5406 37.2033L42.4194 37.6475L42.1622 37.6841L42.1617 37.9439L42.1562 40.5326L42.1554 40.8791L42.4984 40.8303L45.6196 40.3861Z" fill="url(#paint20_linear_710_1559)" fill-opacity="0.7" stroke="url(#paint21_linear_710_1559)" stroke-width="0.6"/>
<path d="M58.7439 38.217C59.4371 38.1181 59.9957 38.6557 59.9939 39.4172L59.9736 50.8994C59.9736 51.4127 59.5938 51.883 59.1274 51.9484L57.2875 52.2097C56.9428 52.2582 56.6607 52.0044 56.6367 51.6292C56.3123 46.6122 52.4242 43.3665 47.666 44.044C42.9097 44.7215 39.0069 49.0741 38.664 54.1862C38.6382 54.5688 38.3543 54.9029 38.0077 54.9515L36.1678 55.2128C35.7032 55.2781 35.3253 54.916 35.3272 54.4027L35.3474 42.9204C35.3474 42.1589 35.9097 41.4628 36.601 41.3638L38.5939 41.0801L38.5995 38.4914L35.9171 38.8722C35.6092 38.9151 35.3622 38.678 35.3622 38.344L35.3659 36.821C35.3659 36.485 35.6166 36.1789 35.9226 36.136L59.4445 32.7951C59.7523 32.7521 59.9994 32.9892 59.9994 33.3233L59.9957 34.8463C59.9957 35.1804 59.745 35.4883 59.4389 35.5312L56.4284 35.9587L56.4229 38.5474L58.7421 38.217H58.7439ZM52.5625 39.0961L52.568 36.5074L49.4451 36.9516L49.4395 39.5403L52.5625 39.0961ZM45.5773 40.0891L45.5828 37.5003L42.4617 37.9445L42.4562 40.5333L45.5773 40.0891Z" fill="url(#paint22_radial_710_1559)"/>
<path d="M62.8002 19.7621C69.8847 19.3474 74.6394 20.9704 76.7468 24.793C81.3928 33.2202 68.6623 49.1467 48.3123 60.3659C27.9624 71.5851 7.69912 73.8484 3.05309 65.4212C0.0992572 60.0634 4.16924 51.6743 12.7556 43.3908" stroke="url(#paint23_linear_710_1559)" stroke-width="0.4"/>
<path d="M15.867 72.4047C16.9223 72.4047 17.7778 71.5509 17.7778 70.4978C17.7778 69.4446 16.9223 68.5908 15.867 68.5908C14.8116 68.5908 13.9561 69.4446 13.9561 70.4978C13.9561 71.5509 14.8116 72.4047 15.867 72.4047Z" fill="url(#paint24_radial_710_1559)"/>
<defs>
<filter id="filter0_f_710_1559" x="18.5" y="65" width="42" height="19" filterUnits="userSpaceOnUse" color-interpolation-filters="sRGB">
<feFlood flood-opacity="0" result="BackgroundImageFix"/>
<feBlend mode="normal" in="SourceGraphic" in2="BackgroundImageFix" result="shape"/>
<feGaussianBlur stdDeviation="3" result="effect1_foregroundBlur_710_1559"/>
</filter>
<filter id="filter1_b_710_1559" x="57.4" y="18.4" width="9.2" height="35.2" filterUnits="userSpaceOnUse" color-interpolation-filters="sRGB">
<feFlood flood-opacity="0" result="BackgroundImageFix"/>
<feGaussianBlur in="BackgroundImageFix" stdDeviation="0.8"/>
<feComposite in2="SourceAlpha" operator="in" result="effect1_backgroundBlur_710_1559"/>
<feBlend mode="normal" in="SourceGraphic" in2="effect1_backgroundBlur_710_1559" result="shape"/>
</filter>
<filter id="filter2_b_710_1559" x="34.3999" y="47.4" width="32.2" height="24.2" filterUnits="userSpaceOnUse" color-interpolation-filters="sRGB">
<feFlood flood-opacity="0" result="BackgroundImageFix"/>
<feGaussianBlur in="BackgroundImageFix" stdDeviation="0.8"/>
<feComposite in2="SourceAlpha" operator="in" result="effect1_backgroundBlur_710_1559"/>
<feBlend mode="normal" in="SourceGraphic" in2="effect1_backgroundBlur_710_1559" result="shape"/>
</filter>
<filter id="filter3_b_710_1559" x="11.4" y="24.4" width="9.2" height="36.2" filterUnits="userSpaceOnUse" color-interpolation-filters="sRGB">
<feFlood flood-opacity="0" result="BackgroundImageFix"/>
<feGaussianBlur in="BackgroundImageFix" stdDeviation="0.8"/>
<feComposite in2="SourceAlpha" operator="in" result="effect1_backgroundBlur_710_1559"/>
<feBlend mode="normal" in="SourceGraphic" in2="effect1_backgroundBlur_710_1559" result="shape"/>
</filter>
<filter id="filter4_b_710_1559" x="11.4" y="7.4" width="32.2" height="24.2" filterUnits="userSpaceOnUse" color-interpolation-filters="sRGB">
<feFlood flood-opacity="0" result="BackgroundImageFix"/>
<feGaussianBlur in="BackgroundImageFix" stdDeviation="0.8"/>
<feComposite in2="SourceAlpha" operator="in" result="effect1_backgroundBlur_710_1559"/>
<feBlend mode="normal" in="SourceGraphic" in2="effect1_backgroundBlur_710_1559" result="shape"/>
</filter>
<filter id="filter5_i_710_1559" x="13.0001" y="9" width="46" height="58.8" filterUnits="userSpaceOnUse" color-interpolation-filters="sRGB">
<feFlood flood-opacity="0" result="BackgroundImageFix"/>
<feBlend mode="normal" in="SourceGraphic" in2="BackgroundImageFix" result="shape"/>
<feColorMatrix in="SourceAlpha" type="matrix" values="0 0 0 0 0 0 0 0 0 0 0 0 0 0 0 0 0 0 127 0" result="hardAlpha"/>
<feOffset dy="0.8"/>
<feGaussianBlur stdDeviation="8"/>
<feComposite in2="hardAlpha" operator="arithmetic" k2="-1" k3="1"/>
<feColorMatrix type="matrix" values="0 0 0 0 0 0 0 0 0 0.76 0 0 0 0 1 0 0 0 0.25 0"/>
<feBlend mode="normal" in2="shape" result="effect1_innerShadow_710_1559"/>
</filter>
<filter id="filter6_i_710_1559" x="19" y="12" width="47" height="58.8" filterUnits="userSpaceOnUse" color-interpolation-filters="sRGB">
<feFlood flood-opacity="0" result="BackgroundImageFix"/>
<feBlend mode="normal" in="SourceGraphic" in2="BackgroundImageFix" result="shape"/>
<feColorMatrix in="SourceAlpha" type="matrix" values="0 0 0 0 0 0 0 0 0 0 0 0 0 0 0 0 0 0 127 0" result="hardAlpha"/>
<feOffset dy="0.8"/>
<feGaussianBlur stdDeviation="15"/>
<feComposite in2="hardAlpha" operator="arithmetic" k2="-1" k3="1"/>
<feColorMatrix type="matrix" values="0 0 0 0 0 0 0 0 0 0.76 0 0 0 0 1 0 0 0 0.4 0"/>
<feBlend mode="normal" in2="shape" result="effect1_innerShadow_710_1559"/>
</filter>
<filter id="filter7_f_710_1559" x="21" y="22" width="36.6722" height="34.4304" filterUnits="userSpaceOnUse" color-interpolation-filters="sRGB">
<feFlood flood-opacity="0" result="BackgroundImageFix"/>
<feBlend mode="normal" in="SourceGraphic" in2="BackgroundImageFix" result="shape"/>
<feGaussianBlur stdDeviation="3" result="effect1_foregroundBlur_710_1559"/>
</filter>
<filter id="filter8_d_710_1559" x="24.124" y="29.4766" width="36.8754" height="32.7448" filterUnits="userSpaceOnUse" color-interpolation-filters="sRGB">
<feFlood flood-opacity="0" result="BackgroundImageFix"/>
<feColorMatrix in="SourceAlpha" type="matrix" values="0 0 0 0 0 0 0 0 0 0 0 0 0 0 0 0 0 0 127 0" result="hardAlpha"/>
<feOffset dx="-3" dy="3"/>
<feGaussianBlur stdDeviation="2"/>
<feComposite in2="hardAlpha" operator="out"/>
<feColorMatrix type="matrix" values="0 0 0 0 0.0784314 0 0 0 0 0.12549 0 0 0 0 0.337255 0 0 0 0.8 0"/>
<feBlend mode="normal" in2="BackgroundImageFix" result="effect1_dropShadow_710_1559"/>
<feBlend mode="normal" in="SourceGraphic" in2="effect1_dropShadow_710_1559" result="shape"/>
</filter>
<filter id="filter9_b_710_1559" x="50.9417" y="34.6223" width="9.08246" height="5.20471" filterUnits="userSpaceOnUse" color-interpolation-filters="sRGB">
<feFlood flood-opacity="0" result="BackgroundImageFix"/>
<feGaussianBlur in="BackgroundImageFix" stdDeviation="0.64"/>
<feComposite in2="SourceAlpha" operator="in" result="effect1_backgroundBlur_710_1559"/>
<feBlend mode="normal" in="SourceGraphic" in2="effect1_backgroundBlur_710_1559" result="shape"/>
</filter>
<filter id="filter10_b_710_1559" x="43.9593" y="35.5042" width="9.88446" height="5.31861" filterUnits="userSpaceOnUse" color-interpolation-filters="sRGB">
<feFlood flood-opacity="0" result="BackgroundImageFix"/>
<feGaussianBlur in="BackgroundImageFix" stdDeviation="0.64"/>
<feComposite in2="SourceAlpha" operator="in" result="effect1_backgroundBlur_710_1559"/>
<feBlend mode="normal" in="SourceGraphic" in2="effect1_backgroundBlur_710_1559" result="shape"/>
</filter>
<filter id="filter11_b_710_1559" x="36.9729" y="36.4964" width="9.88446" height="5.31861" filterUnits="userSpaceOnUse" color-interpolation-filters="sRGB">
<feFlood flood-opacity="0" result="BackgroundImageFix"/>
<feGaussianBlur in="BackgroundImageFix" stdDeviation="0.64"/>
<feComposite in2="SourceAlpha" operator="in" result="effect1_backgroundBlur_710_1559"/>
<feBlend mode="normal" in="SourceGraphic" in2="effect1_backgroundBlur_710_1559" result="shape"/>
</filter>
<filter id="filter12_b_710_1559" x="31.1184" y="37.4915" width="8.75617" height="5.15808" filterUnits="userSpaceOnUse" color-interpolation-filters="sRGB">
<feFlood flood-opacity="0" result="BackgroundImageFix"/>
<feGaussianBlur in="BackgroundImageFix" stdDeviation="0.64"/>
<feComposite in2="SourceAlpha" operator="in" result="effect1_backgroundBlur_710_1559"/>
<feBlend mode="normal" in="SourceGraphic" in2="effect1_backgroundBlur_710_1559" result="shape"/>
</filter>
<filter id="filter13_b_710_1559" x="29.844" y="39.3304" width="6.78363" height="16.3566" filterUnits="userSpaceOnUse" color-interpolation-filters="sRGB">
<feFlood flood-opacity="0" result="BackgroundImageFix"/>
<feGaussianBlur in="BackgroundImageFix" stdDeviation="0.64"/>
<feComposite in2="SourceAlpha" operator="in" result="effect1_backgroundBlur_710_1559"/>
<feBlend mode="normal" in="SourceGraphic" in2="effect1_backgroundBlur_710_1559" result="shape"/>
</filter>
<filter id="filter14_b_710_1559" x="30.4397" y="29.2005" width="30.2851" height="8.22089" filterUnits="userSpaceOnUse" color-interpolation-filters="sRGB">
<feFlood flood-opacity="0" result="BackgroundImageFix"/>
<feGaussianBlur in="BackgroundImageFix" stdDeviation="0.64"/>
<feComposite in2="SourceAlpha" operator="in" result="effect1_backgroundBlur_710_1559"/>
<feBlend mode="normal" in="SourceGraphic" in2="effect1_backgroundBlur_710_1559" result="shape"/>
</filter>
<filter id="filter15_b_710_1559" x="29.8811" y="33.2317" width="6.76508" height="6.3974" filterUnits="userSpaceOnUse" color-interpolation-filters="sRGB">
<feFlood flood-opacity="0" result="BackgroundImageFix"/>
<feGaussianBlur in="BackgroundImageFix" stdDeviation="0.64"/>
<feComposite in2="SourceAlpha" operator="in" result="effect1_backgroundBlur_710_1559"/>
<feBlend mode="normal" in="SourceGraphic" in2="effect1_backgroundBlur_710_1559" result="shape"/>
</filter>
<linearGradient id="paint0_linear_710_1559" x1="46.8957" y1="77.473" x2="45.8513" y2="69.8638" gradientUnits="userSpaceOnUse">
<stop stop-color="#3CEAF1"/>
<stop offset="1" stop-color="#3CF16F"/>
</linearGradient>
<linearGradient id="paint1_linear_710_1559" x1="35.6743" y1="70.234" x2="36.72" y2="73.2373" gradientUnits="userSpaceOnUse">
<stop stop-color="white"/>
<stop offset="1" stop-color="white" stop-opacity="0"/>
</linearGradient>
<linearGradient id="paint2_linear_710_1559" x1="73.5" y1="53" x2="73.5" y2="69.5" gradientUnits="userSpaceOnUse">
<stop stop-color="white"/>
<stop offset="0.362732" stop-color="#3CEAF1" stop-opacity="0.79"/>
<stop offset="1" stop-color="#3CEAF1" stop-opacity="0"/>
</linearGradient>
<radialGradient id="paint3_radial_710_1559" cx="0" cy="0" r="1" gradientUnits="userSpaceOnUse" gradientTransform="translate(76.325 50.4594) rotate(129.806) scale(3.1241 3.123)">
<stop stop-color="#FFFCB3"/>
<stop offset="1" stop-color="#09AB37"/>
</radialGradient>
<linearGradient id="paint4_linear_710_1559" x1="61.961" y1="21.8898" x2="61.961" y2="50.2361" gradientUnits="userSpaceOnUse">
<stop offset="0.333333" stop-color="#0066FF" stop-opacity="0.1"/>
<stop offset="0.85857" stop-color="#00FFFF" stop-opacity="0.4"/>
<stop offset="1" stop-color="#CEFFE5" stop-opacity="0.6"/>
</linearGradient>
<linearGradient id="paint5_linear_710_1559" x1="50.3117" y1="50.2402" x2="50.3117" y2="68.8425" gradientUnits="userSpaceOnUse">
<stop offset="0.333333" stop-color="#0066FF" stop-opacity="0.1"/>
<stop offset="0.85857" stop-color="#00FFFF" stop-opacity="0.4"/>
<stop offset="1" stop-color="#CEFFE5" stop-opacity="0.6"/>
</linearGradient>
<linearGradient id="paint6_linear_710_1559" x1="15.961" y1="27.9488" x2="15.961" y2="57.181" gradientUnits="userSpaceOnUse">
<stop stop-color="#CEFFE5" stop-opacity="0.6"/>
<stop offset="0.47452" stop-color="#00FFFF" stop-opacity="0.27"/>
<stop offset="0.914376" stop-color="#0066FF" stop-opacity="0.1"/>
</linearGradient>
<linearGradient id="paint7_linear_710_1559" x1="27.3117" y1="10.2402" x2="27.3117" y2="28.8425" gradientUnits="userSpaceOnUse">
<stop offset="0.333333" stop-color="#0066FF" stop-opacity="0.1"/>
<stop offset="0.85857" stop-color="#00FFFF" stop-opacity="0.4"/>
<stop offset="1" stop-color="#CEFFE5" stop-opacity="0.6"/>
</linearGradient>
<linearGradient id="paint8_linear_710_1559" x1="13.142" y1="29.4514" x2="58.4034" y2="57.5478" gradientUnits="userSpaceOnUse">
<stop stop-color="white"/>
<stop offset="0.153274" stop-color="#8AA8F5"/>
<stop offset="0.336377" stop-color="white" stop-opacity="0"/>
<stop offset="0.639716" stop-color="white" stop-opacity="0"/>
<stop offset="0.838542" stop-color="#8AA8F5" stop-opacity="0"/>
<stop offset="1" stop-color="white" stop-opacity="0"/>
</linearGradient>
<linearGradient id="paint9_linear_710_1559" x1="19.7789" y1="29.8965" x2="56.8007" y2="63.8488" gradientUnits="userSpaceOnUse">
<stop stop-color="white"/>
<stop offset="0.153274" stop-color="#8AA8F5"/>
<stop offset="0.336377" stop-color="white" stop-opacity="0"/>
<stop offset="0.639716" stop-color="white" stop-opacity="0"/>
<stop offset="0.838542" stop-color="#8AA8F5"/>
<stop offset="1" stop-color="white"/>
</linearGradient>
<radialGradient id="paint10_radial_710_1559" cx="0" cy="0" r="1" gradientUnits="userSpaceOnUse" gradientTransform="translate(56.6866 61.7566) rotate(-123.724) scale(39.2175 30.2664)">
<stop stop-color="white" stop-opacity="0.89"/>
<stop offset="0.16458" stop-color="#3CEAF1" stop-opacity="0.743523"/>
<stop offset="1" stop-color="#3C7DFA" stop-opacity="0"/>
</radialGradient>
<linearGradient id="paint11_linear_710_1559" x1="45.4184" y1="48.7416" x2="35.0876" y2="29.425" gradientUnits="userSpaceOnUse">
<stop stop-color="#3CEAF1"/>
<stop offset="1" stop-color="#3CF16F"/>
</linearGradient>
<linearGradient id="paint12_linear_710_1559" x1="36.1898" y1="25.5454" x2="41.3433" y2="29.3439" gradientUnits="userSpaceOnUse">
<stop stop-color="white"/>
<stop offset="1" stop-color="white" stop-opacity="0"/>
</linearGradient>
<radialGradient id="paint13_radial_710_1559" cx="0" cy="0" r="1" gradientUnits="userSpaceOnUse" gradientTransform="translate(57.2689 31.9675) rotate(121.837) scale(7.82838 15.4824)">
<stop offset="0.333333" stop-color="#FFC700" stop-opacity="0.54"/>
<stop offset="0.802083" stop-color="#3CEAF1" stop-opacity="0.58"/>
<stop offset="0.921875" stop-color="#2363C2"/>
<stop offset="1" stop-color="#18D3C4"/>
</radialGradient>
<radialGradient id="paint14_radial_710_1559" cx="0" cy="0" r="1" gradientUnits="userSpaceOnUse" gradientTransform="translate(50.907 32.68) rotate(123.763) scale(8.34415 17.0135)">
<stop offset="0.333333" stop-color="#FFC700" stop-opacity="0.54"/>
<stop offset="0.802083" stop-color="#3CEAF1" stop-opacity="0.58"/>
<stop offset="0.921875" stop-color="#2363C2"/>
<stop offset="1" stop-color="#18D3C4"/>
</radialGradient>
<radialGradient id="paint15_radial_710_1559" cx="0" cy="0" r="1" gradientUnits="userSpaceOnUse" gradientTransform="translate(43.9207 33.6721) rotate(123.763) scale(8.34415 17.0135)">
<stop offset="0.333333" stop-color="#FFC700" stop-opacity="0.54"/>
<stop offset="0.802083" stop-color="#3CEAF1" stop-opacity="0.58"/>
<stop offset="0.921875" stop-color="#2363C2"/>
<stop offset="1" stop-color="#18D3C4"/>
</radialGradient>
<radialGradient id="paint16_radial_710_1559" cx="0" cy="0" r="1" gradientUnits="userSpaceOnUse" gradientTransform="translate(37.1932 34.9061) rotate(120.983) scale(7.62056 14.8423)">
<stop offset="0.333333" stop-color="#FFC700" stop-opacity="0.54"/>
<stop offset="0.802083" stop-color="#3CEAF1" stop-opacity="0.58"/>
<stop offset="0.921875" stop-color="#2363C2"/>
<stop offset="1" stop-color="#18D3C4"/>
</radialGradient>
<radialGradient id="paint17_radial_710_1559" cx="0" cy="0" r="1" gradientUnits="userSpaceOnUse" gradientTransform="translate(34.3923 20.0837) rotate(94.4074) scale(34.7967 11.766)">
<stop offset="0.333333" stop-color="#FFC700" stop-opacity="0.54"/>
<stop offset="0.802083" stop-color="#3CEAF1" stop-opacity="0.58"/>
<stop offset="0.921875" stop-color="#2363C2"/>
<stop offset="1" stop-color="#18D3C4"/>
</radialGradient>
<radialGradient id="paint18_radial_710_1559" cx="0" cy="0" r="1" gradientUnits="userSpaceOnUse" gradientTransform="translate(53.174 22.0582) rotate(140.959) scale(22.6001 48.7936)">
<stop offset="0.333333" stop-color="#FFC700" stop-opacity="0.54"/>
<stop offset="0.802083" stop-color="#3CEAF1" stop-opacity="0.58"/>
<stop offset="0.921875" stop-color="#2363C2"/>
<stop offset="1" stop-color="#18D3C4"/>
</radialGradient>
<radialGradient id="paint19_radial_710_1559" cx="0" cy="0" r="1" gradientUnits="userSpaceOnUse" gradientTransform="translate(34.4151 28.8025) rotate(105.424) scale(10.0102 11.3262)">
<stop offset="0.333333" stop-color="#FFC700" stop-opacity="0.54"/>
<stop offset="0.802083" stop-color="#3CEAF1" stop-opacity="0.58"/>
<stop offset="0.921875" stop-color="#2363C2"/>
<stop offset="1" stop-color="#18D3C4"/>
</radialGradient>
<linearGradient id="paint20_linear_710_1559" x1="53.7456" y1="53.5317" x2="43.4013" y2="36.5948" gradientUnits="userSpaceOnUse">
<stop stop-color="#0051AF"/>
<stop offset="0.782318" stop-color="#42FF77"/>
<stop offset="1" stop-color="#D9FFE3"/>
</linearGradient>
<linearGradient id="paint21_linear_710_1559" x1="44.5169" y1="30.3354" x2="49.6705" y2="34.1339" gradientUnits="userSpaceOnUse">
<stop stop-color="white"/>
<stop offset="1" stop-color="white" stop-opacity="0"/>
</linearGradient>
<radialGradient id="paint22_radial_710_1559" cx="0" cy="0" r="1" gradientUnits="userSpaceOnUse" gradientTransform="translate(57.4298 58.4525) rotate(-119.987) scale(16.488 16.3145)">
<stop stop-color="#DCA3FF"/>
<stop offset="1" stop-color="#DCA3FF" stop-opacity="0"/>
</radialGradient>
<linearGradient id="paint23_linear_710_1559" x1="53.4489" y1="59.6508" x2="46.4003" y2="35.1521" gradientUnits="userSpaceOnUse">
<stop stop-color="white"/>
<stop offset="0.617643" stop-color="#3CEAF1" stop-opacity="0.79"/>
<stop offset="1" stop-color="#3CEAF1" stop-opacity="0.44"/>
</linearGradient>
<radialGradient id="paint24_radial_710_1559" cx="0" cy="0" r="1" gradientUnits="userSpaceOnUse" gradientTransform="translate(16.7811 70.0502) rotate(129.806) scale(3.1241 3.123)">
<stop stop-color="#FFFCB3"/>
<stop offset="1" stop-color="#09AB37"/>
</radialGradient>
</defs>
</svg>
