<svg width="80" height="84" viewBox="0 0 80 84" fill="none" xmlns="http://www.w3.org/2000/svg">
<path d="M42.3801 15.0544L37.2654 12.2715C37.6638 12.4881 38.1441 12.7394 38.6984 13.0121L43.8142 15.795C43.2599 15.5223 42.7796 15.271 42.3801 15.0544Z" fill="#3C3C3C"/>
<g filter="url(#filter0_f_710_1387)">
<ellipse cx="39.5" cy="74.5" rx="15" ry="3.5" fill="url(#paint0_linear_710_1387)" fill-opacity="0.5"/>
<path d="M54.34 74.5C54.34 74.6921 54.2573 74.892 54.075 75.0999C53.8917 75.3088 53.6143 75.518 53.2439 75.7223C52.5034 76.1308 51.4212 76.5038 50.0702 76.8191C47.3709 77.4489 43.6336 77.84 39.5 77.84C35.3664 77.84 31.6291 77.4489 28.9298 76.8191C27.5788 76.5038 26.4966 76.1308 25.7561 75.7223C25.3857 75.518 25.1083 75.3088 24.925 75.0999C24.7427 74.892 24.66 74.6921 24.66 74.5C24.66 74.3079 24.7427 74.108 24.925 73.9001C25.1083 73.6912 25.3857 73.482 25.7561 73.2777C26.4966 72.8692 27.5788 72.4962 28.9298 72.1809C31.6291 71.5511 35.3664 71.16 39.5 71.16C43.6336 71.16 47.3709 71.5511 50.0702 72.1809C51.4212 72.4962 52.5034 72.8692 53.2439 73.2777C53.6143 73.482 53.8917 73.6912 54.075 73.9001C54.2573 74.108 54.34 74.3079 54.34 74.5Z" stroke="url(#paint1_linear_710_1387)" stroke-width="0.32"/>
</g>
<path d="M75.5 52V70" stroke="url(#paint2_linear_710_1387)" stroke-width="0.4"/>
<path d="M75.4109 52.8139C76.4663 52.8139 77.3218 51.9601 77.3218 50.9069C77.3218 49.8538 76.4663 49 75.4109 49C74.3555 49 73.5 49.8538 73.5 50.9069C73.5 51.9601 74.3555 52.8139 75.4109 52.8139Z" fill="url(#paint3_radial_710_1387)"/>
<g filter="url(#filter1_b_710_1387)">
<path d="M64.9497 52L59 48.8985L59.0504 20L65 23.1035L64.9497 52Z" fill="url(#paint4_linear_710_1387)"/>
</g>
<g filter="url(#filter2_b_710_1387)">
<path d="M42.267 70L35.9999 66.525L58.5385 49L64.9999 52.3249L42.267 70Z" fill="url(#paint5_linear_710_1387)"/>
</g>
<g filter="url(#filter3_b_710_1387)">
<path d="M18.9497 59L13 55.4537L13.0503 26L19 29.5483L18.9497 59Z" fill="url(#paint6_linear_710_1387)"/>
</g>
<g filter="url(#filter4_b_710_1387)">
<path d="M19.267 30L13 26.525L35.5385 9L42 12.3249L19.267 30Z" fill="url(#paint7_linear_710_1387)"/>
</g>
<g filter="url(#filter5_i_710_1387)">
<path d="M36.0528 9.00002L59.0002 20.2297L58.9465 49.2297L35.9475 67L13.0002 55.7683L13.0538 26.7703L36.0528 9.00002Z" fill="white" fill-opacity="0.01"/>
</g>
<path d="M13.2536 26.8687L36.0767 9.23435L58.7999 20.3544L58.7467 49.1314L35.9237 66.7657L13.2004 55.6436L13.2536 26.8687Z" stroke="url(#paint8_linear_710_1387)" stroke-width="0.4"/>
<g filter="url(#filter6_i_710_1387)">
<path d="M42.5538 12L66 23.2297L65.9452 52.2297L42.4462 70L19 58.7683L19.0548 29.7703L42.5538 12Z" fill="white" fill-opacity="0.01"/>
</g>
<path d="M19.2546 29.8699L42.5773 12.233L65.7998 23.3556L65.7454 52.1301L42.4227 69.767L19.2002 58.6424L19.2546 29.8699Z" stroke="url(#paint9_linear_710_1387)" stroke-width="0.4"/>
<path d="M42.5538 12L66 23.2297L65.9452 52.2297L42.4462 70L19 58.7683L19.0548 29.7703L42.5538 12Z" fill="url(#paint10_radial_710_1387)"/>
<path d="M13 27L20 30" stroke="white" stroke-width="0.4"/>
<g filter="url(#filter7_f_710_1387)">
<path d="M29.0268 25.9638L29.0201 29.6626L32.4475 29.1795L32.4341 36.5792L29.0067 37.0623L29 40.7603L35.8556 39.7964L35.8824 25L29.0268 25.9638Z" fill="url(#paint11_linear_710_1387)" fill-opacity="0.7"/>
<path d="M40.9758 50.1741L52.9717 48.488C52.9941 35.6184 45.7345 25.4651 37.5924 26.6093L37.5722 37.7078C40.8439 37.2479 42.5866 40.6932 40.9758 50.1741Z" fill="url(#paint12_linear_710_1387)" fill-opacity="0.7"/>
<path d="M35.7221 25.1841L35.6958 39.6573L29.1603 40.5762L29.1665 37.2013L32.4564 36.7377L32.5939 36.7183L32.5941 36.5795L32.6075 29.1798L32.6079 28.9954L32.4252 29.0211L29.1805 29.4784L29.1866 26.1029L35.7221 25.1841ZM52.8117 48.3489L41.1698 49.9853C41.9389 45.356 41.9029 42.1604 41.2572 40.1639C40.9283 39.147 40.437 38.4283 39.8007 37.996C39.2087 37.5939 38.5079 37.4509 37.7326 37.5275L37.7521 26.7496C41.6929 26.2578 45.4362 28.4568 48.2131 32.3858C51.0008 36.3302 52.7968 41.9985 52.8117 48.3489Z" stroke="url(#paint13_linear_710_1387)" stroke-width="0.32"/>
</g>
<g filter="url(#filter8_d_710_1387)">
<mask id="mask0_710_1387" style="mask-type:luminance" maskUnits="userSpaceOnUse" x="41" y="40" width="6" height="15">
<path d="M41.0215 40.2861L44.0933 41.9575C46.049 43.0209 46.8308 46.7437 45.5759 54.1367L42.5041 52.4654C43.7603 45.0737 42.9772 41.3509 41.0215 40.2861Z" fill="white"/>
</mask>
<g mask="url(#mask0_710_1387)">
<g filter="url(#filter9_b_710_1387)">
<path d="M45.5759 54.1367L42.5041 52.4654C43.7603 45.0737 42.9772 41.3509 41.0215 40.2861L44.0933 41.9575C46.049 43.0209 46.8308 46.7437 45.5759 54.1367Z" fill="url(#paint14_radial_710_1387)"/>
</g>
</g>
<g filter="url(#filter10_b_710_1387)">
<path d="M42.1714 41.6671L39.0996 39.9971L39.1198 28.8975L42.1929 30.5688L42.1714 41.6671Z" fill="url(#paint15_radial_710_1387)"/>
</g>
<mask id="mask1_710_1387" style="mask-type:luminance" maskUnits="userSpaceOnUse" x="39" y="28" width="10" height="4">
<path d="M44.9648 30.0265L48.0366 31.6979C46.2102 30.7045 44.2289 30.284 42.1909 30.5697L39.1191 28.8984C41.1558 28.6126 43.1385 29.0332 44.9648 30.0265Z" fill="white"/>
</mask>
<g mask="url(#mask1_710_1387)">
<g filter="url(#filter11_b_710_1387)">
<path d="M42.1929 30.5688L39.1211 28.8975C40.3234 28.729 41.5055 28.8058 42.6484 29.101L45.7202 30.7724C44.5772 30.4772 43.3938 30.399 42.1929 30.5688Z" fill="url(#paint16_radial_710_1387)"/>
</g>
<g filter="url(#filter12_b_710_1387)">
<path d="M45.7201 30.7731L42.6484 29.1017C43.2994 29.2702 43.9383 29.5101 44.5596 29.8148L47.6314 31.4861C47.01 31.1801 46.3712 30.9416 45.7201 30.7731Z" fill="url(#paint17_radial_710_1387)"/>
</g>
<g filter="url(#filter13_b_710_1387)">
<path d="M47.6313 31.4868L44.5596 29.8154C44.6957 29.8828 44.8318 29.9529 44.9666 30.0257L48.0384 31.697C47.9036 31.6243 47.7675 31.5542 47.6313 31.4868Z" fill="url(#paint18_radial_710_1387)"/>
</g>
</g>
<g filter="url(#filter14_b_710_1387)">
<path d="M33.5991 44.7222L30.5273 43.0508L30.5341 39.3523L33.6059 41.0236L33.5991 44.7222Z" fill="url(#paint19_radial_710_1387)"/>
</g>
<g filter="url(#filter15_b_710_1387)">
<path d="M33.606 41.0236L30.5342 39.3523L33.9618 38.8711L37.0336 40.5411L33.606 41.0236Z" fill="url(#paint20_radial_710_1387)"/>
</g>
<g filter="url(#filter16_b_710_1387)">
<path d="M37.0337 40.5408L33.9619 38.8708L33.9754 31.4697L37.0472 33.1411L37.0337 40.5408Z" fill="url(#paint21_radial_710_1387)"/>
</g>
<path d="M40.1814 29.3062L40.1556 43.4965L33.9002 44.376L33.9058 41.284L37.0756 40.8372L37.3333 40.8009L37.3337 40.5407L37.3471 33.141L37.3478 32.7951L37.0053 32.8434L33.9204 33.2782L33.926 30.1856L40.1814 29.3062ZM57.2708 52.1882L45.9384 53.7811C46.6766 49.2473 46.6375 46.0838 45.99 44.0818C45.6548 43.0453 45.1486 42.2961 44.479 41.8412C43.8949 41.4443 43.2139 41.2901 42.4725 41.3366L42.4915 30.835C46.3191 30.412 49.9685 32.5651 52.6984 36.4276C55.4494 40.32 57.2334 45.9118 57.2708 52.1882Z" fill="url(#paint22_linear_710_1387)" fill-opacity="0.7" stroke="url(#paint23_linear_710_1387)" stroke-width="0.6"/>
<path d="M33.6264 29.9248L33.6197 33.6235L37.0471 33.1405L37.0337 40.5402L33.6063 41.0232L33.5996 44.7212L40.4552 43.7574L40.482 28.9609L33.6264 29.9248Z" fill="url(#paint24_radial_710_1387)"/>
<path d="M45.5754 54.135L57.5713 52.4489C57.5937 39.5793 50.3341 29.4261 42.192 30.5703L42.1719 41.6687C45.4435 41.2088 47.1863 44.6541 45.5754 54.135Z" fill="url(#paint25_radial_710_1387)"/>
<g filter="url(#filter17_b_710_1387)">
<path d="M33.6196 33.6238L30.5479 31.9524L30.5546 28.2539L33.6264 29.9253L33.6196 33.6238Z" fill="url(#paint26_radial_710_1387)"/>
</g>
<g filter="url(#filter18_b_710_1387)">
<path d="M33.6255 29.9251L30.5537 28.2538L37.4089 27.29L40.4807 28.9614L33.6255 29.9251Z" fill="url(#paint27_radial_710_1387)"/>
</g>
</g>
<path d="M62.8002 19.7621C69.8847 19.3474 74.6394 20.9704 76.7468 24.793C81.3928 33.2202 68.6623 49.1467 48.3123 60.3659C27.9624 71.5851 7.69912 73.8484 3.05309 65.4212C0.0992572 60.0634 4.16924 51.6743 12.7556 43.3908" stroke="url(#paint28_linear_710_1387)" stroke-width="0.4"/>
<path d="M15.867 72.4047C16.9223 72.4047 17.7778 71.5509 17.7778 70.4978C17.7778 69.4446 16.9223 68.5908 15.867 68.5908C14.8116 68.5908 13.9561 69.4446 13.9561 70.4978C13.9561 71.5509 14.8116 72.4047 15.867 72.4047Z" fill="url(#paint29_radial_710_1387)"/>
<defs>
<filter id="filter0_f_710_1387" x="18.5" y="65" width="42" height="19" filterUnits="userSpaceOnUse" color-interpolation-filters="sRGB">
<feFlood flood-opacity="0" result="BackgroundImageFix"/>
<feBlend mode="normal" in="SourceGraphic" in2="BackgroundImageFix" result="shape"/>
<feGaussianBlur stdDeviation="3" result="effect1_foregroundBlur_710_1387"/>
</filter>
<filter id="filter1_b_710_1387" x="57.4" y="18.4" width="9.2" height="35.2" filterUnits="userSpaceOnUse" color-interpolation-filters="sRGB">
<feFlood flood-opacity="0" result="BackgroundImageFix"/>
<feGaussianBlur in="BackgroundImageFix" stdDeviation="0.8"/>
<feComposite in2="SourceAlpha" operator="in" result="effect1_backgroundBlur_710_1387"/>
<feBlend mode="normal" in="SourceGraphic" in2="effect1_backgroundBlur_710_1387" result="shape"/>
</filter>
<filter id="filter2_b_710_1387" x="34.3999" y="47.4" width="32.2" height="24.2" filterUnits="userSpaceOnUse" color-interpolation-filters="sRGB">
<feFlood flood-opacity="0" result="BackgroundImageFix"/>
<feGaussianBlur in="BackgroundImageFix" stdDeviation="0.8"/>
<feComposite in2="SourceAlpha" operator="in" result="effect1_backgroundBlur_710_1387"/>
<feBlend mode="normal" in="SourceGraphic" in2="effect1_backgroundBlur_710_1387" result="shape"/>
</filter>
<filter id="filter3_b_710_1387" x="11.4" y="24.4" width="9.2" height="36.2" filterUnits="userSpaceOnUse" color-interpolation-filters="sRGB">
<feFlood flood-opacity="0" result="BackgroundImageFix"/>
<feGaussianBlur in="BackgroundImageFix" stdDeviation="0.8"/>
<feComposite in2="SourceAlpha" operator="in" result="effect1_backgroundBlur_710_1387"/>
<feBlend mode="normal" in="SourceGraphic" in2="effect1_backgroundBlur_710_1387" result="shape"/>
</filter>
<filter id="filter4_b_710_1387" x="11.4" y="7.4" width="32.2" height="24.2" filterUnits="userSpaceOnUse" color-interpolation-filters="sRGB">
<feFlood flood-opacity="0" result="BackgroundImageFix"/>
<feGaussianBlur in="BackgroundImageFix" stdDeviation="0.8"/>
<feComposite in2="SourceAlpha" operator="in" result="effect1_backgroundBlur_710_1387"/>
<feBlend mode="normal" in="SourceGraphic" in2="effect1_backgroundBlur_710_1387" result="shape"/>
</filter>
<filter id="filter5_i_710_1387" x="13.0002" y="9" width="46" height="58.8" filterUnits="userSpaceOnUse" color-interpolation-filters="sRGB">
<feFlood flood-opacity="0" result="BackgroundImageFix"/>
<feBlend mode="normal" in="SourceGraphic" in2="BackgroundImageFix" result="shape"/>
<feColorMatrix in="SourceAlpha" type="matrix" values="0 0 0 0 0 0 0 0 0 0 0 0 0 0 0 0 0 0 127 0" result="hardAlpha"/>
<feOffset dy="0.8"/>
<feGaussianBlur stdDeviation="8"/>
<feComposite in2="hardAlpha" operator="arithmetic" k2="-1" k3="1"/>
<feColorMatrix type="matrix" values="0 0 0 0 0 0 0 0 0 0.76 0 0 0 0 1 0 0 0 0.25 0"/>
<feBlend mode="normal" in2="shape" result="effect1_innerShadow_710_1387"/>
</filter>
<filter id="filter6_i_710_1387" x="19" y="12" width="47" height="58.8" filterUnits="userSpaceOnUse" color-interpolation-filters="sRGB">
<feFlood flood-opacity="0" result="BackgroundImageFix"/>
<feBlend mode="normal" in="SourceGraphic" in2="BackgroundImageFix" result="shape"/>
<feColorMatrix in="SourceAlpha" type="matrix" values="0 0 0 0 0 0 0 0 0 0 0 0 0 0 0 0 0 0 127 0" result="hardAlpha"/>
<feOffset dy="0.8"/>
<feGaussianBlur stdDeviation="15"/>
<feComposite in2="hardAlpha" operator="arithmetic" k2="-1" k3="1"/>
<feColorMatrix type="matrix" values="0 0 0 0 0 0 0 0 0 0.76 0 0 0 0 1 0 0 0 0.4 0"/>
<feBlend mode="normal" in2="shape" result="effect1_innerShadow_710_1387"/>
</filter>
<filter id="filter7_f_710_1387" x="23" y="19" width="35.9718" height="37.1741" filterUnits="userSpaceOnUse" color-interpolation-filters="sRGB">
<feFlood flood-opacity="0" result="BackgroundImageFix"/>
<feBlend mode="normal" in="SourceGraphic" in2="BackgroundImageFix" result="shape"/>
<feGaussianBlur stdDeviation="3" result="effect1_foregroundBlur_710_1387"/>
</filter>
<filter id="filter8_d_710_1387" x="23.5273" y="26.29" width="35.0441" height="34.8467" filterUnits="userSpaceOnUse" color-interpolation-filters="sRGB">
<feFlood flood-opacity="0" result="BackgroundImageFix"/>
<feColorMatrix in="SourceAlpha" type="matrix" values="0 0 0 0 0 0 0 0 0 0 0 0 0 0 0 0 0 0 127 0" result="hardAlpha"/>
<feOffset dx="-3" dy="3"/>
<feGaussianBlur stdDeviation="2"/>
<feComposite in2="hardAlpha" operator="out"/>
<feColorMatrix type="matrix" values="0 0 0 0 0.0784314 0 0 0 0 0.12549 0 0 0 0 0.337255 0 0 0 0.8 0"/>
<feBlend mode="normal" in2="BackgroundImageFix" result="effect1_dropShadow_710_1387"/>
<feBlend mode="normal" in="SourceGraphic" in2="effect1_dropShadow_710_1387" result="shape"/>
</filter>
<filter id="filter9_b_710_1387" x="39.7415" y="39.0061" width="7.72235" height="16.4106" filterUnits="userSpaceOnUse" color-interpolation-filters="sRGB">
<feFlood flood-opacity="0" result="BackgroundImageFix"/>
<feGaussianBlur in="BackgroundImageFix" stdDeviation="0.64"/>
<feComposite in2="SourceAlpha" operator="in" result="effect1_backgroundBlur_710_1387"/>
<feBlend mode="normal" in="SourceGraphic" in2="effect1_backgroundBlur_710_1387" result="shape"/>
</filter>
<filter id="filter10_b_710_1387" x="37.8196" y="27.6175" width="5.65332" height="15.3296" filterUnits="userSpaceOnUse" color-interpolation-filters="sRGB">
<feFlood flood-opacity="0" result="BackgroundImageFix"/>
<feGaussianBlur in="BackgroundImageFix" stdDeviation="0.64"/>
<feComposite in2="SourceAlpha" operator="in" result="effect1_backgroundBlur_710_1387"/>
<feBlend mode="normal" in="SourceGraphic" in2="effect1_backgroundBlur_710_1387" result="shape"/>
</filter>
<filter id="filter11_b_710_1387" x="37.8411" y="27.5296" width="9.15912" height="4.52277" filterUnits="userSpaceOnUse" color-interpolation-filters="sRGB">
<feFlood flood-opacity="0" result="BackgroundImageFix"/>
<feGaussianBlur in="BackgroundImageFix" stdDeviation="0.64"/>
<feComposite in2="SourceAlpha" operator="in" result="effect1_backgroundBlur_710_1387"/>
<feBlend mode="normal" in="SourceGraphic" in2="effect1_backgroundBlur_710_1387" result="shape"/>
</filter>
<filter id="filter12_b_710_1387" x="41.3684" y="27.8217" width="7.54303" height="4.94434" filterUnits="userSpaceOnUse" color-interpolation-filters="sRGB">
<feFlood flood-opacity="0" result="BackgroundImageFix"/>
<feGaussianBlur in="BackgroundImageFix" stdDeviation="0.64"/>
<feComposite in2="SourceAlpha" operator="in" result="effect1_backgroundBlur_710_1387"/>
<feBlend mode="normal" in="SourceGraphic" in2="effect1_backgroundBlur_710_1387" result="shape"/>
</filter>
<filter id="filter13_b_710_1387" x="43.2796" y="28.5354" width="6.03882" height="4.44159" filterUnits="userSpaceOnUse" color-interpolation-filters="sRGB">
<feFlood flood-opacity="0" result="BackgroundImageFix"/>
<feGaussianBlur in="BackgroundImageFix" stdDeviation="0.64"/>
<feComposite in2="SourceAlpha" operator="in" result="effect1_backgroundBlur_710_1387"/>
<feBlend mode="normal" in="SourceGraphic" in2="effect1_backgroundBlur_710_1387" result="shape"/>
</filter>
<filter id="filter14_b_710_1387" x="29.2473" y="38.0723" width="5.63849" height="7.92987" filterUnits="userSpaceOnUse" color-interpolation-filters="sRGB">
<feFlood flood-opacity="0" result="BackgroundImageFix"/>
<feGaussianBlur in="BackgroundImageFix" stdDeviation="0.64"/>
<feComposite in2="SourceAlpha" operator="in" result="effect1_backgroundBlur_710_1387"/>
<feBlend mode="normal" in="SourceGraphic" in2="effect1_backgroundBlur_710_1387" result="shape"/>
</filter>
<filter id="filter15_b_710_1387" x="29.2542" y="37.5911" width="9.05939" height="4.71253" filterUnits="userSpaceOnUse" color-interpolation-filters="sRGB">
<feFlood flood-opacity="0" result="BackgroundImageFix"/>
<feGaussianBlur in="BackgroundImageFix" stdDeviation="0.64"/>
<feComposite in2="SourceAlpha" operator="in" result="effect1_backgroundBlur_710_1387"/>
<feBlend mode="normal" in="SourceGraphic" in2="effect1_backgroundBlur_710_1387" result="shape"/>
</filter>
<filter id="filter16_b_710_1387" x="32.6819" y="30.1897" width="5.64527" height="11.6311" filterUnits="userSpaceOnUse" color-interpolation-filters="sRGB">
<feFlood flood-opacity="0" result="BackgroundImageFix"/>
<feGaussianBlur in="BackgroundImageFix" stdDeviation="0.64"/>
<feComposite in2="SourceAlpha" operator="in" result="effect1_backgroundBlur_710_1387"/>
<feBlend mode="normal" in="SourceGraphic" in2="effect1_backgroundBlur_710_1387" result="shape"/>
</filter>
<filter id="filter17_b_710_1387" x="29.2679" y="26.9739" width="5.63849" height="7.92987" filterUnits="userSpaceOnUse" color-interpolation-filters="sRGB">
<feFlood flood-opacity="0" result="BackgroundImageFix"/>
<feGaussianBlur in="BackgroundImageFix" stdDeviation="0.64"/>
<feComposite in2="SourceAlpha" operator="in" result="effect1_backgroundBlur_710_1387"/>
<feBlend mode="normal" in="SourceGraphic" in2="effect1_backgroundBlur_710_1387" result="shape"/>
</filter>
<filter id="filter18_b_710_1387" x="29.2737" y="26.01" width="12.487" height="5.19507" filterUnits="userSpaceOnUse" color-interpolation-filters="sRGB">
<feFlood flood-opacity="0" result="BackgroundImageFix"/>
<feGaussianBlur in="BackgroundImageFix" stdDeviation="0.64"/>
<feComposite in2="SourceAlpha" operator="in" result="effect1_backgroundBlur_710_1387"/>
<feBlend mode="normal" in="SourceGraphic" in2="effect1_backgroundBlur_710_1387" result="shape"/>
</filter>
<linearGradient id="paint0_linear_710_1387" x1="46.8957" y1="77.473" x2="45.8513" y2="69.8638" gradientUnits="userSpaceOnUse">
<stop stop-color="#3CEAF1"/>
<stop offset="1" stop-color="#3CF16F"/>
</linearGradient>
<linearGradient id="paint1_linear_710_1387" x1="35.6743" y1="70.234" x2="36.72" y2="73.2373" gradientUnits="userSpaceOnUse">
<stop stop-color="white"/>
<stop offset="1" stop-color="white" stop-opacity="0"/>
</linearGradient>
<linearGradient id="paint2_linear_710_1387" x1="73.5" y1="53" x2="73.5" y2="69.5" gradientUnits="userSpaceOnUse">
<stop stop-color="white"/>
<stop offset="0.362732" stop-color="#3CEAF1" stop-opacity="0.79"/>
<stop offset="1" stop-color="#3CEAF1" stop-opacity="0"/>
</linearGradient>
<radialGradient id="paint3_radial_710_1387" cx="0" cy="0" r="1" gradientUnits="userSpaceOnUse" gradientTransform="translate(76.325 50.4594) rotate(129.806) scale(3.1241 3.123)">
<stop stop-color="#FFFCB3"/>
<stop offset="1" stop-color="#09AB37"/>
</radialGradient>
<linearGradient id="paint4_linear_710_1387" x1="61.961" y1="21.8898" x2="61.961" y2="50.2361" gradientUnits="userSpaceOnUse">
<stop offset="0.333333" stop-color="#0066FF" stop-opacity="0.1"/>
<stop offset="0.85857" stop-color="#00FFFF" stop-opacity="0.4"/>
<stop offset="1" stop-color="#CEFFE5" stop-opacity="0.6"/>
</linearGradient>
<linearGradient id="paint5_linear_710_1387" x1="50.3117" y1="50.2402" x2="50.3117" y2="68.8425" gradientUnits="userSpaceOnUse">
<stop offset="0.333333" stop-color="#0066FF" stop-opacity="0.1"/>
<stop offset="0.85857" stop-color="#00FFFF" stop-opacity="0.4"/>
<stop offset="1" stop-color="#CEFFE5" stop-opacity="0.6"/>
</linearGradient>
<linearGradient id="paint6_linear_710_1387" x1="15.961" y1="27.9488" x2="15.961" y2="57.181" gradientUnits="userSpaceOnUse">
<stop stop-color="#CEFFE5" stop-opacity="0.6"/>
<stop offset="0.47452" stop-color="#00FFFF" stop-opacity="0.27"/>
<stop offset="0.914376" stop-color="#0066FF" stop-opacity="0.1"/>
</linearGradient>
<linearGradient id="paint7_linear_710_1387" x1="27.3117" y1="10.2402" x2="27.3117" y2="28.8425" gradientUnits="userSpaceOnUse">
<stop offset="0.333333" stop-color="#0066FF" stop-opacity="0.1"/>
<stop offset="0.85857" stop-color="#00FFFF" stop-opacity="0.4"/>
<stop offset="1" stop-color="#CEFFE5" stop-opacity="0.6"/>
</linearGradient>
<linearGradient id="paint8_linear_710_1387" x1="13.142" y1="29.4514" x2="58.4034" y2="57.5478" gradientUnits="userSpaceOnUse">
<stop stop-color="white"/>
<stop offset="0.153274" stop-color="#8AA8F5"/>
<stop offset="0.336377" stop-color="white" stop-opacity="0"/>
<stop offset="0.639716" stop-color="white" stop-opacity="0"/>
<stop offset="0.838542" stop-color="#8AA8F5" stop-opacity="0"/>
<stop offset="1" stop-color="white" stop-opacity="0"/>
</linearGradient>
<linearGradient id="paint9_linear_710_1387" x1="19.7789" y1="29.8965" x2="56.8007" y2="63.8488" gradientUnits="userSpaceOnUse">
<stop stop-color="white"/>
<stop offset="0.153274" stop-color="#8AA8F5"/>
<stop offset="0.336377" stop-color="white" stop-opacity="0"/>
<stop offset="0.639716" stop-color="white" stop-opacity="0"/>
<stop offset="0.838542" stop-color="#8AA8F5"/>
<stop offset="1" stop-color="white"/>
</linearGradient>
<radialGradient id="paint10_radial_710_1387" cx="0" cy="0" r="1" gradientUnits="userSpaceOnUse" gradientTransform="translate(56.6866 61.7566) rotate(-123.724) scale(39.2175 30.2664)">
<stop stop-color="white" stop-opacity="0.89"/>
<stop offset="0.16458" stop-color="#3CEAF1" stop-opacity="0.743523"/>
<stop offset="1" stop-color="#3C7DFA" stop-opacity="0"/>
</radialGradient>
<linearGradient id="paint11_linear_710_1387" x1="46.8955" y1="48.2788" x2="34.4293" y2="28.0997" gradientUnits="userSpaceOnUse">
<stop stop-color="#3CEAF1"/>
<stop offset="1" stop-color="#3CF16F"/>
</linearGradient>
<linearGradient id="paint12_linear_710_1387" x1="46.8955" y1="48.2788" x2="34.4293" y2="28.0997" gradientUnits="userSpaceOnUse">
<stop stop-color="#3CEAF1"/>
<stop offset="1" stop-color="#3CF16F"/>
</linearGradient>
<linearGradient id="paint13_linear_710_1387" x1="37.9289" y1="22.2451" x2="43.4204" y2="25.7492" gradientUnits="userSpaceOnUse">
<stop stop-color="white"/>
<stop offset="1" stop-color="white" stop-opacity="0"/>
</linearGradient>
<radialGradient id="paint14_radial_710_1387" cx="0" cy="0" r="1" gradientUnits="userSpaceOnUse" gradientTransform="translate(45.0162 19.6792) rotate(95.361) scale(34.9825 14.3609)">
<stop offset="0.333333" stop-color="#FFC700" stop-opacity="0.54"/>
<stop offset="0.802083" stop-color="#3CEAF1" stop-opacity="0.58"/>
<stop offset="0.921875" stop-color="#2363C2"/>
<stop offset="1" stop-color="#18D3C4"/>
</radialGradient>
<radialGradient id="paint15_radial_710_1387" cx="0" cy="0" r="1" gradientUnits="userSpaceOnUse" gradientTransform="translate(41.4933 9.89879) rotate(93.4902) scale(32.1709 8.62695)">
<stop offset="0.333333" stop-color="#FFC700" stop-opacity="0.54"/>
<stop offset="0.802083" stop-color="#3CEAF1" stop-opacity="0.58"/>
<stop offset="0.921875" stop-color="#2363C2"/>
<stop offset="1" stop-color="#18D3C4"/>
</radialGradient>
<radialGradient id="paint16_radial_710_1387" cx="0" cy="0" r="1" gradientUnits="userSpaceOnUse" gradientTransform="translate(44.2276 25.8893) rotate(130.248) scale(6.46666 14.0732)">
<stop offset="0.333333" stop-color="#FFC700" stop-opacity="0.54"/>
<stop offset="0.802083" stop-color="#3CEAF1" stop-opacity="0.58"/>
<stop offset="0.921875" stop-color="#2363C2"/>
<stop offset="1" stop-color="#18D3C4"/>
</radialGradient>
<radialGradient id="paint17_radial_710_1387" cx="0" cy="0" r="1" gradientUnits="userSpaceOnUse" gradientTransform="translate(46.5043 25.5543) rotate(117.752) scale(6.77522 12.3213)">
<stop offset="0.333333" stop-color="#FFC700" stop-opacity="0.54"/>
<stop offset="0.802083" stop-color="#3CEAF1" stop-opacity="0.58"/>
<stop offset="0.921875" stop-color="#2363C2"/>
<stop offset="1" stop-color="#18D3C4"/>
</radialGradient>
<radialGradient id="paint18_radial_710_1387" cx="0" cy="0" r="1" gradientUnits="userSpaceOnUse" gradientTransform="translate(47.2516 27.016) rotate(114.962) scale(5.21912 8.81211)">
<stop offset="0.333333" stop-color="#FFC700" stop-opacity="0.54"/>
<stop offset="0.802083" stop-color="#3CEAF1" stop-opacity="0.58"/>
<stop offset="0.921875" stop-color="#2363C2"/>
<stop offset="1" stop-color="#18D3C4"/>
</radialGradient>
<radialGradient id="paint19_radial_710_1387" cx="0" cy="0" r="1" gradientUnits="userSpaceOnUse" gradientTransform="translate(32.9096 31.363) rotate(98.2134) scale(13.6433 8.51333)">
<stop offset="0.333333" stop-color="#FFC700" stop-opacity="0.54"/>
<stop offset="0.802083" stop-color="#3CEAF1" stop-opacity="0.58"/>
<stop offset="0.921875" stop-color="#2363C2"/>
<stop offset="1" stop-color="#18D3C4"/>
</radialGradient>
<radialGradient id="paint20_radial_710_1387" cx="0" cy="0" r="1" gradientUnits="userSpaceOnUse" gradientTransform="translate(35.5635 35.6686) rotate(127.242) scale(6.79939 14.4566)">
<stop offset="0.333333" stop-color="#FFC700" stop-opacity="0.54"/>
<stop offset="0.802083" stop-color="#3CEAF1" stop-opacity="0.58"/>
<stop offset="0.921875" stop-color="#2363C2"/>
<stop offset="1" stop-color="#18D3C4"/>
</radialGradient>
<radialGradient id="paint21_radial_710_1387" cx="0" cy="0" r="1" gradientUnits="userSpaceOnUse" gradientTransform="translate(36.3493 17.9737) rotate(94.8945) scale(22.8942 8.58895)">
<stop offset="0.333333" stop-color="#FFC700" stop-opacity="0.54"/>
<stop offset="0.802083" stop-color="#3CEAF1" stop-opacity="0.58"/>
<stop offset="0.921875" stop-color="#2363C2"/>
<stop offset="1" stop-color="#18D3C4"/>
</radialGradient>
<linearGradient id="paint22_linear_710_1387" x1="51.4951" y1="52.2398" x2="39.2012" y2="34.8137" gradientUnits="userSpaceOnUse">
<stop stop-color="#0051AF"/>
<stop offset="0.782318" stop-color="#42FF77"/>
<stop offset="1" stop-color="#D9FFE3"/>
</linearGradient>
<linearGradient id="paint23_linear_710_1387" x1="42.5285" y1="26.2061" x2="48.0201" y2="29.7101" gradientUnits="userSpaceOnUse">
<stop stop-color="white"/>
<stop offset="1" stop-color="white" stop-opacity="0"/>
</linearGradient>
<radialGradient id="paint24_radial_710_1387" cx="0" cy="0" r="1" gradientUnits="userSpaceOnUse" gradientTransform="translate(55.0748 57.7625) rotate(-116.545) scale(17.9164 16.3719)">
<stop stop-color="#DCA3FF"/>
<stop offset="1" stop-color="#DCA3FF" stop-opacity="0"/>
</radialGradient>
<radialGradient id="paint25_radial_710_1387" cx="0" cy="0" r="1" gradientUnits="userSpaceOnUse" gradientTransform="translate(55.0748 57.7625) rotate(-116.545) scale(17.9164 16.3719)">
<stop stop-color="#DCA3FF"/>
<stop offset="1" stop-color="#DCA3FF" stop-opacity="0"/>
</radialGradient>
<radialGradient id="paint26_radial_710_1387" cx="0" cy="0" r="1" gradientUnits="userSpaceOnUse" gradientTransform="translate(32.9301 20.2646) rotate(98.2134) scale(13.6433 8.51333)">
<stop offset="0.333333" stop-color="#FFC700" stop-opacity="0.54"/>
<stop offset="0.802083" stop-color="#3CEAF1" stop-opacity="0.58"/>
<stop offset="0.921875" stop-color="#2363C2"/>
<stop offset="1" stop-color="#18D3C4"/>
</radialGradient>
<radialGradient id="paint27_radial_710_1387" cx="0" cy="0" r="1" gradientUnits="userSpaceOnUse" gradientTransform="translate(38.2354 23.3696) rotate(133.486) scale(9.13286 20.1241)">
<stop offset="0.333333" stop-color="#FFC700" stop-opacity="0.54"/>
<stop offset="0.802083" stop-color="#3CEAF1" stop-opacity="0.58"/>
<stop offset="0.921875" stop-color="#2363C2"/>
<stop offset="1" stop-color="#18D3C4"/>
</radialGradient>
<linearGradient id="paint28_linear_710_1387" x1="53.4489" y1="59.6508" x2="46.4003" y2="35.1521" gradientUnits="userSpaceOnUse">
<stop stop-color="white"/>
<stop offset="0.617643" stop-color="#3CEAF1" stop-opacity="0.79"/>
<stop offset="1" stop-color="#3CEAF1" stop-opacity="0.44"/>
</linearGradient>
<radialGradient id="paint29_radial_710_1387" cx="0" cy="0" r="1" gradientUnits="userSpaceOnUse" gradientTransform="translate(16.7811 70.0502) rotate(129.806) scale(3.1241 3.123)">
<stop stop-color="#FFFCB3"/>
<stop offset="1" stop-color="#09AB37"/>
</radialGradient>
</defs>
</svg>
