<svg width="80" height="84" viewBox="0 0 80 84" fill="none" xmlns="http://www.w3.org/2000/svg">
<path d="M42.3802 15.0544L37.2655 12.2715C37.6639 12.4881 38.1441 12.7394 38.6985 13.0121L43.8143 15.795C43.2599 15.5223 42.7797 15.271 42.3802 15.0544Z" fill="#3C3C3C"/>
<g filter="url(#filter0_b_710_1723)">
<path d="M35.6659 11.5283L40.7806 14.3112L40.8864 14.2005L43.8148 15.7934C46.1451 16.9359 48.566 17.8836 51.0525 18.6268C51.3608 18.7211 51.6645 18.8057 51.9637 18.8805L51.9637 18.8782C57.2702 20.255 62.0819 19.8253 63.0335 19.722L57.9177 16.9391C56.9661 17.0424 52.1544 17.4722 46.8489 16.0953L51.9637 18.8805L46.849 16.0975C46.546 16.0201 46.2419 15.9348 45.9379 15.8451C43.6068 15.1481 41.3336 14.2715 39.1385 13.2233L35.7882 11.4004L35.6659 11.5283Z" fill="url(#paint0_linear_710_1723)"/>
</g>
<g filter="url(#filter1_b_710_1723)">
<path d="M30.0394 15.9158L30.0362 15.9141C31.9936 14.5574 33.8735 13.0922 35.6671 11.5254L40.7829 14.3083C38.989 15.8738 37.1091 17.3379 35.152 18.6939L35.1577 18.697C33.7236 19.6889 32.2574 20.6143 30.759 21.4731C29.8197 22.0162 28.8906 22.4965 27.9906 22.9207H27.985L22.8748 20.1378C23.7725 19.7136 24.705 19.2333 25.6431 18.6914C27.1385 17.8338 28.6039 16.9086 30.0394 15.9158Z" fill="url(#paint1_linear_710_1723)"/>
<path d="M18.7611 25.9337L13.6464 23.1508C13.845 23.1239 17.9318 22.4663 22.8692 20.1379L27.985 22.9207C23.0476 25.2491 18.9597 25.9057 18.7611 25.9337Z" fill="url(#paint2_linear_710_1723)"/>
</g>
<g filter="url(#filter2_b_710_1723)">
<path d="M13.4003 47.5475L18.5162 50.3304L18.561 25.9733L13.4452 23.1904L13.4003 47.5475Z" fill="url(#paint3_linear_710_1723)"/>
<path d="M27.2151 67.3444L32.1869 70.049C30.2709 68.9914 28.4839 67.7153 26.8616 66.2459C21.5438 61.4992 18.5039 55.7023 18.514 50.3306L13.3993 47.5477C13.3892 52.9149 16.4325 58.7163 21.7469 63.463C23.409 64.9693 25.2447 66.2724 27.2151 67.3444Z" fill="url(#paint4_linear_710_1723)"/>
</g>
<g filter="url(#filter3_f_710_1723)">
<ellipse cx="39.5" cy="74.5" rx="15" ry="3.5" fill="url(#paint5_linear_710_1723)" fill-opacity="0.5"/>
<path d="M54.34 74.5C54.34 74.6921 54.2573 74.892 54.075 75.0999C53.8917 75.3088 53.6143 75.518 53.2439 75.7223C52.5034 76.1308 51.4212 76.5038 50.0702 76.8191C47.3709 77.4489 43.6336 77.84 39.5 77.84C35.3664 77.84 31.6291 77.4489 28.9298 76.8191C27.5788 76.5038 26.4966 76.1308 25.7561 75.7223C25.3857 75.518 25.1083 75.3088 24.925 75.0999C24.7427 74.892 24.66 74.6921 24.66 74.5C24.66 74.3079 24.7427 74.108 24.925 73.9001C25.1083 73.6912 25.3857 73.482 25.7561 73.2777C26.4966 72.8692 27.5788 72.4962 28.9298 72.1809C31.6291 71.5511 35.3664 71.16 39.5 71.16C43.6336 71.16 47.3709 71.5511 50.0702 72.1809C51.4212 72.4962 52.5034 72.8692 53.2439 73.2777C53.6143 73.482 53.8917 73.6912 54.075 73.9001C54.2573 74.108 54.34 74.3079 54.34 74.5Z" stroke="url(#paint6_linear_710_1723)" stroke-width="0.32"/>
</g>
<g filter="url(#filter4_i_710_1723)">
<path d="M35.7882 11.4004L35.915 11.4868C36.329 11.7494 40.1645 14.1182 45.9379 15.844C51.5946 17.5272 56.9124 17.0515 57.9189 16.9415L58.1041 16.9202L58.0727 41.2806C58.0727 46.6411 55.007 53.2964 49.6712 59.5434C44.9583 65.0508 39.3476 69.0939 35.6939 69.6067C34.0006 69.8457 31.7238 69.4024 29.2854 68.3645C26.527 67.1441 23.9819 65.4897 21.7469 63.4641C16.4336 58.7175 13.3892 52.916 13.3993 47.5489L13.4453 23.1918L13.6395 23.1536C13.874 23.1211 19.5453 22.2088 25.6317 18.6931C29.2036 16.6402 32.5645 14.2403 35.6659 11.5283L35.7882 11.4004Z" fill="white" fill-opacity="0.01"/>
</g>
<path d="M25.7115 18.8318C19.6355 22.3414 13.9721 23.2675 13.6661 23.3115L13.6051 23.3235L13.5593 47.5492C13.5493 52.8569 16.5624 58.618 21.8535 63.3448L21.8543 63.3455C24.0764 65.3594 26.6067 67.0043 29.3491 68.2177C31.774 69.2498 34.0191 69.6815 35.6715 69.4482L35.6717 69.4482C37.4601 69.1972 39.7507 68.0762 42.1918 66.3182C44.6288 64.5632 47.2005 62.1845 49.5497 59.4393C54.8733 53.2065 57.9127 46.5871 57.9127 41.2806V41.2804L57.9438 17.0997L57.9372 17.1004L57.9363 17.1006C56.9219 17.2114 51.5791 17.6896 45.8923 15.9974L45.8921 15.9973C40.1001 14.2659 36.251 11.8893 35.8293 11.6219L35.8248 11.6191L35.8249 11.619L35.8101 11.609L35.7815 11.6389L35.7766 11.6441L35.7712 11.6488C32.662 14.3677 29.2925 16.7736 25.7115 18.8318ZM25.7115 18.8318C25.7115 18.8318 25.7115 18.8319 25.7114 18.8319L25.6317 18.6931L25.7117 18.8317C25.7117 18.8317 25.7116 18.8318 25.7115 18.8318Z" stroke="url(#paint7_linear_710_1723)" stroke-width="0.32"/>
<g filter="url(#filter5_i_710_1723)">
<path d="M40.9883 14.2012L41.1151 14.2876C41.5292 14.5502 45.3647 16.919 51.1381 18.6448C56.7947 20.328 62.1125 19.8522 63.1191 19.7423L63.3042 19.721L63.2728 44.0814C63.2728 49.4418 60.2071 56.0972 54.8714 62.3441C50.1584 67.8516 44.5478 71.8946 40.8941 72.4075C39.2008 72.6465 36.924 72.2032 34.4856 71.1652C31.7271 69.9449 29.182 68.2905 26.9471 66.2649C21.6337 61.5182 18.5894 55.7168 18.5995 50.3496L18.6455 25.9926L18.8396 25.9544C19.0742 25.9219 24.7454 25.0096 30.8319 21.4939C34.4038 19.441 37.7647 17.0411 40.866 14.3291L40.9883 14.2012Z" fill="#0047FF" fill-opacity="0.2"/>
</g>
<path d="M30.9117 21.6326C24.8356 25.1422 19.1722 26.0683 18.8663 26.1122L18.8053 26.1242L18.7595 50.3499C18.7495 55.6577 21.7626 61.4188 27.0536 66.1456L27.0545 66.1463C29.2766 68.1602 31.8069 69.8051 34.5493 71.0185C36.9742 72.0505 39.2193 72.4823 40.8717 72.249L40.8718 72.249C42.6602 71.998 44.9509 70.8769 47.392 69.1189C49.829 67.364 52.4006 64.9854 54.7497 62.2402C60.0734 56.0074 63.1128 49.3879 63.1128 44.0814V44.0812L63.144 19.9005L63.1374 19.9012L63.1365 19.9013C62.122 20.0122 56.7793 20.4904 51.0924 18.7982L51.0922 18.7981C45.3003 17.0667 41.4512 14.6901 41.0294 14.4227L41.025 14.4199L41.025 14.4198L41.0103 14.4097L40.9817 14.4397L40.9767 14.4448L40.9713 14.4495C37.8622 17.1684 34.4927 19.5744 30.9117 21.6326ZM30.9117 21.6326C30.9117 21.6326 30.9116 21.6326 30.9116 21.6326L30.8319 21.4939L30.9119 21.6325C30.9118 21.6325 30.9118 21.6326 30.9117 21.6326Z" stroke="url(#paint8_linear_710_1723)" stroke-width="0.32"/>
<path d="M40.9883 14.2012L41.1151 14.2876C41.5292 14.5502 45.3647 16.919 51.1381 18.6448C56.7947 20.328 62.1125 19.8522 63.1191 19.7423L63.3042 19.721L63.2728 44.0814C63.2728 49.4418 60.2071 56.0972 54.8714 62.3441C50.1584 67.8516 44.5478 71.8946 40.8941 72.4075C39.2008 72.6465 36.924 72.2032 34.4856 71.1652C31.7271 69.9449 29.182 68.2905 26.9471 66.2649C21.6337 61.5182 18.5894 55.7168 18.5995 50.3496L18.6455 25.9926L18.8396 25.9544C19.0742 25.9219 24.7454 25.0096 30.8319 21.4939C34.4038 19.441 37.7647 17.0411 40.866 14.3291L40.9883 14.2012Z" fill="url(#paint9_radial_710_1723)"/>
<g filter="url(#filter6_f_710_1723)">
<path d="M26.0356 31.069L47.869 28L47.8315 48.0336L44.5638 48.4929L44.5694 45.0359L29.2733 47.1862L29.2677 50.6433L26 51.1026L26.0375 31.069H26.0356ZM44.5882 34.6629L44.5957 30.5947L29.2996 32.745L29.2921 36.8132L44.5882 34.6629ZM42.1004 42.6381L42.1097 37.7562L40.8068 37.9399L40.7974 42.8218L42.1004 42.6381ZM33.0547 43.9091L33.0641 39.0273L31.763 39.211L31.7536 44.0929L33.0547 43.9091ZM37.5785 43.2736L37.5878 38.3918L36.2868 38.5755L36.2774 43.4573L37.5785 43.2736Z" fill="url(#paint10_linear_710_1723)" fill-opacity="0.7"/>
<path d="M47.6717 47.8945L44.7241 48.3088L44.7294 45.0361L44.7297 44.8518L44.5471 44.8774L29.251 47.0278L29.1135 47.0471L29.1133 47.186L29.1079 50.5041L26.1603 50.9185L26.1972 31.2078L47.7086 28.1841L47.6717 47.8945ZM44.6104 34.8213L44.7479 34.802L44.7482 34.6632L44.7557 30.595L44.756 30.4105L44.5734 30.4362L29.2773 32.5866L29.1398 32.6059L29.1396 32.7447L29.1321 36.8129L29.1317 36.9973L29.3143 36.9717L44.6104 34.8213ZM42.1227 42.7965L42.2601 42.7771L42.2604 42.6384L42.2697 37.7565L42.2701 37.572L42.0874 37.5978L40.7845 37.7815L40.6471 37.8009L40.6468 37.9396L40.6374 42.8215L40.6371 43.006L40.8198 42.9802L42.1227 42.7965ZM33.0771 44.0676L33.2144 44.0482L33.2147 43.9095L33.2241 39.0276L33.2244 38.8431L33.0417 38.8689L31.7406 39.0526L31.6033 39.072L31.603 39.2107L31.5936 44.0926L31.5933 44.2771L31.776 44.2513L33.0771 44.0676ZM37.6008 43.432L37.7382 43.4126L37.7385 43.2739L37.7478 38.3921L37.7482 38.2075L37.5655 38.2333L36.2644 38.417L36.127 38.4364L36.1268 38.5752L36.1174 43.457L36.117 43.6416L36.2998 43.6158L37.6008 43.432Z" stroke="url(#paint11_linear_710_1723)" stroke-width="0.32"/>
</g>
<g filter="url(#filter7_d_710_1723)">
<path fill-rule="evenodd" clip-rule="evenodd" d="M30.4435 33.2711L34.7161 35.5958L34.7182 35.5955L34.712 38.8716L34.7102 38.8718L34.7163 35.5962L30.4437 33.2715L30.4062 53.3051L34.6788 55.6298L34.7089 39.5625L34.7107 39.5635L34.6807 55.6289L37.9484 55.1696L37.954 51.7126L48.9709 50.1638L48.9697 50.6943L53.2442 53.019L53.2498 49.5623L53.2501 49.5622L53.2445 53.0193L56.5122 52.56L56.5496 32.5264L56.5488 32.5265L52.275 30.2021L30.4435 33.2711ZM37.9802 37.2714L48.9982 35.7224L48.9961 36.8651L53.2688 39.1889V39.1889L48.9963 36.8652L37.9781 38.4128L37.9802 37.2714ZM37.9727 41.3384L37.9727 41.3396L41.9938 40.7743L41.9938 40.7737L37.9728 41.3384L37.9727 41.3384ZM42.258 40.7371L46.4222 40.1517L42.2572 40.7367L42.258 40.7371ZM50.7897 42.2827L50.7871 44.0155L50.7904 42.2826L50.7897 42.2827ZM46.2685 42.9181L46.2685 42.9183L46.2683 42.9182L46.2685 42.9181ZM46.2589 47.8L44.9598 47.0932V47.0933L46.2587 47.8L46.2589 47.8ZM41.7447 43.5537L41.741 45.5102L41.7409 45.5102L41.7446 43.5543L41.7437 43.5538L41.7447 43.5537ZM41.7396 46.2339L41.7395 46.2338L41.7353 48.4355L41.7354 48.4355L41.7396 46.2339Z" fill="#3EAF6A" fill-opacity="0.01" shape-rendering="crispEdges"/>
</g>
<g filter="url(#filter8_b_710_1723)">
<path d="M53.2442 53.019L48.9697 50.6943L48.9772 47.2373L53.2498 49.562L53.2442 53.019Z" fill="url(#paint12_radial_710_1723)"/>
</g>
<path d="M49.4776 47.3483L45.2051 45.0236L46.508 44.8398L50.7825 47.1645L49.4776 47.3483Z" fill="#266DC1"/>
<path d="M50.7822 47.1646L46.5078 44.8399L46.5172 39.958L50.7897 42.2827L50.7822 47.1646Z" fill="#409387"/>
<path d="M53.2705 39.1898L48.9961 36.8651L49.0036 32.7969L53.278 35.1216L53.2705 39.1898Z" fill="#266DC1"/>
<path d="M44.9562 47.984L40.6836 45.6593L41.9865 45.4756L46.2591 47.8003L44.9562 47.984Z" fill="#409387"/>
<path d="M46.2591 47.8001L41.9866 45.4754L41.9941 40.5936L46.2685 42.9183L46.2591 47.8001Z" fill="#266DC1"/>
<path d="M40.4346 48.6197L36.1602 46.2951L37.4631 46.1113L41.7357 48.436L40.4346 48.6197Z" fill="#409387"/>
<path d="M41.7352 48.4362L37.4626 46.1115L37.472 41.2296L41.7446 43.5543L41.7352 48.4362Z" fill="#266DC1"/>
<g filter="url(#filter9_b_710_1723)">
<path d="M37.9728 41.3384L33.7002 39.0137L48.9963 36.8652L53.2707 39.1899L37.9728 41.3384Z" fill="url(#paint13_radial_710_1723)"/>
</g>
<g filter="url(#filter10_b_710_1723)">
<path d="M34.6788 55.6298L30.4062 53.3051L30.4437 33.2715L34.7163 35.5962L34.6788 55.6298Z" fill="url(#paint14_radial_710_1723)"/>
</g>
<g filter="url(#filter11_b_710_1723)">
<path d="M34.716 35.5958L30.4435 33.2711L52.275 30.2021L56.5494 32.5268L34.716 35.5958Z" fill="url(#paint15_radial_710_1723)"/>
</g>
<path d="M56.2126 52.2991L53.545 52.6741L53.5501 49.5627L53.5506 49.217L53.2083 49.2652L37.9122 51.4155L37.6544 51.4517L37.654 51.7121L37.6488 54.9088L34.9813 55.2837L35.0177 35.8559L56.249 32.8716L56.2126 52.2991ZM53.3106 39.4863L53.5684 39.4501L53.5688 39.1898L53.5763 35.1216L53.577 34.7758L53.2346 34.8239L37.9385 36.9743L37.6807 37.0105L37.6802 37.2708L37.6727 41.339L37.6721 41.6848L38.0145 41.6367L53.3106 39.4863ZM50.8229 47.4615L51.0805 47.4252L51.081 47.165L51.0904 42.2832L51.0911 41.9372L50.7485 41.9855L49.4456 42.1692L49.188 42.2056L49.1875 42.4657L49.1781 47.3476L49.1774 47.6935L49.52 47.6452L50.8229 47.4615ZM41.7773 48.7326L42.0349 48.6962L42.0354 48.4361L42.0447 43.5542L42.0454 43.2082L41.7028 43.2566L40.4017 43.4403L40.1442 43.4767L40.1437 43.7368L40.1343 48.6187L40.1336 48.9647L40.4762 48.9163L41.7773 48.7326ZM46.3011 48.097L46.5586 48.0607L46.5591 47.8005L46.5685 42.9187L46.5692 42.5727L46.2266 42.6211L44.9255 42.8048L44.6679 42.8412L44.6674 43.1013L44.6581 47.9831L44.6574 48.3291L45 48.2808L46.3011 48.097Z" fill="url(#paint16_linear_710_1723)" fill-opacity="0.7" stroke="url(#paint17_linear_710_1723)" stroke-width="0.6"/>
<path d="M34.7163 35.5953L56.5496 32.5264L56.5122 52.56L53.2445 53.0193L53.2501 49.5622L37.954 51.7126L37.9484 55.1696L34.6807 55.6289L34.7182 35.5953H34.7163ZM53.2688 39.1892L53.2763 35.121L37.9802 37.2714L37.9727 41.3396L53.2688 39.1892ZM50.781 47.1644L50.7904 42.2826L49.4875 42.4663L49.4781 47.3482L50.781 47.1644ZM41.7354 48.4355L41.7447 43.5537L40.4437 43.7374L40.4343 48.6192L41.7354 48.4355ZM46.2591 47.8L46.2685 42.9181L44.9674 43.1018L44.9581 47.9837L46.2591 47.8Z" fill="url(#paint18_radial_710_1723)"/>
<path d="M63.3997 22.3618C70.4842 21.947 75.2389 23.57 77.3463 27.3926C81.9923 35.8198 69.2618 51.7463 48.9118 62.9655C28.5619 74.1847 8.2986 76.448 3.65258 68.0208C0.698745 62.663 4.76873 54.2739 13.355 45.9904" stroke="url(#paint19_linear_710_1723)" stroke-width="0.4"/>
<path d="M63.3997 22.3618C70.4842 21.947 75.2389 23.57 77.3463 27.3926C81.9923 35.8198 69.2618 51.7463 48.9118 62.9655C28.5619 74.1847 8.2986 76.448 3.65258 68.0208C0.698745 62.663 4.76873 54.2739 13.355 45.9904" stroke="url(#paint20_linear_710_1723)" stroke-width="0.4"/>
<path d="M16.4664 75.0043C17.5218 75.0043 18.3773 74.1505 18.3773 73.0974C18.3773 72.0442 17.5218 71.1904 16.4664 71.1904C15.4111 71.1904 14.5555 72.0442 14.5555 73.0974C14.5555 74.1505 15.4111 75.0043 16.4664 75.0043Z" fill="url(#paint21_radial_710_1723)"/>
<path d="M75.5 52V70" stroke="url(#paint22_linear_710_1723)" stroke-width="0.4"/>
<path d="M75.4109 52.8139C76.4663 52.8139 77.3218 51.9601 77.3218 50.9069C77.3218 49.8538 76.4663 49 75.4109 49C74.3555 49 73.5 49.8538 73.5 50.9069C73.5 51.9601 74.3555 52.8139 75.4109 52.8139Z" fill="url(#paint23_radial_710_1723)"/>
<path d="M67.5 31V39.5" stroke="url(#paint24_linear_710_1723)" stroke-width="0.4"/>
<path d="M67.5 31C68.0523 31 68.5 30.5523 68.5 30C68.5 29.4477 68.0523 29 67.5 29C66.9477 29 66.5 29.4477 66.5 30C66.5 30.5523 66.9477 31 67.5 31Z" fill="url(#paint25_radial_710_1723)"/>
<path d="M13.7988 23.4004L18.9988 26.2004" stroke="white" stroke-width="0.32"/>
<defs>
<filter id="filter0_b_710_1723" x="34.3859" y="10.1204" width="29.9277" height="11.0265" filterUnits="userSpaceOnUse" color-interpolation-filters="sRGB">
<feFlood flood-opacity="0" result="BackgroundImageFix"/>
<feGaussianBlur in="BackgroundImageFix" stdDeviation="0.64"/>
<feComposite in2="SourceAlpha" operator="in" result="effect1_backgroundBlur_710_1723"/>
<feBlend mode="normal" in="SourceGraphic" in2="effect1_backgroundBlur_710_1723" result="shape"/>
</filter>
<filter id="filter1_b_710_1723" x="12.3664" y="10.2454" width="29.6966" height="16.9683" filterUnits="userSpaceOnUse" color-interpolation-filters="sRGB">
<feFlood flood-opacity="0" result="BackgroundImageFix"/>
<feGaussianBlur in="BackgroundImageFix" stdDeviation="0.64"/>
<feComposite in2="SourceAlpha" operator="in" result="effect1_backgroundBlur_710_1723"/>
<feBlend mode="normal" in="SourceGraphic" in2="effect1_backgroundBlur_710_1723" result="shape"/>
</filter>
<filter id="filter2_b_710_1723" x="12.1193" y="21.9104" width="21.3476" height="49.4186" filterUnits="userSpaceOnUse" color-interpolation-filters="sRGB">
<feFlood flood-opacity="0" result="BackgroundImageFix"/>
<feGaussianBlur in="BackgroundImageFix" stdDeviation="0.64"/>
<feComposite in2="SourceAlpha" operator="in" result="effect1_backgroundBlur_710_1723"/>
<feBlend mode="normal" in="SourceGraphic" in2="effect1_backgroundBlur_710_1723" result="shape"/>
</filter>
<filter id="filter3_f_710_1723" x="18.5" y="65" width="42" height="19" filterUnits="userSpaceOnUse" color-interpolation-filters="sRGB">
<feFlood flood-opacity="0" result="BackgroundImageFix"/>
<feBlend mode="normal" in="SourceGraphic" in2="BackgroundImageFix" result="shape"/>
<feGaussianBlur stdDeviation="3" result="effect1_foregroundBlur_710_1723"/>
</filter>
<filter id="filter4_i_710_1723" x="13.3993" y="11.4004" width="44.7048" height="58.9096" filterUnits="userSpaceOnUse" color-interpolation-filters="sRGB">
<feFlood flood-opacity="0" result="BackgroundImageFix"/>
<feBlend mode="normal" in="SourceGraphic" in2="BackgroundImageFix" result="shape"/>
<feColorMatrix in="SourceAlpha" type="matrix" values="0 0 0 0 0 0 0 0 0 0 0 0 0 0 0 0 0 0 127 0" result="hardAlpha"/>
<feOffset dy="0.64"/>
<feGaussianBlur stdDeviation="6.4"/>
<feComposite in2="hardAlpha" operator="arithmetic" k2="-1" k3="1"/>
<feColorMatrix type="matrix" values="0 0 0 0 0 0 0 0 0 0.76 0 0 0 0 1 0 0 0 0.25 0"/>
<feBlend mode="normal" in2="shape" result="effect1_innerShadow_710_1723"/>
</filter>
<filter id="filter5_i_710_1723" x="18.5995" y="14.2012" width="44.7047" height="58.9096" filterUnits="userSpaceOnUse" color-interpolation-filters="sRGB">
<feFlood flood-opacity="0" result="BackgroundImageFix"/>
<feBlend mode="normal" in="SourceGraphic" in2="BackgroundImageFix" result="shape"/>
<feColorMatrix in="SourceAlpha" type="matrix" values="0 0 0 0 0 0 0 0 0 0 0 0 0 0 0 0 0 0 127 0" result="hardAlpha"/>
<feOffset dy="0.64"/>
<feGaussianBlur stdDeviation="12"/>
<feComposite in2="hardAlpha" operator="arithmetic" k2="-1" k3="1"/>
<feColorMatrix type="matrix" values="0 0 0 0 0 0 0 0 0 0.76 0 0 0 0 1 0 0 0 0.4 0"/>
<feBlend mode="normal" in2="shape" result="effect1_innerShadow_710_1723"/>
</filter>
<filter id="filter6_f_710_1723" x="20" y="22" width="33.869" height="35.1026" filterUnits="userSpaceOnUse" color-interpolation-filters="sRGB">
<feFlood flood-opacity="0" result="BackgroundImageFix"/>
<feBlend mode="normal" in="SourceGraphic" in2="BackgroundImageFix" result="shape"/>
<feGaussianBlur stdDeviation="3" result="effect1_foregroundBlur_710_1723"/>
</filter>
<filter id="filter7_d_710_1723" x="23.4062" y="29.2021" width="34.1434" height="33.4276" filterUnits="userSpaceOnUse" color-interpolation-filters="sRGB">
<feFlood flood-opacity="0" result="BackgroundImageFix"/>
<feColorMatrix in="SourceAlpha" type="matrix" values="0 0 0 0 0 0 0 0 0 0 0 0 0 0 0 0 0 0 127 0" result="hardAlpha"/>
<feOffset dx="-3" dy="3"/>
<feGaussianBlur stdDeviation="2"/>
<feComposite in2="hardAlpha" operator="out"/>
<feColorMatrix type="matrix" values="0 0 0 0 0.0784314 0 0 0 0 0.12549 0 0 0 0 0.337255 0 0 0 0.8 0"/>
<feBlend mode="normal" in2="BackgroundImageFix" result="effect1_dropShadow_710_1723"/>
<feBlend mode="normal" in="SourceGraphic" in2="effect1_dropShadow_710_1723" result="shape"/>
</filter>
<filter id="filter8_b_710_1723" x="47.6897" y="45.9573" width="6.84003" height="8.34174" filterUnits="userSpaceOnUse" color-interpolation-filters="sRGB">
<feFlood flood-opacity="0" result="BackgroundImageFix"/>
<feGaussianBlur in="BackgroundImageFix" stdDeviation="0.64"/>
<feComposite in2="SourceAlpha" operator="in" result="effect1_backgroundBlur_710_1723"/>
<feBlend mode="normal" in="SourceGraphic" in2="effect1_backgroundBlur_710_1723" result="shape"/>
</filter>
<filter id="filter9_b_710_1723" x="32.4202" y="35.5852" width="22.1306" height="7.03314" filterUnits="userSpaceOnUse" color-interpolation-filters="sRGB">
<feFlood flood-opacity="0" result="BackgroundImageFix"/>
<feGaussianBlur in="BackgroundImageFix" stdDeviation="0.64"/>
<feComposite in2="SourceAlpha" operator="in" result="effect1_backgroundBlur_710_1723"/>
<feBlend mode="normal" in="SourceGraphic" in2="effect1_backgroundBlur_710_1723" result="shape"/>
</filter>
<filter id="filter10_b_710_1723" x="29.1262" y="31.9915" width="6.87006" height="24.9183" filterUnits="userSpaceOnUse" color-interpolation-filters="sRGB">
<feFlood flood-opacity="0" result="BackgroundImageFix"/>
<feGaussianBlur in="BackgroundImageFix" stdDeviation="0.64"/>
<feComposite in2="SourceAlpha" operator="in" result="effect1_backgroundBlur_710_1723"/>
<feBlend mode="normal" in="SourceGraphic" in2="effect1_backgroundBlur_710_1723" result="shape"/>
</filter>
<filter id="filter11_b_710_1723" x="29.1635" y="28.9221" width="28.666" height="7.95368" filterUnits="userSpaceOnUse" color-interpolation-filters="sRGB">
<feFlood flood-opacity="0" result="BackgroundImageFix"/>
<feGaussianBlur in="BackgroundImageFix" stdDeviation="0.64"/>
<feComposite in2="SourceAlpha" operator="in" result="effect1_backgroundBlur_710_1723"/>
<feBlend mode="normal" in="SourceGraphic" in2="effect1_backgroundBlur_710_1723" result="shape"/>
</filter>
<linearGradient id="paint0_linear_710_1723" x1="49.172" y1="11.9004" x2="47.3983" y2="18.6004" gradientUnits="userSpaceOnUse">
<stop stop-color="#CEFFE5" stop-opacity="0.6"/>
<stop offset="0.47452" stop-color="#00FFFF" stop-opacity="0.27"/>
<stop offset="0.914376" stop-color="#0066FF" stop-opacity="0.1"/>
</linearGradient>
<linearGradient id="paint1_linear_710_1723" x1="27.0384" y1="12.3763" x2="27.0384" y2="25.1395" gradientUnits="userSpaceOnUse">
<stop offset="0.333333" stop-color="#0066FF" stop-opacity="0.1"/>
<stop offset="0.85857" stop-color="#00FFFF" stop-opacity="0.4"/>
<stop offset="1" stop-color="#CEFFE5" stop-opacity="0.6"/>
</linearGradient>
<linearGradient id="paint2_linear_710_1723" x1="27.0384" y1="12.3763" x2="27.0384" y2="25.1395" gradientUnits="userSpaceOnUse">
<stop offset="0.333333" stop-color="#0066FF" stop-opacity="0.1"/>
<stop offset="0.85857" stop-color="#00FFFF" stop-opacity="0.4"/>
<stop offset="1" stop-color="#CEFFE5" stop-opacity="0.6"/>
</linearGradient>
<linearGradient id="paint3_linear_710_1723" x1="22.6711" y1="25.9577" x2="22.6711" y2="67.4661" gradientUnits="userSpaceOnUse">
<stop stop-color="#CEFFE5" stop-opacity="0.6"/>
<stop offset="0.47452" stop-color="#00FFFF" stop-opacity="0.27"/>
<stop offset="0.914376" stop-color="#0066FF" stop-opacity="0.1"/>
</linearGradient>
<linearGradient id="paint4_linear_710_1723" x1="22.6711" y1="25.9577" x2="22.6711" y2="67.4661" gradientUnits="userSpaceOnUse">
<stop stop-color="#CEFFE5" stop-opacity="0.6"/>
<stop offset="0.47452" stop-color="#00FFFF" stop-opacity="0.27"/>
<stop offset="0.914376" stop-color="#0066FF" stop-opacity="0.1"/>
</linearGradient>
<linearGradient id="paint5_linear_710_1723" x1="46.8957" y1="77.473" x2="45.8513" y2="69.8638" gradientUnits="userSpaceOnUse">
<stop stop-color="#3CEAF1"/>
<stop offset="1" stop-color="#3CF16F"/>
</linearGradient>
<linearGradient id="paint6_linear_710_1723" x1="35.6743" y1="70.234" x2="36.72" y2="73.2373" gradientUnits="userSpaceOnUse">
<stop stop-color="white"/>
<stop offset="1" stop-color="white" stop-opacity="0"/>
</linearGradient>
<linearGradient id="paint7_linear_710_1723" x1="13.5373" y1="31.9469" x2="58.3245" y2="58.8411" gradientUnits="userSpaceOnUse">
<stop stop-color="white"/>
<stop offset="0.153274" stop-color="#8AA8F5"/>
<stop offset="0.336377" stop-color="white" stop-opacity="0"/>
<stop offset="0.639716" stop-color="white" stop-opacity="0"/>
<stop offset="0.838542" stop-color="#8AA8F5" stop-opacity="0"/>
<stop offset="1" stop-color="white" stop-opacity="0"/>
</linearGradient>
<linearGradient id="paint8_linear_710_1723" x1="19.3403" y1="32.1808" x2="56.3042" y2="64.2755" gradientUnits="userSpaceOnUse">
<stop stop-color="white"/>
<stop offset="0.153274" stop-color="#8AA8F5"/>
<stop offset="0.336377" stop-color="white" stop-opacity="0"/>
<stop offset="0.639716" stop-color="white" stop-opacity="0"/>
<stop offset="0.838542" stop-color="#8AA8F5"/>
<stop offset="1" stop-color="white"/>
</linearGradient>
<radialGradient id="paint9_radial_710_1723" cx="0" cy="0" r="1" gradientUnits="userSpaceOnUse" gradientTransform="translate(55.4999 65) rotate(-123.198) scale(48.3994 45.9109)">
<stop stop-color="white" stop-opacity="0.89"/>
<stop offset="0.16458" stop-color="#3CEAF1" stop-opacity="0.743523"/>
<stop offset="1" stop-color="#3C7DFA" stop-opacity="0"/>
</radialGradient>
<linearGradient id="paint10_linear_710_1723" x1="42.3257" y1="49.3633" x2="30.8551" y2="30.9055" gradientUnits="userSpaceOnUse">
<stop stop-color="#3CEAF1"/>
<stop offset="1" stop-color="#3CF16F"/>
</linearGradient>
<linearGradient id="paint11_linear_710_1723" x1="34.1457" y1="25.4718" x2="39.1727" y2="28.6605" gradientUnits="userSpaceOnUse">
<stop stop-color="white"/>
<stop offset="1" stop-color="white" stop-opacity="0"/>
</linearGradient>
<radialGradient id="paint12_radial_710_1723" cx="0" cy="0" r="1" gradientUnits="userSpaceOnUse" gradientTransform="translate(52.1802 38.6121) rotate(100.558) scale(14.7895 11.7563)">
<stop offset="0.333333" stop-color="#FFC700" stop-opacity="0.54"/>
<stop offset="0.802083" stop-color="#3CEAF1" stop-opacity="0.58"/>
<stop offset="0.921875" stop-color="#2363C2"/>
<stop offset="1" stop-color="#18D3C4"/>
</radialGradient>
<radialGradient id="paint13_radial_710_1723" cx="0" cy="0" r="1" gradientUnits="userSpaceOnUse" gradientTransform="translate(48.8443 30.2101) rotate(137.766) scale(16.7348 36.7545)">
<stop offset="0.333333" stop-color="#FFC700" stop-opacity="0.54"/>
<stop offset="0.802083" stop-color="#3CEAF1" stop-opacity="0.58"/>
<stop offset="0.921875" stop-color="#2363C2"/>
<stop offset="1" stop-color="#18D3C4"/>
</radialGradient>
<radialGradient id="paint14_radial_710_1723" cx="0" cy="0" r="1" gradientUnits="userSpaceOnUse" gradientTransform="translate(33.6393 -0.0825108) rotate(94.9624) scale(54.3521 11.6144)">
<stop offset="0.333333" stop-color="#FFC700" stop-opacity="0.54"/>
<stop offset="0.802083" stop-color="#3CEAF1" stop-opacity="0.58"/>
<stop offset="0.921875" stop-color="#2363C2"/>
<stop offset="1" stop-color="#18D3C4"/>
</radialGradient>
<radialGradient id="paint15_radial_710_1723" cx="0" cy="0" r="1" gradientUnits="userSpaceOnUse" gradientTransform="translate(50.6448 22.1774) rotate(140.628) scale(21.381 46.2712)">
<stop offset="0.333333" stop-color="#FFC700" stop-opacity="0.54"/>
<stop offset="0.802083" stop-color="#3CEAF1" stop-opacity="0.58"/>
<stop offset="0.921875" stop-color="#2363C2"/>
<stop offset="1" stop-color="#18D3C4"/>
</radialGradient>
<linearGradient id="paint16_linear_710_1723" x1="51.0064" y1="53.8896" x2="39.7018" y2="37.9608" gradientUnits="userSpaceOnUse">
<stop stop-color="#0051AF"/>
<stop offset="0.782318" stop-color="#42FF77"/>
<stop offset="1" stop-color="#D9FFE3"/>
</linearGradient>
<linearGradient id="paint17_linear_710_1723" x1="42.8263" y1="29.9982" x2="47.8533" y2="33.1869" gradientUnits="userSpaceOnUse">
<stop stop-color="white"/>
<stop offset="1" stop-color="white" stop-opacity="0"/>
</linearGradient>
<radialGradient id="paint18_radial_710_1723" cx="0" cy="0" r="1" gradientUnits="userSpaceOnUse" gradientTransform="translate(54.272 58.9579) rotate(-116.409) scale(16.4227 14.9534)">
<stop stop-color="#DCA3FF"/>
<stop offset="1" stop-color="#DCA3FF" stop-opacity="0"/>
</radialGradient>
<linearGradient id="paint19_linear_710_1723" x1="54.0484" y1="62.2505" x2="46.9998" y2="37.7517" gradientUnits="userSpaceOnUse">
<stop stop-color="white"/>
<stop offset="0.617643" stop-color="#3CEAF1" stop-opacity="0.79"/>
<stop offset="1" stop-color="#3CEAF1" stop-opacity="0.44"/>
</linearGradient>
<linearGradient id="paint20_linear_710_1723" x1="54.0484" y1="62.2505" x2="46.9998" y2="37.7517" gradientUnits="userSpaceOnUse">
<stop stop-color="white"/>
<stop offset="0.617643" stop-color="#3CEAF1" stop-opacity="0.79"/>
<stop offset="1" stop-color="#3CEAF1" stop-opacity="0.44"/>
</linearGradient>
<radialGradient id="paint21_radial_710_1723" cx="0" cy="0" r="1" gradientUnits="userSpaceOnUse" gradientTransform="translate(17.3805 72.6498) rotate(129.806) scale(3.1241 3.123)">
<stop stop-color="#FFFCB3"/>
<stop offset="1" stop-color="#09AB37"/>
</radialGradient>
<linearGradient id="paint22_linear_710_1723" x1="73.5" y1="53" x2="73.5" y2="69.5" gradientUnits="userSpaceOnUse">
<stop stop-color="white"/>
<stop offset="0.362732" stop-color="#3CEAF1" stop-opacity="0.79"/>
<stop offset="1" stop-color="#3CEAF1" stop-opacity="0"/>
</linearGradient>
<radialGradient id="paint23_radial_710_1723" cx="0" cy="0" r="1" gradientUnits="userSpaceOnUse" gradientTransform="translate(76.325 50.4594) rotate(129.806) scale(3.1241 3.123)">
<stop stop-color="#FFFCB3"/>
<stop offset="1" stop-color="#09AB37"/>
</radialGradient>
<linearGradient id="paint24_linear_710_1723" x1="65.5" y1="30" x2="65.5" y2="39.5" gradientUnits="userSpaceOnUse">
<stop stop-color="white"/>
<stop offset="0.362732" stop-color="#3CEAF1" stop-opacity="0.79"/>
<stop offset="1" stop-color="#3CEAF1" stop-opacity="0"/>
</linearGradient>
<radialGradient id="paint25_radial_710_1723" cx="0" cy="0" r="1" gradientUnits="userSpaceOnUse" gradientTransform="translate(67.9784 29.7653) rotate(129.747) scale(1.63689 1.6357)">
<stop stop-color="#FFFCB3"/>
<stop offset="1" stop-color="#09AB37"/>
</radialGradient>
</defs>
</svg>
