<svg width="80" height="84" viewBox="0 0 80 84" fill="none" xmlns="http://www.w3.org/2000/svg">
<path d="M42.3801 15.0544L37.2654 12.2715C37.6638 12.4881 38.1441 12.7394 38.6984 13.0121L43.8142 15.795C43.2599 15.5223 42.7796 15.271 42.3801 15.0544Z" fill="#3C3C3C"/>
<g filter="url(#filter0_b_710_1331)">
<path d="M35.6658 11.5283L40.7805 14.3112L40.8864 14.2005L43.8147 15.7934C46.1451 16.9359 48.5659 17.8836 51.0525 18.6268C51.3607 18.7211 51.6644 18.8057 51.9637 18.8805L51.9636 18.8782C57.2702 20.255 62.0819 19.8253 63.0334 19.722L57.9176 16.9391C56.9661 17.0424 52.1543 17.4722 46.8489 16.0953L51.9637 18.8805L46.849 16.0975C46.546 16.0201 46.2419 15.9348 45.9378 15.8451C43.6068 15.1481 41.3335 14.2715 39.1385 13.2233L35.7882 11.4004L35.6658 11.5283Z" fill="url(#paint0_linear_710_1331)"/>
</g>
<g filter="url(#filter1_b_710_1331)">
<path d="M30.0393 15.9158L30.0362 15.9141C31.9935 14.5574 33.8735 13.0922 35.667 11.5254L40.7829 14.3083C38.989 15.8738 37.1091 17.3379 35.152 18.6939L35.1577 18.697C33.7236 19.6889 32.2573 20.6143 30.7589 21.4731C29.8197 22.0162 28.8905 22.4965 27.9906 22.9207H27.985L22.8748 20.1378C23.7725 19.7136 24.705 19.2333 25.6431 18.6914C27.1384 17.8338 28.6038 16.9086 30.0393 15.9158Z" fill="url(#paint1_linear_710_1331)"/>
<path d="M18.761 25.9337L13.6463 23.1508C13.8449 23.1239 17.9317 22.4663 22.8691 20.1379L27.985 22.9207C23.0476 25.2491 18.9596 25.9057 18.761 25.9337Z" fill="url(#paint2_linear_710_1331)"/>
</g>
<g filter="url(#filter2_b_710_1331)">
<path d="M13.4003 47.5475L18.5161 50.3304L18.561 25.9733L13.4452 23.1904L13.4003 47.5475Z" fill="url(#paint3_linear_710_1331)"/>
<path d="M27.215 67.3444L32.1868 70.049C30.2708 68.9914 28.4838 67.7153 26.8615 66.2459C21.5437 61.4992 18.5038 55.7023 18.5139 50.3306L13.3993 47.5477C13.3892 52.9149 16.4324 58.7163 21.7468 63.463C23.409 64.9693 25.2446 66.2724 27.215 67.3444Z" fill="url(#paint4_linear_710_1331)"/>
</g>
<g filter="url(#filter3_f_710_1331)">
<ellipse cx="39.5" cy="74.5" rx="15" ry="3.5" fill="url(#paint5_linear_710_1331)" fill-opacity="0.5"/>
<path d="M54.34 74.5C54.34 74.6921 54.2573 74.892 54.075 75.0999C53.8917 75.3088 53.6143 75.518 53.2439 75.7223C52.5034 76.1308 51.4212 76.5038 50.0702 76.8191C47.3709 77.4489 43.6336 77.84 39.5 77.84C35.3664 77.84 31.6291 77.4489 28.9298 76.8191C27.5788 76.5038 26.4966 76.1308 25.7561 75.7223C25.3857 75.518 25.1083 75.3088 24.925 75.0999C24.7427 74.892 24.66 74.6921 24.66 74.5C24.66 74.3079 24.7427 74.108 24.925 73.9001C25.1083 73.6912 25.3857 73.482 25.7561 73.2777C26.4966 72.8692 27.5788 72.4962 28.9298 72.1809C31.6291 71.5511 35.3664 71.16 39.5 71.16C43.6336 71.16 47.3709 71.5511 50.0702 72.1809C51.4212 72.4962 52.5034 72.8692 53.2439 73.2777C53.6143 73.482 53.8917 73.6912 54.075 73.9001C54.2573 74.108 54.34 74.3079 54.34 74.5Z" stroke="url(#paint6_linear_710_1331)" stroke-width="0.32"/>
</g>
<g filter="url(#filter4_i_710_1331)">
<path d="M35.7881 11.4004L35.9149 11.4868C36.329 11.7494 40.1644 14.1182 45.9378 15.844C51.5945 17.5272 56.9123 17.0515 57.9189 16.9415L58.104 16.9202L58.0726 41.2806C58.0726 46.6411 55.0069 53.2964 49.6712 59.5434C44.9582 65.0508 39.3475 69.0939 35.6938 69.6067C34.0005 69.8457 31.7237 69.4024 29.2853 68.3645C26.5269 67.1441 23.9818 65.4897 21.7468 63.4641C16.4335 58.7175 13.3892 52.916 13.3993 47.5489L13.4453 23.1918L13.6394 23.1536C13.8739 23.1211 19.5452 22.2088 25.6317 18.6931C29.2035 16.6402 32.5645 14.2403 35.6658 11.5283L35.7881 11.4004Z" fill="white" fill-opacity="0.01"/>
</g>
<path d="M25.7115 18.8318C19.6354 22.3414 13.972 23.2675 13.6661 23.3115L13.605 23.3235L13.5593 47.5492C13.5493 52.8569 16.5624 58.618 21.8534 63.3448L21.8543 63.3455C24.0763 65.3594 26.6067 67.0043 29.3491 68.2177C31.7739 69.2498 34.0191 69.6815 35.6715 69.4482L35.6716 69.4482C37.46 69.1972 39.7506 68.0762 42.1918 66.3182C44.6288 64.5632 47.2004 62.1845 49.5496 59.4393C54.8732 53.2065 57.9126 46.5871 57.9126 41.2806V41.2804L57.9438 17.0997L57.9372 17.1004L57.9362 17.1006C56.9218 17.2114 51.5791 17.6896 45.8922 15.9974L45.892 15.9973C40.1 14.2659 36.2509 11.8893 35.8292 11.6219L35.8248 11.6191L35.8248 11.619L35.8101 11.609L35.7814 11.6389L35.7765 11.6441L35.7711 11.6488C32.6619 14.3677 29.2924 16.7736 25.7115 18.8318ZM25.7115 18.8318C25.7114 18.8318 25.7114 18.8319 25.7114 18.8319L25.6317 18.6931L25.7117 18.8317C25.7116 18.8317 25.7115 18.8318 25.7115 18.8318Z" stroke="url(#paint7_linear_710_1331)" stroke-width="0.32"/>
<g filter="url(#filter5_i_710_1331)">
<path d="M40.9883 14.2012L41.1151 14.2876C41.5291 14.5502 45.3646 16.919 51.138 18.6448C56.7947 20.328 62.1125 19.8522 63.119 19.7423L63.3042 19.721L63.2728 44.0814C63.2728 49.4418 60.2071 56.0972 54.8713 62.3441C50.1584 67.8516 44.5477 71.8946 40.894 72.4075C39.2007 72.6465 36.9239 72.2032 34.4855 71.1652C31.7271 69.9449 29.182 68.2905 26.947 66.2649C21.6337 61.5182 18.5893 55.7168 18.5994 50.3496L18.6454 25.9926L18.8396 25.9544C19.0741 25.9219 24.7454 25.0096 30.8318 21.4939C34.4037 19.441 37.7647 17.0411 40.866 14.3291L40.9883 14.2012Z" fill="#0047FF" fill-opacity="0.2"/>
</g>
<path d="M30.9116 21.6326C24.8356 25.1422 19.1721 26.0683 18.8662 26.1122L18.8052 26.1242L18.7594 50.3499C18.7494 55.6577 21.7625 61.4188 27.0536 66.1456L27.0544 66.1463C29.2765 68.1602 31.8068 69.8051 34.5492 71.0185C36.9741 72.0505 39.2193 72.4823 40.8717 72.249L40.8718 72.249C42.6602 71.998 44.9508 70.8769 47.3919 69.1189C49.8289 67.364 52.4005 64.9854 54.7497 62.2402C60.0734 56.0074 63.1128 49.3879 63.1128 44.0814V44.0812L63.1439 19.9005L63.1373 19.9012L63.1364 19.9013C62.122 20.0122 56.7793 20.4904 51.0924 18.7982L51.0922 18.7981C45.3002 17.0667 41.4511 14.6901 41.0294 14.4227L41.0249 14.4199L41.025 14.4198L41.0102 14.4097L40.9816 14.4397L40.9767 14.4448L40.9713 14.4495C37.8621 17.1684 34.4926 19.5744 30.9116 21.6326ZM30.9116 21.6326C30.9116 21.6326 30.9116 21.6326 30.9116 21.6326L30.8318 21.4939L30.9119 21.6325C30.9118 21.6325 30.9117 21.6326 30.9116 21.6326Z" stroke="url(#paint8_linear_710_1331)" stroke-width="0.32"/>
<path d="M40.9883 14.2012L41.1151 14.2876C41.5291 14.5502 45.3646 16.919 51.138 18.6448C56.7947 20.328 62.1125 19.8522 63.119 19.7423L63.3042 19.721L63.2728 44.0814C63.2728 49.4418 60.2071 56.0972 54.8713 62.3441C50.1584 67.8516 44.5477 71.8946 40.894 72.4075C39.2007 72.6465 36.9239 72.2032 34.4855 71.1652C31.7271 69.9449 29.182 68.2905 26.947 66.2649C21.6337 61.5182 18.5893 55.7168 18.5994 50.3496L18.6454 25.9926L18.8396 25.9544C19.0741 25.9219 24.7454 25.0096 30.8318 21.4939C34.4037 19.441 37.7647 17.0411 40.866 14.3291L40.9883 14.2012Z" fill="url(#paint9_radial_710_1331)"/>
<g filter="url(#filter6_f_710_1331)">
<path d="M34.0918 25.4958C35.3788 26.4537 37.5758 27.8253 39.1859 30.1598C40.8281 32.5385 41.9071 36.7498 41.9054 37.1431C42.3621 36.6989 44.1599 35.1765 44.5015 32.0858C45.2829 33.4675 45.4334 33.7591 46.1708 36.07C46.9099 38.3808 46.9742 39.9269 46.9725 41.3765C46.9623 47.2832 42.543 52.5067 37.1749 53.2628C31.8085 54.019 27.4062 50.2654 27.418 44.357C27.4214 42.9074 27.577 40.912 28.4226 39.3132C29.2666 37.7145 29.73 37.2703 30.738 35.9089C31.7477 34.5458 31.8982 34.4644 32.7083 32.7114C33.5167 30.9584 34.085 27.6591 34.0901 25.4941L34.0918 25.4958Z" fill="url(#paint10_linear_710_1331)" fill-opacity="0.7"/>
<path d="M34.2457 25.8073C34.2197 26.8446 34.08 28.0878 33.8578 29.2864C33.613 30.6065 33.2659 31.8844 32.8536 32.7784L32.8535 32.7785C32.4476 33.6568 32.2037 34.1237 31.9323 34.5433C31.7432 34.8357 31.5401 35.1056 31.2621 35.4752C31.1451 35.6308 31.0147 35.804 30.8665 36.0041L34.2457 25.8073ZM34.2457 25.8073C34.3665 25.8949 34.493 25.9857 34.6245 26.08C35.9234 27.0117 37.6982 28.2846 39.0542 30.2507L39.0542 30.2507C39.8626 31.4216 40.5372 33.0523 41.0106 34.4474C41.2468 35.1433 41.4317 35.7772 41.5573 36.2608C41.6201 36.5026 41.6679 36.706 41.6997 36.8601C41.733 37.0209 41.7456 37.113 41.7454 37.1424L41.7438 37.5236L42.017 37.2578C42.0448 37.2308 42.0777 37.1996 42.1151 37.1642C42.6607 36.6476 44.1563 35.2314 44.5952 32.5785M34.2457 25.8073L44.5952 32.5785M44.5952 32.5785C44.8521 33.0395 45.0304 33.3808 45.2054 33.7921C45.4296 34.3188 45.6495 34.9627 46.0184 36.1186L46.0184 36.1187C46.7507 38.4083 46.8142 39.9366 46.8125 41.3762C46.8025 47.2099 42.4355 52.3603 37.1526 53.1044C34.513 53.4763 32.1188 52.7389 30.3863 51.1898C28.6538 49.6409 27.5722 47.2706 27.578 44.3574L44.5952 32.5785ZM28.5641 39.3879L28.564 39.388C27.7375 40.9507 27.5814 42.913 27.578 44.3573L28.5641 39.3879ZM28.5641 39.3879C29.1984 38.1864 29.6112 37.6494 30.216 36.8625M28.5641 39.3879L30.216 36.8625M30.216 36.8625C30.4089 36.6117 30.6212 36.3354 30.8665 36.0041L30.216 36.8625Z" stroke="url(#paint11_linear_710_1331)" stroke-width="0.32"/>
</g>
<g filter="url(#filter7_d_710_1331)">
<g filter="url(#filter8_b_710_1331)">
<path d="M35.6067 53.9739L39.4651 56.0732C39.45 56.065 39.4349 56.0567 39.4198 56.0484L39.4651 56.0732C37.0061 54.734 35.3287 52.1377 35.134 48.7642C35.121 48.5391 35.1146 48.3106 35.115 48.0787L35.1151 48.0774C35.1165 46.8763 35.2252 45.3008 35.7445 43.8866L35.7457 43.8873C35.8542 43.5939 35.978 43.3091 36.1238 43.0344C36.1474 42.9889 36.171 42.945 36.1947 42.9011C36.5355 42.2687 36.8156 41.8205 37.1005 41.4153L37.0992 41.4146C37.3205 41.1001 37.5441 40.81 37.8011 40.4765C37.9928 40.2279 38.2033 39.9548 38.445 39.6299C38.6009 39.4198 38.7364 39.2401 38.8572 39.0801C39.0463 38.8293 39.1991 38.6268 39.3368 38.4312L39.3356 38.4305C39.4249 38.3036 39.5077 38.1792 39.5899 38.0461C39.6749 37.909 39.7592 37.7627 39.8495 37.5948L39.8504 37.5953C40.0098 37.2986 40.1878 36.9341 40.4201 36.4339C40.5083 36.244 40.5931 36.0372 40.6744 35.8151L40.6731 35.8144C40.8301 35.3864 40.9752 34.9041 41.1054 34.3916C41.504 32.8253 41.7631 30.9767 41.7993 29.5343C41.8021 29.4259 41.8035 29.3198 41.8037 29.2163L41.8037 29.2149L37.9397 27.1125C37.9346 29.2776 37.3649 32.577 36.5545 34.3301C35.8637 35.8214 35.6513 36.103 34.9803 36.9929C34.8624 37.1492 34.7305 37.3242 34.5793 37.5278C34.3363 37.8552 34.1249 38.1295 33.9321 38.3796C33.8301 38.5121 33.7332 38.6377 33.6397 38.7609C33.1754 39.3722 32.793 39.9215 32.2582 40.9323C32.1128 41.2065 31.9878 41.4923 31.8804 41.7851C31.3615 43.1991 31.2528 44.7757 31.2511 45.9761L31.251 45.9979C31.251 49.6971 32.9872 52.5491 35.6067 53.9739Z" fill="url(#paint12_radial_710_1331)"/>
</g>
<path d="M41.87 29.8022C41.8287 30.7914 41.6934 31.935 41.4886 33.0395C41.2429 34.3644 40.8932 35.6553 40.4739 36.5646L40.4738 36.5648C40.0671 37.4447 39.8199 37.9188 39.543 38.3468C39.351 38.6436 39.1438 38.9192 38.8639 39.2912C38.7473 39.4462 38.6181 39.618 38.4722 39.815C38.2243 40.1497 38.0107 40.4277 37.8174 40.6792C37.2146 41.4633 36.8095 41.9904 36.1811 43.1808L36.181 43.181C35.3711 44.7121 35.2145 46.6454 35.2112 48.0851L41.87 29.8022ZM41.87 29.8022C41.9254 29.8421 41.9819 29.8826 42.0392 29.9237C43.3385 30.856 45.0912 32.1136 46.4321 34.0577L46.4322 34.0578C47.2294 35.2125 47.8991 36.8286 48.3712 38.2199C48.6062 38.9126 48.7902 39.5432 48.915 40.0235C48.9774 40.2638 49.0245 40.4648 49.0558 40.616C49.0715 40.6917 49.0827 40.753 49.0899 40.7995C49.0978 40.8506 49.0986 40.8702 49.0986 40.8694L49.0955 41.584L49.6078 41.0857C49.6355 41.0587 49.6684 41.0276 49.7058 40.9921C50.2283 40.4975 51.6331 39.1676 52.1534 36.7159M41.87 29.8022L52.1534 36.7159M52.1534 36.7159C52.3145 37.0158 52.443 37.2765 52.5698 37.5745C52.7911 38.0944 53.0092 38.7324 53.3782 39.8887L53.3782 39.8889C54.1046 42.16 54.1673 43.6726 54.1656 45.1035C54.1557 50.8733 49.8346 55.9597 44.6263 56.6933L44.6681 56.9904L44.6262 56.6933C42.0248 57.0599 39.6726 56.3328 37.9727 54.813C36.273 53.2933 35.2054 50.9626 35.2112 48.0852L52.1534 36.7159Z" fill="url(#paint13_linear_710_1331)" fill-opacity="0.7" stroke="url(#paint14_linear_710_1331)" stroke-width="0.6"/>
<path d="M41.5849 29.2234C42.872 30.1813 45.0689 31.5528 46.679 33.8874C48.3213 36.266 49.4003 40.4773 49.3986 40.8707C49.8552 40.4265 51.6531 38.904 51.9947 35.8133C52.7761 37.1951 52.9266 37.4867 53.664 39.7975C54.4031 42.1083 54.4673 43.6545 54.4656 45.104C54.4555 51.0108 50.0362 56.2342 44.6681 56.9904C39.3017 57.7465 34.8993 53.9929 34.9112 48.0845C34.9145 46.635 35.0701 44.6395 35.9158 43.0408C36.7597 41.442 37.2231 40.9978 38.2311 39.6364C39.2408 38.2733 39.3913 38.192 40.2015 36.4389C41.0099 34.6859 41.5782 31.3867 41.5832 29.2217L41.5849 29.2234Z" fill="url(#paint15_radial_710_1331)"/>
<g filter="url(#filter9_b_710_1331)">
<path d="M51.9941 36.0563L48.1436 33.9612C48.0655 34.6672 47.9102 35.2915 47.7128 35.8396C48.7668 38.0988 49.4131 40.6915 49.4118 40.996C49.4397 40.9688 49.4727 40.9376 49.51 40.9023C50.075 40.3672 51.6437 38.8816 51.9941 36.0563Z" fill="#226DC3"/>
</g>
</g>
<path d="M63.3996 22.3618C70.4841 21.947 75.2388 23.57 77.3462 27.3926C81.9923 35.8198 69.2617 51.7463 48.9117 62.9655C28.5618 74.1847 8.29854 76.448 3.65252 68.0208C0.698683 62.663 4.76867 54.2739 13.355 45.9904" stroke="url(#paint16_linear_710_1331)" stroke-width="0.4"/>
<path d="M63.3996 22.3618C70.4841 21.947 75.2388 23.57 77.3462 27.3926C81.9923 35.8198 69.2617 51.7463 48.9117 62.9655C28.5618 74.1847 8.29854 76.448 3.65252 68.0208C0.698683 62.663 4.76867 54.2739 13.355 45.9904" stroke="url(#paint17_linear_710_1331)" stroke-width="0.4"/>
<path d="M16.4664 75.0043C17.5217 75.0043 18.3773 74.1505 18.3773 73.0974C18.3773 72.0442 17.5217 71.1904 16.4664 71.1904C15.411 71.1904 14.5555 72.0442 14.5555 73.0974C14.5555 74.1505 15.411 75.0043 16.4664 75.0043Z" fill="url(#paint18_radial_710_1331)"/>
<path d="M75.5 52V70" stroke="url(#paint19_linear_710_1331)" stroke-width="0.4"/>
<path d="M75.4109 52.8139C76.4663 52.8139 77.3218 51.9601 77.3218 50.9069C77.3218 49.8538 76.4663 49 75.4109 49C74.3555 49 73.5 49.8538 73.5 50.9069C73.5 51.9601 74.3555 52.8139 75.4109 52.8139Z" fill="url(#paint20_radial_710_1331)"/>
<path d="M67.5 31V39.5" stroke="url(#paint21_linear_710_1331)" stroke-width="0.4"/>
<path d="M67.5 31C68.0523 31 68.5 30.5523 68.5 30C68.5 29.4477 68.0523 29 67.5 29C66.9477 29 66.5 29.4477 66.5 30C66.5 30.5523 66.9477 31 67.5 31Z" fill="url(#paint22_radial_710_1331)"/>
<path d="M13.7988 23.4004L18.9988 26.2004" stroke="white" stroke-width="0.32"/>
<defs>
<filter id="filter0_b_710_1331" x="34.3858" y="10.1204" width="29.9276" height="11.0265" filterUnits="userSpaceOnUse" color-interpolation-filters="sRGB">
<feFlood flood-opacity="0" result="BackgroundImageFix"/>
<feGaussianBlur in="BackgroundImageFix" stdDeviation="0.64"/>
<feComposite in2="SourceAlpha" operator="in" result="effect1_backgroundBlur_710_1331"/>
<feBlend mode="normal" in="SourceGraphic" in2="effect1_backgroundBlur_710_1331" result="shape"/>
</filter>
<filter id="filter1_b_710_1331" x="12.3663" y="10.2454" width="29.6965" height="16.9683" filterUnits="userSpaceOnUse" color-interpolation-filters="sRGB">
<feFlood flood-opacity="0" result="BackgroundImageFix"/>
<feGaussianBlur in="BackgroundImageFix" stdDeviation="0.64"/>
<feComposite in2="SourceAlpha" operator="in" result="effect1_backgroundBlur_710_1331"/>
<feBlend mode="normal" in="SourceGraphic" in2="effect1_backgroundBlur_710_1331" result="shape"/>
</filter>
<filter id="filter2_b_710_1331" x="12.1192" y="21.9104" width="21.3475" height="49.4186" filterUnits="userSpaceOnUse" color-interpolation-filters="sRGB">
<feFlood flood-opacity="0" result="BackgroundImageFix"/>
<feGaussianBlur in="BackgroundImageFix" stdDeviation="0.64"/>
<feComposite in2="SourceAlpha" operator="in" result="effect1_backgroundBlur_710_1331"/>
<feBlend mode="normal" in="SourceGraphic" in2="effect1_backgroundBlur_710_1331" result="shape"/>
</filter>
<filter id="filter3_f_710_1331" x="18.5" y="65" width="42" height="19" filterUnits="userSpaceOnUse" color-interpolation-filters="sRGB">
<feFlood flood-opacity="0" result="BackgroundImageFix"/>
<feBlend mode="normal" in="SourceGraphic" in2="BackgroundImageFix" result="shape"/>
<feGaussianBlur stdDeviation="3" result="effect1_foregroundBlur_710_1331"/>
</filter>
<filter id="filter4_i_710_1331" x="13.3992" y="11.4004" width="44.7048" height="58.9096" filterUnits="userSpaceOnUse" color-interpolation-filters="sRGB">
<feFlood flood-opacity="0" result="BackgroundImageFix"/>
<feBlend mode="normal" in="SourceGraphic" in2="BackgroundImageFix" result="shape"/>
<feColorMatrix in="SourceAlpha" type="matrix" values="0 0 0 0 0 0 0 0 0 0 0 0 0 0 0 0 0 0 127 0" result="hardAlpha"/>
<feOffset dy="0.64"/>
<feGaussianBlur stdDeviation="6.4"/>
<feComposite in2="hardAlpha" operator="arithmetic" k2="-1" k3="1"/>
<feColorMatrix type="matrix" values="0 0 0 0 0 0 0 0 0 0.76 0 0 0 0 1 0 0 0 0.25 0"/>
<feBlend mode="normal" in2="shape" result="effect1_innerShadow_710_1331"/>
</filter>
<filter id="filter5_i_710_1331" x="18.5994" y="14.2012" width="44.7048" height="58.9096" filterUnits="userSpaceOnUse" color-interpolation-filters="sRGB">
<feFlood flood-opacity="0" result="BackgroundImageFix"/>
<feBlend mode="normal" in="SourceGraphic" in2="BackgroundImageFix" result="shape"/>
<feColorMatrix in="SourceAlpha" type="matrix" values="0 0 0 0 0 0 0 0 0 0 0 0 0 0 0 0 0 0 127 0" result="hardAlpha"/>
<feOffset dy="0.64"/>
<feGaussianBlur stdDeviation="12"/>
<feComposite in2="hardAlpha" operator="arithmetic" k2="-1" k3="1"/>
<feColorMatrix type="matrix" values="0 0 0 0 0 0 0 0 0 0.76 0 0 0 0 1 0 0 0 0.4 0"/>
<feBlend mode="normal" in2="shape" result="effect1_innerShadow_710_1331"/>
</filter>
<filter id="filter6_f_710_1331" x="21.418" y="19.4941" width="31.5546" height="39.8652" filterUnits="userSpaceOnUse" color-interpolation-filters="sRGB">
<feFlood flood-opacity="0" result="BackgroundImageFix"/>
<feBlend mode="normal" in="SourceGraphic" in2="BackgroundImageFix" result="shape"/>
<feGaussianBlur stdDeviation="3" result="effect1_foregroundBlur_710_1331"/>
</filter>
<filter id="filter7_d_710_1331" x="24" y="26" width="31.4657" height="38.0869" filterUnits="userSpaceOnUse" color-interpolation-filters="sRGB">
<feFlood flood-opacity="0" result="BackgroundImageFix"/>
<feColorMatrix in="SourceAlpha" type="matrix" values="0 0 0 0 0 0 0 0 0 0 0 0 0 0 0 0 0 0 127 0" result="hardAlpha"/>
<feOffset dx="-3" dy="3"/>
<feGaussianBlur stdDeviation="2"/>
<feComposite in2="hardAlpha" operator="out"/>
<feColorMatrix type="matrix" values="0 0 0 0 0.0784314 0 0 0 0 0.12549 0 0 0 0 0.337255 0 0 0 0.8 0"/>
<feBlend mode="normal" in2="BackgroundImageFix" result="effect1_dropShadow_710_1331"/>
<feBlend mode="normal" in="SourceGraphic" in2="effect1_dropShadow_710_1331" result="shape"/>
</filter>
<filter id="filter8_b_710_1331" x="29.971" y="25.8325" width="13.1127" height="31.5208" filterUnits="userSpaceOnUse" color-interpolation-filters="sRGB">
<feFlood flood-opacity="0" result="BackgroundImageFix"/>
<feGaussianBlur in="BackgroundImageFix" stdDeviation="0.64"/>
<feComposite in2="SourceAlpha" operator="in" result="effect1_backgroundBlur_710_1331"/>
<feBlend mode="normal" in="SourceGraphic" in2="effect1_backgroundBlur_710_1331" result="shape"/>
</filter>
<filter id="filter9_b_710_1331" x="46.4328" y="32.6812" width="6.84137" height="9.59479" filterUnits="userSpaceOnUse" color-interpolation-filters="sRGB">
<feFlood flood-opacity="0" result="BackgroundImageFix"/>
<feGaussianBlur in="BackgroundImageFix" stdDeviation="0.64"/>
<feComposite in2="SourceAlpha" operator="in" result="effect1_backgroundBlur_710_1331"/>
<feBlend mode="normal" in="SourceGraphic" in2="effect1_backgroundBlur_710_1331" result="shape"/>
</filter>
<linearGradient id="paint0_linear_710_1331" x1="49.1719" y1="11.9004" x2="47.3983" y2="18.6004" gradientUnits="userSpaceOnUse">
<stop stop-color="#CEFFE5" stop-opacity="0.6"/>
<stop offset="0.47452" stop-color="#00FFFF" stop-opacity="0.27"/>
<stop offset="0.914376" stop-color="#0066FF" stop-opacity="0.1"/>
</linearGradient>
<linearGradient id="paint1_linear_710_1331" x1="27.0384" y1="12.3763" x2="27.0384" y2="25.1395" gradientUnits="userSpaceOnUse">
<stop offset="0.333333" stop-color="#0066FF" stop-opacity="0.1"/>
<stop offset="0.85857" stop-color="#00FFFF" stop-opacity="0.4"/>
<stop offset="1" stop-color="#CEFFE5" stop-opacity="0.6"/>
</linearGradient>
<linearGradient id="paint2_linear_710_1331" x1="27.0384" y1="12.3763" x2="27.0384" y2="25.1395" gradientUnits="userSpaceOnUse">
<stop offset="0.333333" stop-color="#0066FF" stop-opacity="0.1"/>
<stop offset="0.85857" stop-color="#00FFFF" stop-opacity="0.4"/>
<stop offset="1" stop-color="#CEFFE5" stop-opacity="0.6"/>
</linearGradient>
<linearGradient id="paint3_linear_710_1331" x1="22.671" y1="25.9577" x2="22.671" y2="67.4661" gradientUnits="userSpaceOnUse">
<stop stop-color="#CEFFE5" stop-opacity="0.6"/>
<stop offset="0.47452" stop-color="#00FFFF" stop-opacity="0.27"/>
<stop offset="0.914376" stop-color="#0066FF" stop-opacity="0.1"/>
</linearGradient>
<linearGradient id="paint4_linear_710_1331" x1="22.671" y1="25.9577" x2="22.671" y2="67.4661" gradientUnits="userSpaceOnUse">
<stop stop-color="#CEFFE5" stop-opacity="0.6"/>
<stop offset="0.47452" stop-color="#00FFFF" stop-opacity="0.27"/>
<stop offset="0.914376" stop-color="#0066FF" stop-opacity="0.1"/>
</linearGradient>
<linearGradient id="paint5_linear_710_1331" x1="46.8957" y1="77.473" x2="45.8513" y2="69.8638" gradientUnits="userSpaceOnUse">
<stop stop-color="#3CEAF1"/>
<stop offset="1" stop-color="#3CF16F"/>
</linearGradient>
<linearGradient id="paint6_linear_710_1331" x1="35.6743" y1="70.234" x2="36.72" y2="73.2373" gradientUnits="userSpaceOnUse">
<stop stop-color="white"/>
<stop offset="1" stop-color="white" stop-opacity="0"/>
</linearGradient>
<linearGradient id="paint7_linear_710_1331" x1="13.5373" y1="31.9469" x2="58.3245" y2="58.8411" gradientUnits="userSpaceOnUse">
<stop stop-color="white"/>
<stop offset="0.153274" stop-color="#8AA8F5"/>
<stop offset="0.336377" stop-color="white" stop-opacity="0"/>
<stop offset="0.639716" stop-color="white" stop-opacity="0"/>
<stop offset="0.838542" stop-color="#8AA8F5" stop-opacity="0"/>
<stop offset="1" stop-color="white" stop-opacity="0"/>
</linearGradient>
<linearGradient id="paint8_linear_710_1331" x1="19.3403" y1="32.1808" x2="56.3042" y2="64.2755" gradientUnits="userSpaceOnUse">
<stop stop-color="white"/>
<stop offset="0.153274" stop-color="#8AA8F5"/>
<stop offset="0.336377" stop-color="white" stop-opacity="0"/>
<stop offset="0.639716" stop-color="white" stop-opacity="0"/>
<stop offset="0.838542" stop-color="#8AA8F5"/>
<stop offset="1" stop-color="white"/>
</linearGradient>
<radialGradient id="paint9_radial_710_1331" cx="0" cy="0" r="1" gradientUnits="userSpaceOnUse" gradientTransform="translate(55.4998 65) rotate(-123.198) scale(48.3994 45.9109)">
<stop stop-color="white" stop-opacity="0.89"/>
<stop offset="0.16458" stop-color="#3CEAF1" stop-opacity="0.743523"/>
<stop offset="1" stop-color="#3C7DFA" stop-opacity="0"/>
</radialGradient>
<linearGradient id="paint10_linear_710_1331" x1="42.0159" y1="51.2615" x2="26.8224" y2="33.1371" gradientUnits="userSpaceOnUse">
<stop stop-color="#3CEAF1"/>
<stop offset="1" stop-color="#3CF16F"/>
</linearGradient>
<linearGradient id="paint11_linear_710_1331" x1="34.7016" y1="22.4448" x2="39.8636" y2="24.8722" gradientUnits="userSpaceOnUse">
<stop stop-color="white"/>
<stop offset="1" stop-color="white" stop-opacity="0"/>
</linearGradient>
<radialGradient id="paint12_radial_710_1331" cx="0" cy="0" r="1" gradientUnits="userSpaceOnUse" gradientTransform="translate(39.1667 -16.091) rotate(95.2417) scale(73.1322 29.3616)">
<stop offset="0.333333" stop-color="#FFC700" stop-opacity="0.54"/>
<stop offset="0.802083" stop-color="#3CEAF1" stop-opacity="0.58"/>
<stop offset="0.921875" stop-color="#2363C2"/>
<stop offset="1" stop-color="#18D3C4"/>
</radialGradient>
<linearGradient id="paint13_linear_710_1331" x1="49.5091" y1="54.9891" x2="35.0781" y2="39.9146" gradientUnits="userSpaceOnUse">
<stop stop-color="#0051AF"/>
<stop offset="0.782318" stop-color="#42FF77"/>
<stop offset="1" stop-color="#D9FFE3"/>
</linearGradient>
<linearGradient id="paint14_linear_710_1331" x1="42.1947" y1="26.1723" x2="47.3568" y2="28.5997" gradientUnits="userSpaceOnUse">
<stop stop-color="white"/>
<stop offset="1" stop-color="white" stop-opacity="0"/>
</linearGradient>
<radialGradient id="paint15_radial_710_1331" cx="0" cy="0" r="1" gradientUnits="userSpaceOnUse" gradientTransform="translate(52.4291 61.1022) rotate(-110.211) scale(18.9052 14.0096)">
<stop stop-color="#DCA3FF"/>
<stop offset="1" stop-color="#DCA3FF" stop-opacity="0"/>
</radialGradient>
<linearGradient id="paint16_linear_710_1331" x1="54.0483" y1="62.2505" x2="46.9997" y2="37.7517" gradientUnits="userSpaceOnUse">
<stop stop-color="white"/>
<stop offset="0.617643" stop-color="#3CEAF1" stop-opacity="0.79"/>
<stop offset="1" stop-color="#3CEAF1" stop-opacity="0.44"/>
</linearGradient>
<linearGradient id="paint17_linear_710_1331" x1="54.0483" y1="62.2505" x2="46.9997" y2="37.7517" gradientUnits="userSpaceOnUse">
<stop stop-color="white"/>
<stop offset="0.617643" stop-color="#3CEAF1" stop-opacity="0.79"/>
<stop offset="1" stop-color="#3CEAF1" stop-opacity="0.44"/>
</linearGradient>
<radialGradient id="paint18_radial_710_1331" cx="0" cy="0" r="1" gradientUnits="userSpaceOnUse" gradientTransform="translate(17.3805 72.6498) rotate(129.806) scale(3.1241 3.123)">
<stop stop-color="#FFFCB3"/>
<stop offset="1" stop-color="#09AB37"/>
</radialGradient>
<linearGradient id="paint19_linear_710_1331" x1="73.5" y1="53" x2="73.5" y2="69.5" gradientUnits="userSpaceOnUse">
<stop stop-color="white"/>
<stop offset="0.362732" stop-color="#3CEAF1" stop-opacity="0.79"/>
<stop offset="1" stop-color="#3CEAF1" stop-opacity="0"/>
</linearGradient>
<radialGradient id="paint20_radial_710_1331" cx="0" cy="0" r="1" gradientUnits="userSpaceOnUse" gradientTransform="translate(76.325 50.4594) rotate(129.806) scale(3.1241 3.123)">
<stop stop-color="#FFFCB3"/>
<stop offset="1" stop-color="#09AB37"/>
</radialGradient>
<linearGradient id="paint21_linear_710_1331" x1="65.5" y1="30" x2="65.5" y2="39.5" gradientUnits="userSpaceOnUse">
<stop stop-color="white"/>
<stop offset="0.362732" stop-color="#3CEAF1" stop-opacity="0.79"/>
<stop offset="1" stop-color="#3CEAF1" stop-opacity="0"/>
</linearGradient>
<radialGradient id="paint22_radial_710_1331" cx="0" cy="0" r="1" gradientUnits="userSpaceOnUse" gradientTransform="translate(67.9784 29.7653) rotate(129.747) scale(1.63689 1.6357)">
<stop stop-color="#FFFCB3"/>
<stop offset="1" stop-color="#09AB37"/>
</radialGradient>
</defs>
</svg>
